%TF.GenerationSoftware,KiCad,Pcbnew,9.0.7*%
%TF.CreationDate,2026-03-22T18:22:53+00:00*%
%TF.ProjectId,walking_logger,77616c6b-696e-4675-9f6c-6f676765722e,0*%
%TF.SameCoordinates,Original*%
%TF.FileFunction,Copper,L2,Bot*%
%TF.FilePolarity,Positive*%
%FSLAX46Y46*%
G04 Gerber Fmt 4.6, Leading zero omitted, Abs format (unit mm)*
G04 Created by KiCad (PCBNEW 9.0.7) date 2026-03-22 18:22:53*
%MOMM*%
%LPD*%
G01*
G04 APERTURE LIST*
G04 Aperture macros list*
%AMRoundRect*
0 Rectangle with rounded corners*
0 $1 Rounding radius*
0 $2 $3 $4 $5 $6 $7 $8 $9 X,Y pos of 4 corners*
0 Add a 4 corners polygon primitive as box body*
4,1,4,$2,$3,$4,$5,$6,$7,$8,$9,$2,$3,0*
0 Add four circle primitives for the rounded corners*
1,1,$1+$1,$2,$3*
1,1,$1+$1,$4,$5*
1,1,$1+$1,$6,$7*
1,1,$1+$1,$8,$9*
0 Add four rect primitives between the rounded corners*
20,1,$1+$1,$2,$3,$4,$5,0*
20,1,$1+$1,$4,$5,$6,$7,0*
20,1,$1+$1,$6,$7,$8,$9,0*
20,1,$1+$1,$8,$9,$2,$3,0*%
%AMFreePoly0*
4,1,37,0.603843,0.796157,0.639018,0.796157,0.711114,0.766294,0.766294,0.711114,0.796157,0.639018,0.796157,0.603843,0.800000,0.600000,0.800000,-0.600000,0.796157,-0.603843,0.796157,-0.639018,0.766294,-0.711114,0.711114,-0.766294,0.639018,-0.796157,0.603843,-0.796157,0.600000,-0.800000,0.000000,-0.800000,0.000000,-0.796148,-0.078414,-0.796148,-0.232228,-0.765552,-0.377117,-0.705537,
-0.507515,-0.618408,-0.618408,-0.507515,-0.705537,-0.377117,-0.765552,-0.232228,-0.796148,-0.078414,-0.796148,0.078414,-0.765552,0.232228,-0.705537,0.377117,-0.618408,0.507515,-0.507515,0.618408,-0.377117,0.705537,-0.232228,0.765552,-0.078414,0.796148,0.000000,0.796148,0.000000,0.800000,0.600000,0.800000,0.603843,0.796157,0.603843,0.796157,$1*%
%AMFreePoly1*
4,1,37,0.000000,0.796148,0.078414,0.796148,0.232228,0.765552,0.377117,0.705537,0.507515,0.618408,0.618408,0.507515,0.705537,0.377117,0.765552,0.232228,0.796148,0.078414,0.796148,-0.078414,0.765552,-0.232228,0.705537,-0.377117,0.618408,-0.507515,0.507515,-0.618408,0.377117,-0.705537,0.232228,-0.765552,0.078414,-0.796148,0.000000,-0.796148,0.000000,-0.800000,-0.600000,-0.800000,
-0.603843,-0.796157,-0.639018,-0.796157,-0.711114,-0.766294,-0.766294,-0.711114,-0.796157,-0.639018,-0.796157,-0.603843,-0.800000,-0.600000,-0.800000,0.600000,-0.796157,0.603843,-0.796157,0.639018,-0.766294,0.711114,-0.711114,0.766294,-0.639018,0.796157,-0.603843,0.796157,-0.600000,0.800000,0.000000,0.800000,0.000000,0.796148,0.000000,0.796148,$1*%
G04 Aperture macros list end*
%TA.AperFunction,ComponentPad*%
%ADD10C,1.600000*%
%TD*%
%TA.AperFunction,ComponentPad*%
%ADD11C,1.200000*%
%TD*%
%TA.AperFunction,ComponentPad*%
%ADD12R,1.200000X1.200000*%
%TD*%
%TA.AperFunction,ComponentPad*%
%ADD13RoundRect,0.200000X-0.600000X-0.600000X0.600000X-0.600000X0.600000X0.600000X-0.600000X0.600000X0*%
%TD*%
%TA.AperFunction,ComponentPad*%
%ADD14FreePoly0,0.000000*%
%TD*%
%TA.AperFunction,ComponentPad*%
%ADD15FreePoly1,0.000000*%
%TD*%
%TA.AperFunction,ComponentPad*%
%ADD16RoundRect,0.227273X-1.172727X-0.772727X1.172727X-0.772727X1.172727X0.772727X-1.172727X0.772727X0*%
%TD*%
%TA.AperFunction,Conductor*%
%ADD17C,0.200000*%
%TD*%
G04 APERTURE END LIST*
D10*
%TO.P,BE1,0,2-5V*%
%TO.N,+3.3V*%
X110500000Y-123750000D03*
%TO.P,BE1,1,GND*%
%TO.N,GND*%
X110500000Y-121210000D03*
%TO.P,BE1,2,SCL*%
%TO.N,Net-(A1-GPIO7)*%
X110500000Y-118670000D03*
%TO.P,BE1,3,SDA*%
%TO.N,Net-(A1-GPIO6)*%
X110500000Y-115750000D03*
%TD*%
D11*
%TO.P,SW1,*%
%TO.N,*%
X193670000Y-82750000D03*
X193670000Y-87830000D03*
D12*
%TO.P,SW1,1,A*%
%TO.N,+3.3V*%
X198750000Y-82750000D03*
D11*
%TO.P,SW1,2,B*%
%TO.N,Net-(BT1-+)*%
X198750000Y-85290000D03*
%TO.P,SW1,3,C*%
%TO.N,unconnected-(SW1-C-Pad3)*%
X198750000Y-87830000D03*
%TD*%
D13*
%TO.P,A1,1,GPIO0*%
%TO.N,unconnected-(A1-GPIO0-Pad1)*%
X161550000Y-81310000D03*
D10*
%TO.P,A1,2,GPIO1*%
%TO.N,unconnected-(A1-GPIO1-Pad2)*%
X161550000Y-83850000D03*
D14*
%TO.P,A1,3,GND*%
%TO.N,GND*%
X161550000Y-86390000D03*
D10*
%TO.P,A1,4,GPIO2*%
%TO.N,Net-(A1-GPIO2)*%
X161550000Y-88930000D03*
%TO.P,A1,5,GPIO3*%
%TO.N,Net-(A1-GPIO3)*%
X161550000Y-91470000D03*
%TO.P,A1,6,GPIO4*%
%TO.N,Net-(A1-GPIO4)*%
X161550000Y-94010000D03*
%TO.P,A1,7,GPIO5*%
%TO.N,Net-(A1-GPIO5)*%
X161550000Y-96550000D03*
D14*
%TO.P,A1,8,GND*%
%TO.N,GND*%
X161550000Y-99090000D03*
D10*
%TO.P,A1,9,GPIO6*%
%TO.N,Net-(A1-GPIO6)*%
X161550000Y-101630000D03*
%TO.P,A1,10,GPIO7*%
%TO.N,Net-(A1-GPIO7)*%
X161550000Y-104170000D03*
%TO.P,A1,11,GPIO8*%
%TO.N,unconnected-(A1-GPIO8-Pad11)*%
X161550000Y-106710000D03*
%TO.P,A1,12,GPIO9*%
%TO.N,unconnected-(A1-GPIO9-Pad12)_1*%
X161550000Y-109250000D03*
D14*
%TO.P,A1,13,GND*%
%TO.N,GND*%
X161550000Y-111790000D03*
D10*
%TO.P,A1,14,GPIO10*%
%TO.N,unconnected-(A1-GPIO10-Pad14)_1*%
X161550000Y-114330000D03*
%TO.P,A1,15,GPIO11*%
%TO.N,unconnected-(A1-GPIO11-Pad15)_1*%
X161550000Y-116870000D03*
%TO.P,A1,16,GPIO12*%
%TO.N,Net-(A1-GPIO12)*%
X161550000Y-119410000D03*
%TO.P,A1,17,GPIO13*%
%TO.N,Net-(A1-GPIO13)*%
X161550000Y-121950000D03*
D14*
%TO.P,A1,18,GND*%
%TO.N,GND*%
X161550000Y-124490000D03*
D10*
%TO.P,A1,19,GPIO14*%
%TO.N,unconnected-(A1-GPIO14-Pad19)*%
X161550000Y-127030000D03*
%TO.P,A1,20,GPIO15*%
%TO.N,unconnected-(A1-GPIO15-Pad20)_1*%
X161550000Y-129570000D03*
%TO.P,A1,21,GPIO16*%
%TO.N,unconnected-(A1-GPIO16-Pad21)*%
X179330000Y-129570000D03*
%TO.P,A1,22,GPIO17*%
%TO.N,unconnected-(A1-GPIO17-Pad22)_1*%
X179330000Y-127030000D03*
D15*
%TO.P,A1,23,GND*%
%TO.N,GND*%
X179330000Y-124490000D03*
D10*
%TO.P,A1,24,GPIO18*%
%TO.N,unconnected-(A1-GPIO18-Pad24)_1*%
X179330000Y-121950000D03*
%TO.P,A1,25,GPIO19*%
%TO.N,unconnected-(A1-GPIO19-Pad25)*%
X179330000Y-119410000D03*
%TO.P,A1,26,GPIO20*%
%TO.N,unconnected-(A1-GPIO20-Pad26)_1*%
X179330000Y-116870000D03*
%TO.P,A1,27,GPIO21*%
%TO.N,unconnected-(A1-GPIO21-Pad27)_1*%
X179330000Y-114330000D03*
D15*
%TO.P,A1,28,GND*%
%TO.N,GND*%
X179330000Y-111790000D03*
D10*
%TO.P,A1,29,GPIO22*%
%TO.N,unconnected-(A1-GPIO22-Pad29)*%
X179330000Y-109250000D03*
%TO.P,A1,30,RUN*%
%TO.N,unconnected-(A1-RUN-Pad30)_1*%
X179330000Y-106710000D03*
%TO.P,A1,31,GPIO26_ADC0*%
%TO.N,unconnected-(A1-GPIO26_ADC0-Pad31)*%
X179330000Y-104170000D03*
%TO.P,A1,32,GPIO27_ADC1*%
%TO.N,unconnected-(A1-GPIO27_ADC1-Pad32)_1*%
X179330000Y-101630000D03*
D15*
%TO.P,A1,33,AGND*%
%TO.N,unconnected-(A1-AGND-Pad33)_1*%
X179330000Y-99090000D03*
D10*
%TO.P,A1,34,GPIO28_ADC2*%
%TO.N,unconnected-(A1-GPIO28_ADC2-Pad34)*%
X179330000Y-96550000D03*
%TO.P,A1,35,ADC_VREF*%
%TO.N,unconnected-(A1-ADC_VREF-Pad35)_1*%
X179330000Y-94010000D03*
%TO.P,A1,36,3V3*%
%TO.N,unconnected-(A1-3V3-Pad36)*%
X179330000Y-91470000D03*
%TO.P,A1,37,3V3_EN*%
%TO.N,unconnected-(A1-3V3_EN-Pad37)_1*%
X179330000Y-88930000D03*
D15*
%TO.P,A1,38,GND*%
%TO.N,GND*%
X179330000Y-86390000D03*
D10*
%TO.P,A1,39,VSYS*%
%TO.N,unconnected-(A1-VSYS-Pad39)*%
X179330000Y-83850000D03*
%TO.P,A1,40,VBUS*%
%TO.N,+3.3V*%
X179330000Y-81310000D03*
%TD*%
%TO.P,SD2,0,SDA*%
%TO.N,Net-(A1-GPIO4)*%
X103250000Y-104750000D03*
%TO.P,SD2,1,SCL*%
%TO.N,Net-(A1-GPIO5)*%
X105790000Y-104750000D03*
%TO.P,SD2,2,VCC*%
%TO.N,+3.3V*%
X108330000Y-104750000D03*
%TO.P,SD2,3,GND*%
%TO.N,GND*%
X110870000Y-104750000D03*
%TD*%
%TO.P,GP1,0,VCC*%
%TO.N,+3.3V*%
X149750000Y-125500000D03*
%TO.P,GP1,1,RX*%
%TO.N,Net-(A1-GPIO12)*%
X149750000Y-122960000D03*
%TO.P,GP1,2,TX*%
%TO.N,Net-(A1-GPIO13)*%
X149750000Y-120420000D03*
%TO.P,GP1,3,GND*%
%TO.N,GND*%
X149750000Y-117880000D03*
%TD*%
D16*
%TO.P,BT1,1,+*%
%TO.N,Net-(BT1-+)*%
X194500000Y-94750000D03*
%TO.P,BT1,2,-*%
%TO.N,GND*%
X194500000Y-131750000D03*
%TD*%
D10*
%TO.P,SD1,0,SDA*%
%TO.N,Net-(A1-GPIO2)*%
X133000000Y-104750000D03*
%TO.P,SD1,1,SCL*%
%TO.N,Net-(A1-GPIO3)*%
X135540000Y-104750000D03*
%TO.P,SD1,2,VCC*%
%TO.N,+3.3V*%
X138080000Y-104750000D03*
%TO.P,SD1,3,GND*%
%TO.N,GND*%
X140620000Y-104750000D03*
%TD*%
D17*
%TO.N,Net-(A1-GPIO7)*%
X110580000Y-118500000D02*
X146420000Y-118500000D01*
X146420000Y-118500000D02*
X160750000Y-104170000D01*
%TO.N,GND*%
X149750000Y-117880000D02*
X146380000Y-121250000D01*
X146380000Y-121250000D02*
X110540000Y-121250000D01*
X110540000Y-121250000D02*
X110500000Y-121210000D01*
%TO.N,Net-(A1-GPIO6)*%
X110500000Y-115750000D02*
X146500000Y-115750000D01*
X146500000Y-115750000D02*
X160620000Y-101630000D01*
X160620000Y-101630000D02*
X161550000Y-101630000D01*
%TO.N,Net-(A1-GPIO12)*%
X161459000Y-119319000D02*
X161550000Y-119410000D01*
%TO.N,+3.3V*%
X107000000Y-122840000D02*
X107000000Y-106080000D01*
X179190000Y-81310000D02*
X165250000Y-95250000D01*
X143330000Y-95250000D02*
X138330000Y-100250000D01*
X111660000Y-124660000D02*
X149160000Y-124660000D01*
X110500000Y-123500000D02*
X111660000Y-124660000D01*
X138330000Y-104500000D02*
X138080000Y-104750000D01*
X149160000Y-124660000D02*
X149750000Y-125250000D01*
X107000000Y-106080000D02*
X108330000Y-104750000D01*
X110500000Y-123500000D02*
X107660000Y-123500000D01*
X107660000Y-123500000D02*
X107000000Y-122840000D01*
X165250000Y-95250000D02*
X143330000Y-95250000D01*
X149750000Y-125250000D02*
X149750000Y-125500000D01*
X179330000Y-81310000D02*
X179190000Y-81310000D01*
X138330000Y-100250000D02*
X138330000Y-104500000D01*
%TO.N,GND*%
X110500000Y-105120000D02*
X110500000Y-113340000D01*
X159390000Y-101250000D02*
X161550000Y-99090000D01*
X110870000Y-104750000D02*
X110500000Y-105120000D01*
X141120000Y-101250000D02*
X159390000Y-101250000D01*
X146140000Y-114500000D02*
X161550000Y-99090000D01*
X140870000Y-101500000D02*
X141120000Y-101250000D01*
X111660000Y-114500000D02*
X146140000Y-114500000D01*
X149750000Y-117880000D02*
X155460000Y-117880000D01*
X155460000Y-117880000D02*
X161550000Y-111790000D01*
X140620000Y-104750000D02*
X140870000Y-104500000D01*
X140870000Y-104500000D02*
X140870000Y-101500000D01*
X110500000Y-113340000D02*
X111660000Y-114500000D01*
%TO.N,Net-(A1-GPIO2)*%
X133250000Y-104500000D02*
X133250000Y-100250000D01*
X133250000Y-100250000D02*
X144570000Y-88930000D01*
X133000000Y-104750000D02*
X133250000Y-104500000D01*
X144570000Y-88930000D02*
X161550000Y-88930000D01*
%TO.N,Net-(A1-GPIO3)*%
X135790000Y-100250000D02*
X144570000Y-91470000D01*
X144570000Y-91470000D02*
X161550000Y-91470000D01*
X135790000Y-104500000D02*
X135790000Y-100250000D01*
X135540000Y-104750000D02*
X135790000Y-104500000D01*
%TO.N,Net-(A1-GPIO13)*%
X160020000Y-120420000D02*
X161550000Y-121950000D01*
X149750000Y-120420000D02*
X160020000Y-120420000D01*
%TD*%
M02*
