M48
; DRILL file {KiCad 9.0.7} date 2026-03-22T18:23:02+0000
; FORMAT={-:-/ absolute / metric / decimal}
; #@! TF.CreationDate,2026-03-22T18:23:02+00:00
; #@! TF.GenerationSoftware,Kicad,Pcbnew,9.0.7
; #@! TF.FileFunction,Plated,1,2,PTH
FMAT,2
METRIC
; #@! TA.AperFunction,Plated,PTH,ComponentDrill
T1C0.600
; #@! TA.AperFunction,Plated,PTH,ComponentDrill
T2C1.000
%
G90
G05
T1
X193.67Y-82.75
X193.67Y-87.83
X198.75Y-82.75
X198.75Y-85.29
X198.75Y-87.83
T2
X103.25Y-104.75
X105.79Y-104.75
X108.33Y-104.75
X110.5Y-115.75
X110.5Y-118.67
X110.5Y-121.21
X110.5Y-123.75
X110.87Y-104.75
X133.0Y-104.75
X135.54Y-104.75
X138.08Y-104.75
X140.62Y-104.75
X149.75Y-117.88
X149.75Y-120.42
X149.75Y-122.96
X149.75Y-125.5
X161.55Y-81.31
X161.55Y-83.85
X161.55Y-86.39
X161.55Y-88.93
X161.55Y-91.47
X161.55Y-94.01
X161.55Y-96.55
X161.55Y-99.09
X161.55Y-101.63
X161.55Y-104.17
X161.55Y-106.71
X161.55Y-109.25
X161.55Y-111.79
X161.55Y-114.33
X161.55Y-116.87
X161.55Y-119.41
X161.55Y-121.95
X161.55Y-124.49
X161.55Y-127.03
X161.55Y-129.57
X179.33Y-81.31
X179.33Y-83.85
X179.33Y-86.39
X179.33Y-88.93
X179.33Y-91.47
X179.33Y-94.01
X179.33Y-96.55
X179.33Y-99.09
X179.33Y-101.63
X179.33Y-104.17
X179.33Y-106.71
X179.33Y-109.25
X179.33Y-111.79
X179.33Y-114.33
X179.33Y-116.87
X179.33Y-119.41
X179.33Y-121.95
X179.33Y-124.49
X179.33Y-127.03
X179.33Y-129.57
T2
G00X194.3Y-94.75
M15
G01X194.7Y-94.75
M16
G05
G00X194.3Y-131.75
M15
G01X194.7Y-131.75
M16
G05
M30
