%TF.GenerationSoftware,KiCad,Pcbnew,9.0.7*%
%TF.CreationDate,2026-03-22T18:22:54+00:00*%
%TF.ProjectId,walking_logger,77616c6b-696e-4675-9f6c-6f676765722e,0*%
%TF.SameCoordinates,Original*%
%TF.FileFunction,Legend,Top*%
%TF.FilePolarity,Positive*%
%FSLAX46Y46*%
G04 Gerber Fmt 4.6, Leading zero omitted, Abs format (unit mm)*
G04 Created by KiCad (PCBNEW 9.0.7) date 2026-03-22 18:22:54*
%MOMM*%
%LPD*%
G01*
G04 APERTURE LIST*
%ADD10C,0.100000*%
%ADD11C,0.150000*%
%ADD12C,0.120000*%
G04 APERTURE END LIST*
D10*
X188976190Y-94731466D02*
X192023810Y-94731466D01*
X190500000Y-96255276D02*
X190500000Y-93207657D01*
X189226190Y-131731466D02*
X192273810Y-131731466D01*
X156708646Y-134872419D02*
X156946741Y-135872419D01*
X156946741Y-135872419D02*
X157137217Y-135158133D01*
X157137217Y-135158133D02*
X157327693Y-135872419D01*
X157327693Y-135872419D02*
X157565789Y-134872419D01*
X158375312Y-135872419D02*
X158375312Y-135348609D01*
X158375312Y-135348609D02*
X158327693Y-135253371D01*
X158327693Y-135253371D02*
X158232455Y-135205752D01*
X158232455Y-135205752D02*
X158041979Y-135205752D01*
X158041979Y-135205752D02*
X157946741Y-135253371D01*
X158375312Y-135824800D02*
X158280074Y-135872419D01*
X158280074Y-135872419D02*
X158041979Y-135872419D01*
X158041979Y-135872419D02*
X157946741Y-135824800D01*
X157946741Y-135824800D02*
X157899122Y-135729561D01*
X157899122Y-135729561D02*
X157899122Y-135634323D01*
X157899122Y-135634323D02*
X157946741Y-135539085D01*
X157946741Y-135539085D02*
X158041979Y-135491466D01*
X158041979Y-135491466D02*
X158280074Y-135491466D01*
X158280074Y-135491466D02*
X158375312Y-135443847D01*
X158994360Y-135872419D02*
X158899122Y-135824800D01*
X158899122Y-135824800D02*
X158851503Y-135729561D01*
X158851503Y-135729561D02*
X158851503Y-134872419D01*
X159375313Y-135872419D02*
X159375313Y-134872419D01*
X159470551Y-135491466D02*
X159756265Y-135872419D01*
X159756265Y-135205752D02*
X159375313Y-135586704D01*
X160184837Y-135872419D02*
X160184837Y-135205752D01*
X160184837Y-134872419D02*
X160137218Y-134920038D01*
X160137218Y-134920038D02*
X160184837Y-134967657D01*
X160184837Y-134967657D02*
X160232456Y-134920038D01*
X160232456Y-134920038D02*
X160184837Y-134872419D01*
X160184837Y-134872419D02*
X160184837Y-134967657D01*
X160661027Y-135205752D02*
X160661027Y-135872419D01*
X160661027Y-135300990D02*
X160708646Y-135253371D01*
X160708646Y-135253371D02*
X160803884Y-135205752D01*
X160803884Y-135205752D02*
X160946741Y-135205752D01*
X160946741Y-135205752D02*
X161041979Y-135253371D01*
X161041979Y-135253371D02*
X161089598Y-135348609D01*
X161089598Y-135348609D02*
X161089598Y-135872419D01*
X161994360Y-135205752D02*
X161994360Y-136015276D01*
X161994360Y-136015276D02*
X161946741Y-136110514D01*
X161946741Y-136110514D02*
X161899122Y-136158133D01*
X161899122Y-136158133D02*
X161803884Y-136205752D01*
X161803884Y-136205752D02*
X161661027Y-136205752D01*
X161661027Y-136205752D02*
X161565789Y-136158133D01*
X161994360Y-135824800D02*
X161899122Y-135872419D01*
X161899122Y-135872419D02*
X161708646Y-135872419D01*
X161708646Y-135872419D02*
X161613408Y-135824800D01*
X161613408Y-135824800D02*
X161565789Y-135777180D01*
X161565789Y-135777180D02*
X161518170Y-135681942D01*
X161518170Y-135681942D02*
X161518170Y-135396228D01*
X161518170Y-135396228D02*
X161565789Y-135300990D01*
X161565789Y-135300990D02*
X161613408Y-135253371D01*
X161613408Y-135253371D02*
X161708646Y-135205752D01*
X161708646Y-135205752D02*
X161899122Y-135205752D01*
X161899122Y-135205752D02*
X161994360Y-135253371D01*
X163708646Y-135872419D02*
X163232456Y-135872419D01*
X163232456Y-135872419D02*
X163232456Y-134872419D01*
X164184837Y-135872419D02*
X164089599Y-135824800D01*
X164089599Y-135824800D02*
X164041980Y-135777180D01*
X164041980Y-135777180D02*
X163994361Y-135681942D01*
X163994361Y-135681942D02*
X163994361Y-135396228D01*
X163994361Y-135396228D02*
X164041980Y-135300990D01*
X164041980Y-135300990D02*
X164089599Y-135253371D01*
X164089599Y-135253371D02*
X164184837Y-135205752D01*
X164184837Y-135205752D02*
X164327694Y-135205752D01*
X164327694Y-135205752D02*
X164422932Y-135253371D01*
X164422932Y-135253371D02*
X164470551Y-135300990D01*
X164470551Y-135300990D02*
X164518170Y-135396228D01*
X164518170Y-135396228D02*
X164518170Y-135681942D01*
X164518170Y-135681942D02*
X164470551Y-135777180D01*
X164470551Y-135777180D02*
X164422932Y-135824800D01*
X164422932Y-135824800D02*
X164327694Y-135872419D01*
X164327694Y-135872419D02*
X164184837Y-135872419D01*
X165375313Y-135205752D02*
X165375313Y-136015276D01*
X165375313Y-136015276D02*
X165327694Y-136110514D01*
X165327694Y-136110514D02*
X165280075Y-136158133D01*
X165280075Y-136158133D02*
X165184837Y-136205752D01*
X165184837Y-136205752D02*
X165041980Y-136205752D01*
X165041980Y-136205752D02*
X164946742Y-136158133D01*
X165375313Y-135824800D02*
X165280075Y-135872419D01*
X165280075Y-135872419D02*
X165089599Y-135872419D01*
X165089599Y-135872419D02*
X164994361Y-135824800D01*
X164994361Y-135824800D02*
X164946742Y-135777180D01*
X164946742Y-135777180D02*
X164899123Y-135681942D01*
X164899123Y-135681942D02*
X164899123Y-135396228D01*
X164899123Y-135396228D02*
X164946742Y-135300990D01*
X164946742Y-135300990D02*
X164994361Y-135253371D01*
X164994361Y-135253371D02*
X165089599Y-135205752D01*
X165089599Y-135205752D02*
X165280075Y-135205752D01*
X165280075Y-135205752D02*
X165375313Y-135253371D01*
X166280075Y-135205752D02*
X166280075Y-136015276D01*
X166280075Y-136015276D02*
X166232456Y-136110514D01*
X166232456Y-136110514D02*
X166184837Y-136158133D01*
X166184837Y-136158133D02*
X166089599Y-136205752D01*
X166089599Y-136205752D02*
X165946742Y-136205752D01*
X165946742Y-136205752D02*
X165851504Y-136158133D01*
X166280075Y-135824800D02*
X166184837Y-135872419D01*
X166184837Y-135872419D02*
X165994361Y-135872419D01*
X165994361Y-135872419D02*
X165899123Y-135824800D01*
X165899123Y-135824800D02*
X165851504Y-135777180D01*
X165851504Y-135777180D02*
X165803885Y-135681942D01*
X165803885Y-135681942D02*
X165803885Y-135396228D01*
X165803885Y-135396228D02*
X165851504Y-135300990D01*
X165851504Y-135300990D02*
X165899123Y-135253371D01*
X165899123Y-135253371D02*
X165994361Y-135205752D01*
X165994361Y-135205752D02*
X166184837Y-135205752D01*
X166184837Y-135205752D02*
X166280075Y-135253371D01*
X167137218Y-135824800D02*
X167041980Y-135872419D01*
X167041980Y-135872419D02*
X166851504Y-135872419D01*
X166851504Y-135872419D02*
X166756266Y-135824800D01*
X166756266Y-135824800D02*
X166708647Y-135729561D01*
X166708647Y-135729561D02*
X166708647Y-135348609D01*
X166708647Y-135348609D02*
X166756266Y-135253371D01*
X166756266Y-135253371D02*
X166851504Y-135205752D01*
X166851504Y-135205752D02*
X167041980Y-135205752D01*
X167041980Y-135205752D02*
X167137218Y-135253371D01*
X167137218Y-135253371D02*
X167184837Y-135348609D01*
X167184837Y-135348609D02*
X167184837Y-135443847D01*
X167184837Y-135443847D02*
X166708647Y-135539085D01*
X167613409Y-135872419D02*
X167613409Y-135205752D01*
X167613409Y-135396228D02*
X167661028Y-135300990D01*
X167661028Y-135300990D02*
X167708647Y-135253371D01*
X167708647Y-135253371D02*
X167803885Y-135205752D01*
X167803885Y-135205752D02*
X167899123Y-135205752D01*
X168851505Y-134872419D02*
X169184838Y-135872419D01*
X169184838Y-135872419D02*
X169518171Y-134872419D01*
X170041981Y-134872419D02*
X170137219Y-134872419D01*
X170137219Y-134872419D02*
X170232457Y-134920038D01*
X170232457Y-134920038D02*
X170280076Y-134967657D01*
X170280076Y-134967657D02*
X170327695Y-135062895D01*
X170327695Y-135062895D02*
X170375314Y-135253371D01*
X170375314Y-135253371D02*
X170375314Y-135491466D01*
X170375314Y-135491466D02*
X170327695Y-135681942D01*
X170327695Y-135681942D02*
X170280076Y-135777180D01*
X170280076Y-135777180D02*
X170232457Y-135824800D01*
X170232457Y-135824800D02*
X170137219Y-135872419D01*
X170137219Y-135872419D02*
X170041981Y-135872419D01*
X170041981Y-135872419D02*
X169946743Y-135824800D01*
X169946743Y-135824800D02*
X169899124Y-135777180D01*
X169899124Y-135777180D02*
X169851505Y-135681942D01*
X169851505Y-135681942D02*
X169803886Y-135491466D01*
X169803886Y-135491466D02*
X169803886Y-135253371D01*
X169803886Y-135253371D02*
X169851505Y-135062895D01*
X169851505Y-135062895D02*
X169899124Y-134967657D01*
X169899124Y-134967657D02*
X169946743Y-134920038D01*
X169946743Y-134920038D02*
X170041981Y-134872419D01*
X171565791Y-135872419D02*
X171565791Y-134872419D01*
X171565791Y-135253371D02*
X171661029Y-135205752D01*
X171661029Y-135205752D02*
X171851505Y-135205752D01*
X171851505Y-135205752D02*
X171946743Y-135253371D01*
X171946743Y-135253371D02*
X171994362Y-135300990D01*
X171994362Y-135300990D02*
X172041981Y-135396228D01*
X172041981Y-135396228D02*
X172041981Y-135681942D01*
X172041981Y-135681942D02*
X171994362Y-135777180D01*
X171994362Y-135777180D02*
X171946743Y-135824800D01*
X171946743Y-135824800D02*
X171851505Y-135872419D01*
X171851505Y-135872419D02*
X171661029Y-135872419D01*
X171661029Y-135872419D02*
X171565791Y-135824800D01*
X172375315Y-135205752D02*
X172613410Y-135872419D01*
X172851505Y-135205752D02*
X172613410Y-135872419D01*
X172613410Y-135872419D02*
X172518172Y-136110514D01*
X172518172Y-136110514D02*
X172470553Y-136158133D01*
X172470553Y-136158133D02*
X172375315Y-136205752D01*
X174565791Y-135872419D02*
X174232458Y-135396228D01*
X173994363Y-135872419D02*
X173994363Y-134872419D01*
X173994363Y-134872419D02*
X174375315Y-134872419D01*
X174375315Y-134872419D02*
X174470553Y-134920038D01*
X174470553Y-134920038D02*
X174518172Y-134967657D01*
X174518172Y-134967657D02*
X174565791Y-135062895D01*
X174565791Y-135062895D02*
X174565791Y-135205752D01*
X174565791Y-135205752D02*
X174518172Y-135300990D01*
X174518172Y-135300990D02*
X174470553Y-135348609D01*
X174470553Y-135348609D02*
X174375315Y-135396228D01*
X174375315Y-135396228D02*
X173994363Y-135396228D01*
X175137220Y-135872419D02*
X175041982Y-135824800D01*
X175041982Y-135824800D02*
X174994363Y-135777180D01*
X174994363Y-135777180D02*
X174946744Y-135681942D01*
X174946744Y-135681942D02*
X174946744Y-135396228D01*
X174946744Y-135396228D02*
X174994363Y-135300990D01*
X174994363Y-135300990D02*
X175041982Y-135253371D01*
X175041982Y-135253371D02*
X175137220Y-135205752D01*
X175137220Y-135205752D02*
X175280077Y-135205752D01*
X175280077Y-135205752D02*
X175375315Y-135253371D01*
X175375315Y-135253371D02*
X175422934Y-135300990D01*
X175422934Y-135300990D02*
X175470553Y-135396228D01*
X175470553Y-135396228D02*
X175470553Y-135681942D01*
X175470553Y-135681942D02*
X175422934Y-135777180D01*
X175422934Y-135777180D02*
X175375315Y-135824800D01*
X175375315Y-135824800D02*
X175280077Y-135872419D01*
X175280077Y-135872419D02*
X175137220Y-135872419D01*
X175899125Y-135872419D02*
X175899125Y-134872419D01*
X175899125Y-135253371D02*
X175994363Y-135205752D01*
X175994363Y-135205752D02*
X176184839Y-135205752D01*
X176184839Y-135205752D02*
X176280077Y-135253371D01*
X176280077Y-135253371D02*
X176327696Y-135300990D01*
X176327696Y-135300990D02*
X176375315Y-135396228D01*
X176375315Y-135396228D02*
X176375315Y-135681942D01*
X176375315Y-135681942D02*
X176327696Y-135777180D01*
X176327696Y-135777180D02*
X176280077Y-135824800D01*
X176280077Y-135824800D02*
X176184839Y-135872419D01*
X176184839Y-135872419D02*
X175994363Y-135872419D01*
X175994363Y-135872419D02*
X175899125Y-135824800D01*
X177184839Y-135824800D02*
X177089601Y-135872419D01*
X177089601Y-135872419D02*
X176899125Y-135872419D01*
X176899125Y-135872419D02*
X176803887Y-135824800D01*
X176803887Y-135824800D02*
X176756268Y-135729561D01*
X176756268Y-135729561D02*
X176756268Y-135348609D01*
X176756268Y-135348609D02*
X176803887Y-135253371D01*
X176803887Y-135253371D02*
X176899125Y-135205752D01*
X176899125Y-135205752D02*
X177089601Y-135205752D01*
X177089601Y-135205752D02*
X177184839Y-135253371D01*
X177184839Y-135253371D02*
X177232458Y-135348609D01*
X177232458Y-135348609D02*
X177232458Y-135443847D01*
X177232458Y-135443847D02*
X176756268Y-135539085D01*
X177661030Y-135872419D02*
X177661030Y-135205752D01*
X177661030Y-135396228D02*
X177708649Y-135300990D01*
X177708649Y-135300990D02*
X177756268Y-135253371D01*
X177756268Y-135253371D02*
X177851506Y-135205752D01*
X177851506Y-135205752D02*
X177946744Y-135205752D01*
X178137221Y-135205752D02*
X178518173Y-135205752D01*
X178280078Y-134872419D02*
X178280078Y-135729561D01*
X178280078Y-135729561D02*
X178327697Y-135824800D01*
X178327697Y-135824800D02*
X178422935Y-135872419D01*
X178422935Y-135872419D02*
X178518173Y-135872419D01*
X179899126Y-134872419D02*
X179899126Y-135586704D01*
X179899126Y-135586704D02*
X179851507Y-135729561D01*
X179851507Y-135729561D02*
X179756269Y-135824800D01*
X179756269Y-135824800D02*
X179613412Y-135872419D01*
X179613412Y-135872419D02*
X179518174Y-135872419D01*
X180518174Y-135872419D02*
X180422936Y-135824800D01*
X180422936Y-135824800D02*
X180375317Y-135777180D01*
X180375317Y-135777180D02*
X180327698Y-135681942D01*
X180327698Y-135681942D02*
X180327698Y-135396228D01*
X180327698Y-135396228D02*
X180375317Y-135300990D01*
X180375317Y-135300990D02*
X180422936Y-135253371D01*
X180422936Y-135253371D02*
X180518174Y-135205752D01*
X180518174Y-135205752D02*
X180661031Y-135205752D01*
X180661031Y-135205752D02*
X180756269Y-135253371D01*
X180756269Y-135253371D02*
X180803888Y-135300990D01*
X180803888Y-135300990D02*
X180851507Y-135396228D01*
X180851507Y-135396228D02*
X180851507Y-135681942D01*
X180851507Y-135681942D02*
X180803888Y-135777180D01*
X180803888Y-135777180D02*
X180756269Y-135824800D01*
X180756269Y-135824800D02*
X180661031Y-135872419D01*
X180661031Y-135872419D02*
X180518174Y-135872419D01*
X181280079Y-135872419D02*
X181280079Y-135205752D01*
X181280079Y-135396228D02*
X181327698Y-135300990D01*
X181327698Y-135300990D02*
X181375317Y-135253371D01*
X181375317Y-135253371D02*
X181470555Y-135205752D01*
X181470555Y-135205752D02*
X181565793Y-135205752D01*
X182327698Y-135872419D02*
X182327698Y-134872419D01*
X182327698Y-135824800D02*
X182232460Y-135872419D01*
X182232460Y-135872419D02*
X182041984Y-135872419D01*
X182041984Y-135872419D02*
X181946746Y-135824800D01*
X181946746Y-135824800D02*
X181899127Y-135777180D01*
X181899127Y-135777180D02*
X181851508Y-135681942D01*
X181851508Y-135681942D02*
X181851508Y-135396228D01*
X181851508Y-135396228D02*
X181899127Y-135300990D01*
X181899127Y-135300990D02*
X181946746Y-135253371D01*
X181946746Y-135253371D02*
X182041984Y-135205752D01*
X182041984Y-135205752D02*
X182232460Y-135205752D01*
X182232460Y-135205752D02*
X182327698Y-135253371D01*
X183232460Y-135872419D02*
X183232460Y-135348609D01*
X183232460Y-135348609D02*
X183184841Y-135253371D01*
X183184841Y-135253371D02*
X183089603Y-135205752D01*
X183089603Y-135205752D02*
X182899127Y-135205752D01*
X182899127Y-135205752D02*
X182803889Y-135253371D01*
X183232460Y-135824800D02*
X183137222Y-135872419D01*
X183137222Y-135872419D02*
X182899127Y-135872419D01*
X182899127Y-135872419D02*
X182803889Y-135824800D01*
X182803889Y-135824800D02*
X182756270Y-135729561D01*
X182756270Y-135729561D02*
X182756270Y-135634323D01*
X182756270Y-135634323D02*
X182803889Y-135539085D01*
X182803889Y-135539085D02*
X182899127Y-135491466D01*
X182899127Y-135491466D02*
X183137222Y-135491466D01*
X183137222Y-135491466D02*
X183232460Y-135443847D01*
X183708651Y-135205752D02*
X183708651Y-135872419D01*
X183708651Y-135300990D02*
X183756270Y-135253371D01*
X183756270Y-135253371D02*
X183851508Y-135205752D01*
X183851508Y-135205752D02*
X183994365Y-135205752D01*
X183994365Y-135205752D02*
X184089603Y-135253371D01*
X184089603Y-135253371D02*
X184137222Y-135348609D01*
X184137222Y-135348609D02*
X184137222Y-135872419D01*
X99642857Y-117433609D02*
X99785714Y-117481228D01*
X99785714Y-117481228D02*
X99833333Y-117528847D01*
X99833333Y-117528847D02*
X99880952Y-117624085D01*
X99880952Y-117624085D02*
X99880952Y-117766942D01*
X99880952Y-117766942D02*
X99833333Y-117862180D01*
X99833333Y-117862180D02*
X99785714Y-117909800D01*
X99785714Y-117909800D02*
X99690476Y-117957419D01*
X99690476Y-117957419D02*
X99309524Y-117957419D01*
X99309524Y-117957419D02*
X99309524Y-116957419D01*
X99309524Y-116957419D02*
X99642857Y-116957419D01*
X99642857Y-116957419D02*
X99738095Y-117005038D01*
X99738095Y-117005038D02*
X99785714Y-117052657D01*
X99785714Y-117052657D02*
X99833333Y-117147895D01*
X99833333Y-117147895D02*
X99833333Y-117243133D01*
X99833333Y-117243133D02*
X99785714Y-117338371D01*
X99785714Y-117338371D02*
X99738095Y-117385990D01*
X99738095Y-117385990D02*
X99642857Y-117433609D01*
X99642857Y-117433609D02*
X99309524Y-117433609D01*
X100309524Y-117433609D02*
X100642857Y-117433609D01*
X100785714Y-117957419D02*
X100309524Y-117957419D01*
X100309524Y-117957419D02*
X100309524Y-116957419D01*
X100309524Y-116957419D02*
X100785714Y-116957419D01*
X101738095Y-117957419D02*
X101166667Y-117957419D01*
X101452381Y-117957419D02*
X101452381Y-116957419D01*
X101452381Y-116957419D02*
X101357143Y-117100276D01*
X101357143Y-117100276D02*
X101261905Y-117195514D01*
X101261905Y-117195514D02*
X101166667Y-117243133D01*
D11*
X201657200Y-86583332D02*
X201704819Y-86440475D01*
X201704819Y-86440475D02*
X201704819Y-86202380D01*
X201704819Y-86202380D02*
X201657200Y-86107142D01*
X201657200Y-86107142D02*
X201609580Y-86059523D01*
X201609580Y-86059523D02*
X201514342Y-86011904D01*
X201514342Y-86011904D02*
X201419104Y-86011904D01*
X201419104Y-86011904D02*
X201323866Y-86059523D01*
X201323866Y-86059523D02*
X201276247Y-86107142D01*
X201276247Y-86107142D02*
X201228628Y-86202380D01*
X201228628Y-86202380D02*
X201181009Y-86392856D01*
X201181009Y-86392856D02*
X201133390Y-86488094D01*
X201133390Y-86488094D02*
X201085771Y-86535713D01*
X201085771Y-86535713D02*
X200990533Y-86583332D01*
X200990533Y-86583332D02*
X200895295Y-86583332D01*
X200895295Y-86583332D02*
X200800057Y-86535713D01*
X200800057Y-86535713D02*
X200752438Y-86488094D01*
X200752438Y-86488094D02*
X200704819Y-86392856D01*
X200704819Y-86392856D02*
X200704819Y-86154761D01*
X200704819Y-86154761D02*
X200752438Y-86011904D01*
X200704819Y-85678570D02*
X201704819Y-85440475D01*
X201704819Y-85440475D02*
X200990533Y-85249999D01*
X200990533Y-85249999D02*
X201704819Y-85059523D01*
X201704819Y-85059523D02*
X200704819Y-84821428D01*
X201704819Y-83916666D02*
X201704819Y-84488094D01*
X201704819Y-84202380D02*
X200704819Y-84202380D01*
X200704819Y-84202380D02*
X200847676Y-84297618D01*
X200847676Y-84297618D02*
X200942914Y-84392856D01*
X200942914Y-84392856D02*
X200990533Y-84488094D01*
X182476660Y-130374104D02*
X182952850Y-130374104D01*
X182381422Y-130659819D02*
X182714755Y-129659819D01*
X182714755Y-129659819D02*
X183048088Y-130659819D01*
X183905231Y-130659819D02*
X183333803Y-130659819D01*
X183619517Y-130659819D02*
X183619517Y-129659819D01*
X183619517Y-129659819D02*
X183524279Y-129802676D01*
X183524279Y-129802676D02*
X183429041Y-129897914D01*
X183429041Y-129897914D02*
X183333803Y-129945533D01*
D10*
X105988095Y-96409800D02*
X106130952Y-96457419D01*
X106130952Y-96457419D02*
X106369047Y-96457419D01*
X106369047Y-96457419D02*
X106464285Y-96409800D01*
X106464285Y-96409800D02*
X106511904Y-96362180D01*
X106511904Y-96362180D02*
X106559523Y-96266942D01*
X106559523Y-96266942D02*
X106559523Y-96171704D01*
X106559523Y-96171704D02*
X106511904Y-96076466D01*
X106511904Y-96076466D02*
X106464285Y-96028847D01*
X106464285Y-96028847D02*
X106369047Y-95981228D01*
X106369047Y-95981228D02*
X106178571Y-95933609D01*
X106178571Y-95933609D02*
X106083333Y-95885990D01*
X106083333Y-95885990D02*
X106035714Y-95838371D01*
X106035714Y-95838371D02*
X105988095Y-95743133D01*
X105988095Y-95743133D02*
X105988095Y-95647895D01*
X105988095Y-95647895D02*
X106035714Y-95552657D01*
X106035714Y-95552657D02*
X106083333Y-95505038D01*
X106083333Y-95505038D02*
X106178571Y-95457419D01*
X106178571Y-95457419D02*
X106416666Y-95457419D01*
X106416666Y-95457419D02*
X106559523Y-95505038D01*
X106988095Y-96457419D02*
X106988095Y-95457419D01*
X106988095Y-95457419D02*
X107226190Y-95457419D01*
X107226190Y-95457419D02*
X107369047Y-95505038D01*
X107369047Y-95505038D02*
X107464285Y-95600276D01*
X107464285Y-95600276D02*
X107511904Y-95695514D01*
X107511904Y-95695514D02*
X107559523Y-95885990D01*
X107559523Y-95885990D02*
X107559523Y-96028847D01*
X107559523Y-96028847D02*
X107511904Y-96219323D01*
X107511904Y-96219323D02*
X107464285Y-96314561D01*
X107464285Y-96314561D02*
X107369047Y-96409800D01*
X107369047Y-96409800D02*
X107226190Y-96457419D01*
X107226190Y-96457419D02*
X106988095Y-96457419D01*
X107940476Y-95552657D02*
X107988095Y-95505038D01*
X107988095Y-95505038D02*
X108083333Y-95457419D01*
X108083333Y-95457419D02*
X108321428Y-95457419D01*
X108321428Y-95457419D02*
X108416666Y-95505038D01*
X108416666Y-95505038D02*
X108464285Y-95552657D01*
X108464285Y-95552657D02*
X108511904Y-95647895D01*
X108511904Y-95647895D02*
X108511904Y-95743133D01*
X108511904Y-95743133D02*
X108464285Y-95885990D01*
X108464285Y-95885990D02*
X107892857Y-96457419D01*
X107892857Y-96457419D02*
X108511904Y-96457419D01*
X137785714Y-119755038D02*
X137690476Y-119707419D01*
X137690476Y-119707419D02*
X137547619Y-119707419D01*
X137547619Y-119707419D02*
X137404762Y-119755038D01*
X137404762Y-119755038D02*
X137309524Y-119850276D01*
X137309524Y-119850276D02*
X137261905Y-119945514D01*
X137261905Y-119945514D02*
X137214286Y-120135990D01*
X137214286Y-120135990D02*
X137214286Y-120278847D01*
X137214286Y-120278847D02*
X137261905Y-120469323D01*
X137261905Y-120469323D02*
X137309524Y-120564561D01*
X137309524Y-120564561D02*
X137404762Y-120659800D01*
X137404762Y-120659800D02*
X137547619Y-120707419D01*
X137547619Y-120707419D02*
X137642857Y-120707419D01*
X137642857Y-120707419D02*
X137785714Y-120659800D01*
X137785714Y-120659800D02*
X137833333Y-120612180D01*
X137833333Y-120612180D02*
X137833333Y-120278847D01*
X137833333Y-120278847D02*
X137642857Y-120278847D01*
X138261905Y-120707419D02*
X138261905Y-119707419D01*
X138261905Y-119707419D02*
X138642857Y-119707419D01*
X138642857Y-119707419D02*
X138738095Y-119755038D01*
X138738095Y-119755038D02*
X138785714Y-119802657D01*
X138785714Y-119802657D02*
X138833333Y-119897895D01*
X138833333Y-119897895D02*
X138833333Y-120040752D01*
X138833333Y-120040752D02*
X138785714Y-120135990D01*
X138785714Y-120135990D02*
X138738095Y-120183609D01*
X138738095Y-120183609D02*
X138642857Y-120231228D01*
X138642857Y-120231228D02*
X138261905Y-120231228D01*
X139785714Y-120707419D02*
X139214286Y-120707419D01*
X139500000Y-120707419D02*
X139500000Y-119707419D01*
X139500000Y-119707419D02*
X139404762Y-119850276D01*
X139404762Y-119850276D02*
X139309524Y-119945514D01*
X139309524Y-119945514D02*
X139214286Y-119993133D01*
X193714285Y-100433609D02*
X193857142Y-100481228D01*
X193857142Y-100481228D02*
X193904761Y-100528847D01*
X193904761Y-100528847D02*
X193952380Y-100624085D01*
X193952380Y-100624085D02*
X193952380Y-100766942D01*
X193952380Y-100766942D02*
X193904761Y-100862180D01*
X193904761Y-100862180D02*
X193857142Y-100909800D01*
X193857142Y-100909800D02*
X193761904Y-100957419D01*
X193761904Y-100957419D02*
X193380952Y-100957419D01*
X193380952Y-100957419D02*
X193380952Y-99957419D01*
X193380952Y-99957419D02*
X193714285Y-99957419D01*
X193714285Y-99957419D02*
X193809523Y-100005038D01*
X193809523Y-100005038D02*
X193857142Y-100052657D01*
X193857142Y-100052657D02*
X193904761Y-100147895D01*
X193904761Y-100147895D02*
X193904761Y-100243133D01*
X193904761Y-100243133D02*
X193857142Y-100338371D01*
X193857142Y-100338371D02*
X193809523Y-100385990D01*
X193809523Y-100385990D02*
X193714285Y-100433609D01*
X193714285Y-100433609D02*
X193380952Y-100433609D01*
X194238095Y-99957419D02*
X194809523Y-99957419D01*
X194523809Y-100957419D02*
X194523809Y-99957419D01*
X195666666Y-100957419D02*
X195095238Y-100957419D01*
X195380952Y-100957419D02*
X195380952Y-99957419D01*
X195380952Y-99957419D02*
X195285714Y-100100276D01*
X195285714Y-100100276D02*
X195190476Y-100195514D01*
X195190476Y-100195514D02*
X195095238Y-100243133D01*
X135738095Y-96409800D02*
X135880952Y-96457419D01*
X135880952Y-96457419D02*
X136119047Y-96457419D01*
X136119047Y-96457419D02*
X136214285Y-96409800D01*
X136214285Y-96409800D02*
X136261904Y-96362180D01*
X136261904Y-96362180D02*
X136309523Y-96266942D01*
X136309523Y-96266942D02*
X136309523Y-96171704D01*
X136309523Y-96171704D02*
X136261904Y-96076466D01*
X136261904Y-96076466D02*
X136214285Y-96028847D01*
X136214285Y-96028847D02*
X136119047Y-95981228D01*
X136119047Y-95981228D02*
X135928571Y-95933609D01*
X135928571Y-95933609D02*
X135833333Y-95885990D01*
X135833333Y-95885990D02*
X135785714Y-95838371D01*
X135785714Y-95838371D02*
X135738095Y-95743133D01*
X135738095Y-95743133D02*
X135738095Y-95647895D01*
X135738095Y-95647895D02*
X135785714Y-95552657D01*
X135785714Y-95552657D02*
X135833333Y-95505038D01*
X135833333Y-95505038D02*
X135928571Y-95457419D01*
X135928571Y-95457419D02*
X136166666Y-95457419D01*
X136166666Y-95457419D02*
X136309523Y-95505038D01*
X136738095Y-96457419D02*
X136738095Y-95457419D01*
X136738095Y-95457419D02*
X136976190Y-95457419D01*
X136976190Y-95457419D02*
X137119047Y-95505038D01*
X137119047Y-95505038D02*
X137214285Y-95600276D01*
X137214285Y-95600276D02*
X137261904Y-95695514D01*
X137261904Y-95695514D02*
X137309523Y-95885990D01*
X137309523Y-95885990D02*
X137309523Y-96028847D01*
X137309523Y-96028847D02*
X137261904Y-96219323D01*
X137261904Y-96219323D02*
X137214285Y-96314561D01*
X137214285Y-96314561D02*
X137119047Y-96409800D01*
X137119047Y-96409800D02*
X136976190Y-96457419D01*
X136976190Y-96457419D02*
X136738095Y-96457419D01*
X138261904Y-96457419D02*
X137690476Y-96457419D01*
X137976190Y-96457419D02*
X137976190Y-95457419D01*
X137976190Y-95457419D02*
X137880952Y-95600276D01*
X137880952Y-95600276D02*
X137785714Y-95695514D01*
X137785714Y-95695514D02*
X137690476Y-95743133D01*
%TO.C,BE1*%
X111610000Y-127860000D02*
X91390000Y-127860000D01*
X91390000Y-109640000D01*
X111610000Y-109640000D01*
X111610000Y-127860000D01*
D12*
%TO.C,SW1*%
X190970000Y-81440000D02*
X190970000Y-89140000D01*
X198150000Y-81200000D02*
X199650000Y-81200000D01*
X198850000Y-81440000D02*
X190970000Y-81440000D01*
X198850000Y-81440000D02*
X198850000Y-81836000D01*
X198850000Y-83664000D02*
X198850000Y-84377000D01*
X198850000Y-86204000D02*
X198850000Y-86917000D01*
X198850000Y-88744000D02*
X198850000Y-89140000D01*
X198850000Y-89140000D02*
X190970000Y-89140000D01*
X199650000Y-81200000D02*
X199650000Y-82700000D01*
%TO.C,A1*%
X159830000Y-82370000D02*
X159350000Y-82370000D01*
X159830000Y-82370000D02*
X159830000Y-82790000D01*
X159830000Y-84910000D02*
X159830000Y-85330000D01*
X159830000Y-87450000D02*
X159830000Y-87870000D01*
X159830000Y-89990000D02*
X159830000Y-90410000D01*
X159830000Y-92530000D02*
X159830000Y-92950000D01*
X159830000Y-95070000D02*
X159830000Y-95490000D01*
X159830000Y-97610000D02*
X159830000Y-98030000D01*
X159830000Y-100150000D02*
X159830000Y-100570000D01*
X159830000Y-102690000D02*
X159830000Y-103110000D01*
X159830000Y-105230000D02*
X159830000Y-105650000D01*
X159830000Y-107770000D02*
X159830000Y-108190000D01*
X159830000Y-110310000D02*
X159830000Y-110730000D01*
X159830000Y-112850000D02*
X159830000Y-113270000D01*
X159830000Y-115390000D02*
X159830000Y-115810000D01*
X159830000Y-117930000D02*
X159830000Y-118350000D01*
X159830000Y-120470000D02*
X159830000Y-120890000D01*
X159830000Y-123010000D02*
X159830000Y-123430000D01*
X159830000Y-125550000D02*
X159830000Y-125970000D01*
X159830000Y-128090000D02*
X159830000Y-128510000D01*
X159860324Y-80250000D02*
X159350000Y-80250000D01*
X160170000Y-80250063D02*
X160170000Y-79893000D01*
X160170000Y-82370000D02*
X160170000Y-82790000D01*
X160170000Y-84910000D02*
X160170000Y-85330000D01*
X160170000Y-87450000D02*
X160170000Y-87870000D01*
X160170000Y-89990000D02*
X160170000Y-90410000D01*
X160170000Y-92530000D02*
X160170000Y-92950000D01*
X160170000Y-95070000D02*
X160170000Y-95490000D01*
X160170000Y-97610000D02*
X160170000Y-98030000D01*
X160170000Y-100150000D02*
X160170000Y-100570000D01*
X160170000Y-102690000D02*
X160170000Y-103110000D01*
X160170000Y-105230000D02*
X160170000Y-105650000D01*
X160170000Y-107770000D02*
X160170000Y-108190000D01*
X160170000Y-110310000D02*
X160170000Y-110730000D01*
X160170000Y-112850000D02*
X160170000Y-113270000D01*
X160170000Y-115390000D02*
X160170000Y-115810000D01*
X160170000Y-117930000D02*
X160170000Y-118350000D01*
X160170000Y-120470000D02*
X160170000Y-120890000D01*
X160170000Y-123010000D02*
X160170000Y-123430000D01*
X160170000Y-125550000D02*
X160170000Y-125970000D01*
X160170000Y-128090000D02*
X160170000Y-128510000D01*
X160170000Y-130629937D02*
X160170000Y-130987000D01*
X160440000Y-79830000D02*
X162930000Y-79830000D01*
X160440000Y-131050000D02*
X164277939Y-131050000D01*
X162930000Y-79830000D02*
X162930000Y-80743520D01*
X162930000Y-79830000D02*
X164277940Y-79830000D01*
X162930000Y-83136480D02*
X162930000Y-127743520D01*
X162930000Y-130136480D02*
X162930000Y-131050000D01*
X165202061Y-79830000D02*
X166205000Y-79830000D01*
X166205000Y-79830000D02*
X174675000Y-79830000D01*
X166540000Y-79830000D02*
X166540000Y-80746000D01*
X166540000Y-83134000D02*
X166540000Y-84350000D01*
X166540000Y-84350000D02*
X166836090Y-84350000D01*
X166840000Y-131050000D02*
X165202061Y-131050000D01*
X169193910Y-84350000D02*
X171686090Y-84350000D01*
X174040000Y-131050000D02*
X166840000Y-131050000D01*
X174043910Y-84350000D02*
X174340000Y-84350000D01*
X174340000Y-79830000D02*
X174340000Y-80746000D01*
X174340000Y-83134000D02*
X174340000Y-84350000D01*
X174675000Y-79830000D02*
X175677939Y-79830000D01*
X175677939Y-131050000D02*
X174040000Y-131050000D01*
X176602061Y-79830000D02*
X177950000Y-79830000D01*
X176602061Y-131050000D02*
X180440000Y-131050000D01*
X177950000Y-79830000D02*
X177950000Y-80743520D01*
X177950000Y-83136480D02*
X177950000Y-127743520D01*
X177950000Y-130136480D02*
X177950000Y-131050000D01*
X180440000Y-79830000D02*
X177950000Y-79830000D01*
X180710000Y-80250063D02*
X180710000Y-79893000D01*
X180710000Y-82370000D02*
X180710000Y-82790000D01*
X180710000Y-84910000D02*
X180710000Y-85330000D01*
X180710000Y-87450000D02*
X180710000Y-87870000D01*
X180710000Y-89990000D02*
X180710000Y-90410000D01*
X180710000Y-92530000D02*
X180710000Y-92950000D01*
X180710000Y-95070000D02*
X180710000Y-95490000D01*
X180710000Y-97610000D02*
X180710000Y-98030000D01*
X180710000Y-100150000D02*
X180710000Y-100570000D01*
X180710000Y-102690000D02*
X180710000Y-103110000D01*
X180710000Y-105230000D02*
X180710000Y-105650000D01*
X180710000Y-107770000D02*
X180710000Y-108190000D01*
X180710000Y-110310000D02*
X180710000Y-110730000D01*
X180710000Y-112850000D02*
X180710000Y-113270000D01*
X180710000Y-115390000D02*
X180710000Y-115810000D01*
X180710000Y-117930000D02*
X180710000Y-118350000D01*
X180710000Y-120470000D02*
X180710000Y-120890000D01*
X180710000Y-123010000D02*
X180710000Y-123430000D01*
X180710000Y-125550000D02*
X180710000Y-125970000D01*
X180710000Y-128090000D02*
X180710000Y-128510000D01*
X180710000Y-130629937D02*
X180710000Y-130987000D01*
X181050000Y-82370000D02*
X181050000Y-82790000D01*
X181050000Y-84910000D02*
X181050000Y-85330000D01*
X181050000Y-87450000D02*
X181050000Y-87870000D01*
X181050000Y-89990000D02*
X181050000Y-90410000D01*
X181050000Y-92530000D02*
X181050000Y-92950000D01*
X181050000Y-95070000D02*
X181050000Y-95490000D01*
X181050000Y-97610000D02*
X181050000Y-98030000D01*
X181050000Y-100150000D02*
X181050000Y-100570000D01*
X181050000Y-102690000D02*
X181050000Y-103110000D01*
X181050000Y-105230000D02*
X181050000Y-105650000D01*
X181050000Y-107770000D02*
X181050000Y-108190000D01*
X181050000Y-110310000D02*
X181050000Y-110730000D01*
X181050000Y-112850000D02*
X181050000Y-113270000D01*
X181050000Y-115390000D02*
X181050000Y-115810000D01*
X181050000Y-117930000D02*
X181050000Y-118350000D01*
X181050000Y-120470000D02*
X181050000Y-120890000D01*
X181050000Y-123010000D02*
X181050000Y-123430000D01*
X181050000Y-125550000D02*
X181050000Y-125970000D01*
X181050000Y-128090000D02*
X181050000Y-128510000D01*
X159860324Y-80250000D02*
G75*
G02*
X160440000Y-79830000I579692J-190051D01*
G01*
X160440000Y-131050000D02*
G75*
G02*
X159860324Y-130629937I1J610002D01*
G01*
X180440000Y-79830000D02*
G75*
G02*
X181019676Y-80250063I0J-610000D01*
G01*
X181019676Y-130629937D02*
G75*
G02*
X180440000Y-131050069I-579676J189837D01*
G01*
%TO.C,SD2*%
D10*
X93695000Y-105805000D02*
X120805000Y-105805000D01*
X120805000Y-78695000D01*
X93695000Y-78695000D01*
X93695000Y-105805000D01*
%TO.C,GP1*%
X150860000Y-134610000D02*
X114640000Y-134610000D01*
X114640000Y-109390000D01*
X150860000Y-109390000D01*
X150860000Y-134610000D01*
%TO.C,BT1*%
X185390000Y-91640000D02*
X203610000Y-91640000D01*
X203610000Y-134860000D01*
X185390000Y-134860000D01*
X185390000Y-91640000D01*
%TO.C,SD1*%
X123445000Y-105805000D02*
X150555000Y-105805000D01*
X150555000Y-78695000D01*
X123445000Y-78695000D01*
X123445000Y-105805000D01*
%TD*%
M02*
