%TF.GenerationSoftware,KiCad,Pcbnew,9.0.7*%
%TF.CreationDate,2026-03-22T18:22:53+00:00*%
%TF.ProjectId,walking_logger,77616c6b-696e-4675-9f6c-6f676765722e,0*%
%TF.SameCoordinates,Original*%
%TF.FileFunction,Copper,L1,Top*%
%TF.FilePolarity,Positive*%
%FSLAX46Y46*%
G04 Gerber Fmt 4.6, Leading zero omitted, Abs format (unit mm)*
G04 Created by KiCad (PCBNEW 9.0.7) date 2026-03-22 18:22:53*
%MOMM*%
%LPD*%
G01*
G04 APERTURE LIST*
G04 Aperture macros list*
%AMRoundRect*
0 Rectangle with rounded corners*
0 $1 Rounding radius*
0 $2 $3 $4 $5 $6 $7 $8 $9 X,Y pos of 4 corners*
0 Add a 4 corners polygon primitive as box body*
4,1,4,$2,$3,$4,$5,$6,$7,$8,$9,$2,$3,0*
0 Add four circle primitives for the rounded corners*
1,1,$1+$1,$2,$3*
1,1,$1+$1,$4,$5*
1,1,$1+$1,$6,$7*
1,1,$1+$1,$8,$9*
0 Add four rect primitives between the rounded corners*
20,1,$1+$1,$2,$3,$4,$5,0*
20,1,$1+$1,$4,$5,$6,$7,0*
20,1,$1+$1,$6,$7,$8,$9,0*
20,1,$1+$1,$8,$9,$2,$3,0*%
%AMFreePoly0*
4,1,37,0.800000,0.796148,0.878414,0.796148,1.032228,0.765552,1.177117,0.705537,1.307515,0.618408,1.418408,0.507515,1.505537,0.377117,1.565552,0.232228,1.596148,0.078414,1.596148,-0.078414,1.565552,-0.232228,1.505537,-0.377117,1.418408,-0.507515,1.307515,-0.618408,1.177117,-0.705537,1.032228,-0.765552,0.878414,-0.796148,0.800000,-0.796148,0.800000,-0.800000,-1.400000,-0.800000,
-1.403843,-0.796157,-1.439018,-0.796157,-1.511114,-0.766294,-1.566294,-0.711114,-1.596157,-0.639018,-1.596157,-0.603843,-1.600000,-0.600000,-1.600000,0.600000,-1.596157,0.603843,-1.596157,0.639018,-1.566294,0.711114,-1.511114,0.766294,-1.439018,0.796157,-1.403843,0.796157,-1.400000,0.800000,0.800000,0.800000,0.800000,0.796148,0.800000,0.796148,$1*%
%AMFreePoly1*
4,1,37,1.403843,0.796157,1.439018,0.796157,1.511114,0.766294,1.566294,0.711114,1.596157,0.639018,1.596157,0.603843,1.600000,0.600000,1.600000,-0.600000,1.596157,-0.603843,1.596157,-0.639018,1.566294,-0.711114,1.511114,-0.766294,1.439018,-0.796157,1.403843,-0.796157,1.400000,-0.800000,-0.800000,-0.800000,-0.800000,-0.796148,-0.878414,-0.796148,-1.032228,-0.765552,-1.177117,-0.705537,
-1.307515,-0.618408,-1.418408,-0.507515,-1.505537,-0.377117,-1.565552,-0.232228,-1.596148,-0.078414,-1.596148,0.078414,-1.565552,0.232228,-1.505537,0.377117,-1.418408,0.507515,-1.307515,0.618408,-1.177117,0.705537,-1.032228,0.765552,-0.878414,0.796148,-0.800000,0.796148,-0.800000,0.800000,1.400000,0.800000,1.403843,0.796157,1.403843,0.796157,$1*%
%AMFreePoly2*
4,1,37,0.603843,0.796157,0.639018,0.796157,0.711114,0.766294,0.766294,0.711114,0.796157,0.639018,0.796157,0.603843,0.800000,0.600000,0.800000,-0.600000,0.796157,-0.603843,0.796157,-0.639018,0.766294,-0.711114,0.711114,-0.766294,0.639018,-0.796157,0.603843,-0.796157,0.600000,-0.800000,0.000000,-0.800000,0.000000,-0.796148,-0.078414,-0.796148,-0.232228,-0.765552,-0.377117,-0.705537,
-0.507515,-0.618408,-0.618408,-0.507515,-0.705537,-0.377117,-0.765552,-0.232228,-0.796148,-0.078414,-0.796148,0.078414,-0.765552,0.232228,-0.705537,0.377117,-0.618408,0.507515,-0.507515,0.618408,-0.377117,0.705537,-0.232228,0.765552,-0.078414,0.796148,0.000000,0.796148,0.000000,0.800000,0.600000,0.800000,0.603843,0.796157,0.603843,0.796157,$1*%
%AMFreePoly3*
4,1,37,0.000000,0.796148,0.078414,0.796148,0.232228,0.765552,0.377117,0.705537,0.507515,0.618408,0.618408,0.507515,0.705537,0.377117,0.765552,0.232228,0.796148,0.078414,0.796148,-0.078414,0.765552,-0.232228,0.705537,-0.377117,0.618408,-0.507515,0.507515,-0.618408,0.377117,-0.705537,0.232228,-0.765552,0.078414,-0.796148,0.000000,-0.796148,0.000000,-0.800000,-0.600000,-0.800000,
-0.603843,-0.796157,-0.639018,-0.796157,-0.711114,-0.766294,-0.766294,-0.711114,-0.796157,-0.639018,-0.796157,-0.603843,-0.800000,-0.600000,-0.800000,0.600000,-0.796157,0.603843,-0.796157,0.639018,-0.766294,0.711114,-0.711114,0.766294,-0.639018,0.796157,-0.603843,0.796157,-0.600000,0.800000,0.000000,0.800000,0.000000,0.796148,0.000000,0.796148,$1*%
G04 Aperture macros list end*
%TA.AperFunction,ComponentPad*%
%ADD10C,1.600000*%
%TD*%
%TA.AperFunction,ComponentPad*%
%ADD11C,1.200000*%
%TD*%
%TA.AperFunction,ComponentPad*%
%ADD12R,1.200000X1.200000*%
%TD*%
%TA.AperFunction,SMDPad,CuDef*%
%ADD13FreePoly0,0.000000*%
%TD*%
%TA.AperFunction,ComponentPad*%
%ADD14RoundRect,0.200000X-0.600000X-0.600000X0.600000X-0.600000X0.600000X0.600000X-0.600000X0.600000X0*%
%TD*%
%TA.AperFunction,SMDPad,CuDef*%
%ADD15RoundRect,0.800000X-0.800000X-0.000010X0.800000X-0.000010X0.800000X0.000010X-0.800000X0.000010X0*%
%TD*%
%TA.AperFunction,SMDPad,CuDef*%
%ADD16FreePoly1,0.000000*%
%TD*%
%TA.AperFunction,ComponentPad*%
%ADD17FreePoly2,0.000000*%
%TD*%
%TA.AperFunction,ComponentPad*%
%ADD18FreePoly3,0.000000*%
%TD*%
%TA.AperFunction,ComponentPad*%
%ADD19RoundRect,0.227273X-1.172727X-0.772727X1.172727X-0.772727X1.172727X0.772727X-1.172727X0.772727X0*%
%TD*%
%TA.AperFunction,Conductor*%
%ADD20C,0.200000*%
%TD*%
G04 APERTURE END LIST*
D10*
%TO.P,BE1,0,2-5V*%
%TO.N,+3.3V*%
X110500000Y-123750000D03*
%TO.P,BE1,1,GND*%
%TO.N,GND*%
X110500000Y-121210000D03*
%TO.P,BE1,2,SCL*%
%TO.N,Net-(A1-GPIO7)*%
X110500000Y-118670000D03*
%TO.P,BE1,3,SDA*%
%TO.N,Net-(A1-GPIO6)*%
X110500000Y-115750000D03*
%TD*%
D11*
%TO.P,SW1,*%
%TO.N,*%
X193670000Y-82750000D03*
X193670000Y-87830000D03*
D12*
%TO.P,SW1,1,A*%
%TO.N,+3.3V*%
X198750000Y-82750000D03*
D11*
%TO.P,SW1,2,B*%
%TO.N,Net-(BT1-+)*%
X198750000Y-85290000D03*
%TO.P,SW1,3,C*%
%TO.N,unconnected-(SW1-C-Pad3)*%
X198750000Y-87830000D03*
%TD*%
D13*
%TO.P,A1,1,GPIO0*%
%TO.N,unconnected-(A1-GPIO0-Pad1)_1*%
X160750000Y-81310000D03*
D14*
%TO.N,unconnected-(A1-GPIO0-Pad1)*%
X161550000Y-81310000D03*
D15*
%TO.P,A1,2,GPIO1*%
%TO.N,unconnected-(A1-GPIO1-Pad2)_1*%
X160750000Y-83850000D03*
D10*
%TO.N,unconnected-(A1-GPIO1-Pad2)*%
X161550000Y-83850000D03*
D16*
%TO.P,A1,3,GND*%
%TO.N,GND*%
X160750000Y-86390000D03*
D17*
X161550000Y-86390000D03*
D15*
%TO.P,A1,4,GPIO2*%
%TO.N,Net-(A1-GPIO2)*%
X160750000Y-88930000D03*
D10*
X161550000Y-88930000D03*
D15*
%TO.P,A1,5,GPIO3*%
%TO.N,Net-(A1-GPIO3)*%
X160750000Y-91470000D03*
D10*
X161550000Y-91470000D03*
D15*
%TO.P,A1,6,GPIO4*%
%TO.N,Net-(A1-GPIO4)*%
X160750000Y-94010000D03*
D10*
X161550000Y-94010000D03*
D15*
%TO.P,A1,7,GPIO5*%
%TO.N,Net-(A1-GPIO5)*%
X160750000Y-96550000D03*
D10*
X161550000Y-96550000D03*
D16*
%TO.P,A1,8,GND*%
%TO.N,GND*%
X160750000Y-99090000D03*
D17*
X161550000Y-99090000D03*
D15*
%TO.P,A1,9,GPIO6*%
%TO.N,Net-(A1-GPIO6)*%
X160750000Y-101630000D03*
D10*
X161550000Y-101630000D03*
D15*
%TO.P,A1,10,GPIO7*%
%TO.N,Net-(A1-GPIO7)*%
X160750000Y-104170000D03*
D10*
X161550000Y-104170000D03*
D15*
%TO.P,A1,11,GPIO8*%
%TO.N,unconnected-(A1-GPIO8-Pad11)_1*%
X160750000Y-106710000D03*
D10*
%TO.N,unconnected-(A1-GPIO8-Pad11)*%
X161550000Y-106710000D03*
D15*
%TO.P,A1,12,GPIO9*%
%TO.N,unconnected-(A1-GPIO9-Pad12)*%
X160750000Y-109250000D03*
D10*
%TO.N,unconnected-(A1-GPIO9-Pad12)_1*%
X161550000Y-109250000D03*
D16*
%TO.P,A1,13,GND*%
%TO.N,GND*%
X160750000Y-111790000D03*
D17*
X161550000Y-111790000D03*
D15*
%TO.P,A1,14,GPIO10*%
%TO.N,unconnected-(A1-GPIO10-Pad14)*%
X160750000Y-114330000D03*
D10*
%TO.N,unconnected-(A1-GPIO10-Pad14)_1*%
X161550000Y-114330000D03*
D15*
%TO.P,A1,15,GPIO11*%
%TO.N,unconnected-(A1-GPIO11-Pad15)*%
X160750000Y-116870000D03*
D10*
%TO.N,unconnected-(A1-GPIO11-Pad15)_1*%
X161550000Y-116870000D03*
D15*
%TO.P,A1,16,GPIO12*%
%TO.N,Net-(A1-GPIO12)*%
X160750000Y-119410000D03*
D10*
X161550000Y-119410000D03*
D15*
%TO.P,A1,17,GPIO13*%
%TO.N,Net-(A1-GPIO13)*%
X160750000Y-121950000D03*
D10*
X161550000Y-121950000D03*
D16*
%TO.P,A1,18,GND*%
%TO.N,GND*%
X160750000Y-124490000D03*
D17*
X161550000Y-124490000D03*
D15*
%TO.P,A1,19,GPIO14*%
%TO.N,unconnected-(A1-GPIO14-Pad19)_1*%
X160750000Y-127030000D03*
D10*
%TO.N,unconnected-(A1-GPIO14-Pad19)*%
X161550000Y-127030000D03*
D15*
%TO.P,A1,20,GPIO15*%
%TO.N,unconnected-(A1-GPIO15-Pad20)*%
X160750000Y-129570000D03*
D10*
%TO.N,unconnected-(A1-GPIO15-Pad20)_1*%
X161550000Y-129570000D03*
%TO.P,A1,21,GPIO16*%
%TO.N,unconnected-(A1-GPIO16-Pad21)*%
X179330000Y-129570000D03*
D15*
%TO.N,unconnected-(A1-GPIO16-Pad21)_1*%
X180130000Y-129570000D03*
D10*
%TO.P,A1,22,GPIO17*%
%TO.N,unconnected-(A1-GPIO17-Pad22)_1*%
X179330000Y-127030000D03*
D15*
%TO.N,unconnected-(A1-GPIO17-Pad22)*%
X180130000Y-127030000D03*
D18*
%TO.P,A1,23,GND*%
%TO.N,GND*%
X179330000Y-124490000D03*
D13*
X180130000Y-124490000D03*
D10*
%TO.P,A1,24,GPIO18*%
%TO.N,unconnected-(A1-GPIO18-Pad24)_1*%
X179330000Y-121950000D03*
D15*
%TO.N,unconnected-(A1-GPIO18-Pad24)*%
X180130000Y-121950000D03*
D10*
%TO.P,A1,25,GPIO19*%
%TO.N,unconnected-(A1-GPIO19-Pad25)*%
X179330000Y-119410000D03*
D15*
%TO.N,unconnected-(A1-GPIO19-Pad25)_1*%
X180130000Y-119410000D03*
D10*
%TO.P,A1,26,GPIO20*%
%TO.N,unconnected-(A1-GPIO20-Pad26)_1*%
X179330000Y-116870000D03*
D15*
%TO.N,unconnected-(A1-GPIO20-Pad26)*%
X180130000Y-116870000D03*
D10*
%TO.P,A1,27,GPIO21*%
%TO.N,unconnected-(A1-GPIO21-Pad27)_1*%
X179330000Y-114330000D03*
D15*
%TO.N,unconnected-(A1-GPIO21-Pad27)*%
X180130000Y-114330000D03*
D18*
%TO.P,A1,28,GND*%
%TO.N,GND*%
X179330000Y-111790000D03*
D13*
X180130000Y-111790000D03*
D10*
%TO.P,A1,29,GPIO22*%
%TO.N,unconnected-(A1-GPIO22-Pad29)*%
X179330000Y-109250000D03*
D15*
%TO.N,unconnected-(A1-GPIO22-Pad29)_1*%
X180130000Y-109250000D03*
D10*
%TO.P,A1,30,RUN*%
%TO.N,unconnected-(A1-RUN-Pad30)_1*%
X179330000Y-106710000D03*
D15*
%TO.N,unconnected-(A1-RUN-Pad30)*%
X180130000Y-106710000D03*
D10*
%TO.P,A1,31,GPIO26_ADC0*%
%TO.N,unconnected-(A1-GPIO26_ADC0-Pad31)*%
X179330000Y-104170000D03*
D15*
%TO.N,unconnected-(A1-GPIO26_ADC0-Pad31)_1*%
X180130000Y-104170000D03*
D10*
%TO.P,A1,32,GPIO27_ADC1*%
%TO.N,unconnected-(A1-GPIO27_ADC1-Pad32)_1*%
X179330000Y-101630000D03*
D15*
%TO.N,unconnected-(A1-GPIO27_ADC1-Pad32)*%
X180130000Y-101630000D03*
D18*
%TO.P,A1,33,AGND*%
%TO.N,unconnected-(A1-AGND-Pad33)_1*%
X179330000Y-99090000D03*
D13*
%TO.N,unconnected-(A1-AGND-Pad33)*%
X180130000Y-99090000D03*
D10*
%TO.P,A1,34,GPIO28_ADC2*%
%TO.N,unconnected-(A1-GPIO28_ADC2-Pad34)*%
X179330000Y-96550000D03*
D15*
%TO.N,unconnected-(A1-GPIO28_ADC2-Pad34)_1*%
X180130000Y-96550000D03*
D10*
%TO.P,A1,35,ADC_VREF*%
%TO.N,unconnected-(A1-ADC_VREF-Pad35)_1*%
X179330000Y-94010000D03*
D15*
%TO.N,unconnected-(A1-ADC_VREF-Pad35)*%
X180130000Y-94010000D03*
D10*
%TO.P,A1,36,3V3*%
%TO.N,unconnected-(A1-3V3-Pad36)*%
X179330000Y-91470000D03*
D15*
%TO.N,unconnected-(A1-3V3-Pad36)_1*%
X180130000Y-91470000D03*
D10*
%TO.P,A1,37,3V3_EN*%
%TO.N,unconnected-(A1-3V3_EN-Pad37)_1*%
X179330000Y-88930000D03*
D15*
%TO.N,unconnected-(A1-3V3_EN-Pad37)*%
X180130000Y-88930000D03*
D18*
%TO.P,A1,38,GND*%
%TO.N,GND*%
X179330000Y-86390000D03*
D13*
X180130000Y-86390000D03*
D10*
%TO.P,A1,39,VSYS*%
%TO.N,unconnected-(A1-VSYS-Pad39)*%
X179330000Y-83850000D03*
D15*
%TO.N,unconnected-(A1-VSYS-Pad39)_1*%
X180130000Y-83850000D03*
D10*
%TO.P,A1,40,VBUS*%
%TO.N,+3.3V*%
X179330000Y-81310000D03*
D15*
X180130000Y-81310000D03*
%TD*%
D10*
%TO.P,SD2,0,SDA*%
%TO.N,Net-(A1-GPIO4)*%
X103250000Y-104750000D03*
%TO.P,SD2,1,SCL*%
%TO.N,Net-(A1-GPIO5)*%
X105790000Y-104750000D03*
%TO.P,SD2,2,VCC*%
%TO.N,+3.3V*%
X108330000Y-104750000D03*
%TO.P,SD2,3,GND*%
%TO.N,GND*%
X110870000Y-104750000D03*
%TD*%
%TO.P,GP1,0,VCC*%
%TO.N,+3.3V*%
X149750000Y-125500000D03*
%TO.P,GP1,1,RX*%
%TO.N,Net-(A1-GPIO12)*%
X149750000Y-122960000D03*
%TO.P,GP1,2,TX*%
%TO.N,Net-(A1-GPIO13)*%
X149750000Y-120420000D03*
%TO.P,GP1,3,GND*%
%TO.N,GND*%
X149750000Y-117880000D03*
%TD*%
D19*
%TO.P,BT1,1,+*%
%TO.N,Net-(BT1-+)*%
X194500000Y-94750000D03*
%TO.P,BT1,2,-*%
%TO.N,GND*%
X194500000Y-131750000D03*
%TD*%
D10*
%TO.P,SD1,0,SDA*%
%TO.N,Net-(A1-GPIO2)*%
X133000000Y-104750000D03*
%TO.P,SD1,1,SCL*%
%TO.N,Net-(A1-GPIO3)*%
X135540000Y-104750000D03*
%TO.P,SD1,2,VCC*%
%TO.N,+3.3V*%
X138080000Y-104750000D03*
%TO.P,SD1,3,GND*%
%TO.N,GND*%
X140620000Y-104750000D03*
%TD*%
D20*
%TO.N,Net-(A1-GPIO7)*%
X110500000Y-118420000D02*
X110580000Y-118500000D01*
%TO.N,Net-(A1-GPIO12)*%
X150000000Y-122960000D02*
X153550000Y-119410000D01*
X149750000Y-122960000D02*
X150000000Y-122960000D01*
X153550000Y-119410000D02*
X161550000Y-119410000D01*
%TO.N,+3.3V*%
X137830000Y-105000000D02*
X137580000Y-105000000D01*
X108330000Y-103750000D02*
X108330000Y-104750000D01*
X138080000Y-104750000D02*
X137830000Y-105000000D01*
X198750000Y-82750000D02*
X197310000Y-81310000D01*
X197310000Y-81310000D02*
X180130000Y-81310000D01*
X135580000Y-103000000D02*
X109080000Y-103000000D01*
X137580000Y-105000000D02*
X135580000Y-103000000D01*
X109080000Y-103000000D02*
X108330000Y-103750000D01*
%TO.N,Net-(A1-GPIO4)*%
X109490000Y-94010000D02*
X161550000Y-94010000D01*
X103250000Y-104750000D02*
X103000000Y-104500000D01*
X103000000Y-100500000D02*
X109490000Y-94010000D01*
X103000000Y-104500000D02*
X103000000Y-100500000D01*
%TO.N,GND*%
X179330000Y-124490000D02*
X179330000Y-123685000D01*
X194500000Y-130595000D02*
X188395000Y-124490000D01*
X188395000Y-124490000D02*
X179330000Y-124490000D01*
X194500000Y-131750000D02*
X194500000Y-130595000D01*
%TO.N,Net-(A1-GPIO5)*%
X105540000Y-104500000D02*
X105540000Y-100500000D01*
X109490000Y-96550000D02*
X161550000Y-96550000D01*
X105790000Y-104750000D02*
X105540000Y-104500000D01*
X105540000Y-100500000D02*
X109490000Y-96550000D01*
%TO.N,Net-(BT1-+)*%
X203086000Y-89719000D02*
X203086000Y-86141000D01*
X203086000Y-86141000D02*
X202235000Y-85290000D01*
X198055000Y-94750000D02*
X203086000Y-89719000D01*
X194500000Y-94750000D02*
X198055000Y-94750000D01*
X202235000Y-85290000D02*
X198750000Y-85290000D01*
%TD*%
%TA.AperFunction,Conductor*%
%TO.N,GND*%
G36*
X205942539Y-77520185D02*
G01*
X205988294Y-77572989D01*
X205999500Y-77624500D01*
X205999500Y-136625500D01*
X205979815Y-136692539D01*
X205927011Y-136738294D01*
X205875500Y-136749500D01*
X158427151Y-136749500D01*
X158360112Y-136729815D01*
X158314357Y-136677011D01*
X158303159Y-136624053D01*
X158413037Y-127222524D01*
X158433504Y-127155721D01*
X158486839Y-127110586D01*
X158556109Y-127101452D01*
X158619321Y-127131217D01*
X158656406Y-127190433D01*
X158660557Y-127213167D01*
X158664364Y-127256687D01*
X158664366Y-127256697D01*
X158723258Y-127476488D01*
X158723261Y-127476497D01*
X158819431Y-127682732D01*
X158819432Y-127682734D01*
X158949954Y-127869141D01*
X159110858Y-128030045D01*
X159110861Y-128030047D01*
X159297266Y-128160568D01*
X159355275Y-128187618D01*
X159407714Y-128233791D01*
X159426866Y-128300984D01*
X159406650Y-128367865D01*
X159355275Y-128412382D01*
X159297267Y-128439431D01*
X159297265Y-128439432D01*
X159110858Y-128569954D01*
X158949954Y-128730858D01*
X158819432Y-128917265D01*
X158819431Y-128917267D01*
X158723261Y-129123502D01*
X158723258Y-129123511D01*
X158664366Y-129343302D01*
X158664364Y-129343312D01*
X158649500Y-129513214D01*
X158649500Y-129626785D01*
X158664364Y-129796687D01*
X158664366Y-129796697D01*
X158723258Y-130016488D01*
X158723261Y-130016497D01*
X158819431Y-130222732D01*
X158819432Y-130222734D01*
X158949954Y-130409141D01*
X159110858Y-130570045D01*
X159110861Y-130570047D01*
X159297266Y-130700568D01*
X159503504Y-130796739D01*
X159723308Y-130855635D01*
X159893214Y-130870499D01*
X159893215Y-130870500D01*
X159893216Y-130870500D01*
X161652350Y-130870500D01*
X161652352Y-130870500D01*
X161704308Y-130862270D01*
X161708582Y-130861592D01*
X161776692Y-130855635D01*
X161820766Y-130843825D01*
X161854534Y-130838477D01*
X161916404Y-130818373D01*
X161922617Y-130816534D01*
X161996490Y-130796741D01*
X161996492Y-130796739D01*
X161996496Y-130796739D01*
X162027532Y-130782266D01*
X162049219Y-130775220D01*
X162120172Y-130739067D01*
X162202734Y-130700568D01*
X162221446Y-130687465D01*
X162231610Y-130682287D01*
X162305199Y-130628821D01*
X162389139Y-130570047D01*
X162550047Y-130409139D01*
X162608821Y-130325199D01*
X162662287Y-130251610D01*
X162667465Y-130241446D01*
X162680568Y-130222734D01*
X162719067Y-130140172D01*
X162755220Y-130069219D01*
X162762266Y-130047532D01*
X162776739Y-130016496D01*
X162776742Y-130016488D01*
X162796534Y-129942617D01*
X162797377Y-129939471D01*
X162818477Y-129874534D01*
X162823825Y-129840766D01*
X162835635Y-129796692D01*
X162841215Y-129732892D01*
X162842270Y-129724306D01*
X162850500Y-129672350D01*
X162850500Y-129467649D01*
X162842270Y-129415691D01*
X162842270Y-129415690D01*
X162841592Y-129411414D01*
X162835635Y-129343308D01*
X162823825Y-129299233D01*
X162818477Y-129265466D01*
X162798378Y-129203609D01*
X162796535Y-129197386D01*
X162776742Y-129123513D01*
X162776740Y-129123510D01*
X162776739Y-129123504D01*
X162762266Y-129092467D01*
X162755220Y-129070781D01*
X162719067Y-128999827D01*
X162680568Y-128917266D01*
X162672436Y-128905652D01*
X162672436Y-128905651D01*
X162667462Y-128898548D01*
X162662287Y-128888390D01*
X162608821Y-128814800D01*
X162608215Y-128813935D01*
X162608205Y-128813920D01*
X162550045Y-128730858D01*
X162389140Y-128569953D01*
X162306078Y-128511793D01*
X162305180Y-128511164D01*
X162231610Y-128457713D01*
X162221448Y-128452535D01*
X162214346Y-128447562D01*
X162202736Y-128439433D01*
X162202727Y-128439429D01*
X162144723Y-128412380D01*
X162134066Y-128402996D01*
X162120866Y-128397773D01*
X162108368Y-128380369D01*
X162092285Y-128366208D01*
X162088393Y-128352552D01*
X162080112Y-128341021D01*
X162079007Y-128319621D01*
X162073134Y-128299014D01*
X162077241Y-128285423D01*
X162076510Y-128271244D01*
X162087149Y-128252644D01*
X162093350Y-128232133D01*
X162104830Y-128221737D01*
X162111204Y-128210597D01*
X162135623Y-128193856D01*
X162139872Y-128190010D01*
X162142252Y-128188770D01*
X162202734Y-128160568D01*
X162221002Y-128147775D01*
X162228207Y-128144025D01*
X162228416Y-128143983D01*
X162229180Y-128143524D01*
X162231610Y-128142287D01*
X162304358Y-128089432D01*
X162306047Y-128088227D01*
X162389139Y-128030047D01*
X162550047Y-127869139D01*
X162608821Y-127785199D01*
X162662287Y-127711610D01*
X162667465Y-127701446D01*
X162680568Y-127682734D01*
X162719067Y-127600172D01*
X162755220Y-127529219D01*
X162762266Y-127507532D01*
X162776739Y-127476496D01*
X162776742Y-127476488D01*
X162796534Y-127402617D01*
X162797377Y-127399471D01*
X162818477Y-127334534D01*
X162823825Y-127300766D01*
X162835635Y-127256692D01*
X162841215Y-127192892D01*
X162842270Y-127184306D01*
X162850500Y-127132350D01*
X162850500Y-126927649D01*
X162842270Y-126875691D01*
X162842270Y-126875690D01*
X162841592Y-126871414D01*
X162835635Y-126803308D01*
X162829361Y-126779895D01*
X163340000Y-126779895D01*
X166852057Y-129507343D01*
X166892931Y-129564007D01*
X166900000Y-129605277D01*
X166900000Y-130939966D01*
X166900476Y-130983635D01*
X166900476Y-130983641D01*
X166908083Y-131070590D01*
X166923238Y-131156537D01*
X166923241Y-131156550D01*
X166945824Y-131240834D01*
X166945825Y-131240837D01*
X166975674Y-131322851D01*
X166975675Y-131322854D01*
X166975680Y-131322866D01*
X167012567Y-131401969D01*
X167056207Y-131477556D01*
X167056211Y-131477562D01*
X167056218Y-131477573D01*
X167106269Y-131549053D01*
X167146820Y-131597379D01*
X167162371Y-131615912D01*
X167224088Y-131677629D01*
X167231888Y-131684174D01*
X167290946Y-131733730D01*
X167362426Y-131783781D01*
X167362433Y-131783785D01*
X167362444Y-131783793D01*
X167438031Y-131827433D01*
X167517134Y-131864320D01*
X167599151Y-131894171D01*
X167599161Y-131894173D01*
X167599162Y-131894174D01*
X167599165Y-131894175D01*
X167618131Y-131899256D01*
X167683457Y-131916761D01*
X167769412Y-131931917D01*
X167856360Y-131939524D01*
X167900000Y-131940000D01*
X167943640Y-131939524D01*
X168030588Y-131931917D01*
X168116543Y-131916761D01*
X168200849Y-131894171D01*
X168282866Y-131864320D01*
X168361969Y-131827433D01*
X168437556Y-131783793D01*
X168509052Y-131733731D01*
X168575912Y-131677629D01*
X168637629Y-131615912D01*
X168693731Y-131549052D01*
X168733065Y-131492876D01*
X168787641Y-131449252D01*
X168834640Y-131440000D01*
X169505360Y-131440000D01*
X169572399Y-131459685D01*
X169606935Y-131492877D01*
X169646269Y-131549053D01*
X169686820Y-131597379D01*
X169702371Y-131615912D01*
X169764088Y-131677629D01*
X169771888Y-131684174D01*
X169830946Y-131733730D01*
X169902426Y-131783781D01*
X169902433Y-131783785D01*
X169902444Y-131783793D01*
X169978031Y-131827433D01*
X170057134Y-131864320D01*
X170139151Y-131894171D01*
X170139161Y-131894173D01*
X170139162Y-131894174D01*
X170139165Y-131894175D01*
X170158131Y-131899256D01*
X170223457Y-131916761D01*
X170309412Y-131931917D01*
X170396360Y-131939524D01*
X170440000Y-131940000D01*
X170483640Y-131939524D01*
X170570588Y-131931917D01*
X170656543Y-131916761D01*
X170740849Y-131894171D01*
X170822866Y-131864320D01*
X170901969Y-131827433D01*
X170977556Y-131783793D01*
X171049052Y-131733731D01*
X171115912Y-131677629D01*
X171177629Y-131615912D01*
X171233731Y-131549052D01*
X171273065Y-131492876D01*
X171327641Y-131449252D01*
X171374640Y-131440000D01*
X172045562Y-131440000D01*
X172112601Y-131459685D01*
X172147132Y-131492870D01*
X172152125Y-131500000D01*
X172186416Y-131548968D01*
X172242509Y-131615813D01*
X172242513Y-131615817D01*
X172242514Y-131615818D01*
X172304231Y-131677531D01*
X172371092Y-131733630D01*
X172442589Y-131783689D01*
X172518176Y-131827326D01*
X172597279Y-131864209D01*
X172597289Y-131864212D01*
X172597292Y-131864214D01*
X172679278Y-131894051D01*
X172679281Y-131894052D01*
X172679295Y-131894057D01*
X172763601Y-131916643D01*
X172849555Y-131931795D01*
X172849558Y-131931795D01*
X172849561Y-131931796D01*
X172936477Y-131939397D01*
X172936487Y-131939397D01*
X172936502Y-131939399D01*
X172980141Y-131939925D01*
X173023780Y-131939448D01*
X173110727Y-131931837D01*
X173196679Y-131916679D01*
X173280983Y-131894087D01*
X173362998Y-131864233D01*
X173400277Y-131846848D01*
X173422991Y-131836257D01*
X173422992Y-131836256D01*
X173442081Y-131827355D01*
X173442086Y-131827351D01*
X173442099Y-131827346D01*
X173517684Y-131783705D01*
X173558648Y-131755020D01*
X173589155Y-131733659D01*
X173589162Y-131733653D01*
X173589177Y-131733643D01*
X173656036Y-131677540D01*
X173717751Y-131615824D01*
X173773853Y-131548965D01*
X173823914Y-131477470D01*
X173867553Y-131401884D01*
X173904440Y-131322783D01*
X173934292Y-131240768D01*
X173956882Y-131156464D01*
X173972040Y-131070511D01*
X173979648Y-130983564D01*
X173980141Y-130939925D01*
X173980141Y-130928803D01*
X192600000Y-130928803D01*
X192600000Y-131500000D01*
X193866988Y-131500000D01*
X193834075Y-131557007D01*
X193800000Y-131684174D01*
X193800000Y-131815826D01*
X193834075Y-131942993D01*
X193866988Y-132000000D01*
X192600001Y-132000000D01*
X192600001Y-132571198D01*
X192610175Y-132670795D01*
X192610176Y-132670798D01*
X192663652Y-132832176D01*
X192752906Y-132976879D01*
X192873120Y-133097093D01*
X193017823Y-133186347D01*
X193179205Y-133239823D01*
X193179205Y-133239824D01*
X193278809Y-133249999D01*
X194249999Y-133249999D01*
X194250000Y-133249998D01*
X194250000Y-132250000D01*
X194750000Y-132250000D01*
X194750000Y-133249999D01*
X195721182Y-133249999D01*
X195721198Y-133249998D01*
X195820795Y-133239824D01*
X195820798Y-133239823D01*
X195982176Y-133186347D01*
X196126879Y-133097093D01*
X196247093Y-132976879D01*
X196336347Y-132832176D01*
X196389823Y-132670794D01*
X196389824Y-132670794D01*
X196399999Y-132571196D01*
X196400000Y-132571183D01*
X196400000Y-132000000D01*
X195133012Y-132000000D01*
X195165925Y-131942993D01*
X195200000Y-131815826D01*
X195200000Y-131684174D01*
X195165925Y-131557007D01*
X195133012Y-131500000D01*
X196399999Y-131500000D01*
X196399999Y-130928818D01*
X196399998Y-130928801D01*
X196389824Y-130829204D01*
X196389823Y-130829201D01*
X196336347Y-130667823D01*
X196247093Y-130523120D01*
X196126879Y-130402906D01*
X195982176Y-130313652D01*
X195820794Y-130260176D01*
X195820794Y-130260175D01*
X195721196Y-130250000D01*
X194750000Y-130250000D01*
X194750000Y-131250000D01*
X194250000Y-131250000D01*
X194250000Y-130250000D01*
X193278818Y-130250000D01*
X193278801Y-130250001D01*
X193179204Y-130260175D01*
X193179201Y-130260176D01*
X193017823Y-130313652D01*
X192873120Y-130402906D01*
X192752906Y-130523120D01*
X192663652Y-130667823D01*
X192610176Y-130829205D01*
X192610175Y-130829205D01*
X192600000Y-130928803D01*
X173980141Y-130928803D01*
X173980141Y-129605168D01*
X173999826Y-129538129D01*
X174028082Y-129507235D01*
X177540000Y-126779895D01*
X177540000Y-125129785D01*
X178025000Y-125129785D01*
X178027893Y-125183762D01*
X178027893Y-125183764D01*
X178063438Y-125323030D01*
X178063442Y-125323043D01*
X178086862Y-125379584D01*
X178726448Y-124740000D01*
X178025000Y-124740000D01*
X178025000Y-125129785D01*
X177540000Y-125129785D01*
X177540000Y-123850219D01*
X178025000Y-123850219D01*
X178025000Y-124240000D01*
X178726448Y-124240000D01*
X178726448Y-124239999D01*
X178086863Y-123600414D01*
X178086862Y-123600415D01*
X178063446Y-123656947D01*
X178063431Y-123656987D01*
X178045457Y-123707939D01*
X178045455Y-123707946D01*
X178025000Y-123850219D01*
X177540000Y-123850219D01*
X177540000Y-122440000D01*
X163340000Y-122440000D01*
X163340000Y-126779895D01*
X162829361Y-126779895D01*
X162823825Y-126759233D01*
X162818477Y-126725466D01*
X162798378Y-126663609D01*
X162796535Y-126657386D01*
X162776742Y-126583513D01*
X162776740Y-126583510D01*
X162776739Y-126583504D01*
X162762266Y-126552467D01*
X162755220Y-126530781D01*
X162719067Y-126459827D01*
X162680568Y-126377266D01*
X162672436Y-126365652D01*
X162672436Y-126365651D01*
X162667462Y-126358548D01*
X162662287Y-126348390D01*
X162608821Y-126274800D01*
X162608215Y-126273935D01*
X162608205Y-126273920D01*
X162550045Y-126190858D01*
X162389143Y-126029956D01*
X162322620Y-125983376D01*
X162278996Y-125928799D01*
X162271803Y-125859300D01*
X162303325Y-125796946D01*
X162363082Y-125761652D01*
X162383040Y-125756558D01*
X162439584Y-125733136D01*
X162439584Y-125733135D01*
X161679410Y-124972962D01*
X161742993Y-124955925D01*
X161857007Y-124890099D01*
X161950099Y-124797007D01*
X161983012Y-124740000D01*
X162153551Y-124740000D01*
X162793135Y-125379584D01*
X162793136Y-125379584D01*
X162816552Y-125323053D01*
X162834544Y-125272053D01*
X162854999Y-125129780D01*
X162855000Y-125129779D01*
X162855000Y-124740000D01*
X162153551Y-124740000D01*
X161983012Y-124740000D01*
X162015925Y-124682993D01*
X162050000Y-124555826D01*
X162050000Y-124424174D01*
X162015925Y-124297007D01*
X161983011Y-124239999D01*
X162153551Y-124239999D01*
X162153552Y-124240000D01*
X162855000Y-124240000D01*
X162855000Y-123850214D01*
X162852106Y-123796237D01*
X162852106Y-123796235D01*
X162816561Y-123656969D01*
X162816559Y-123656962D01*
X162793135Y-123600414D01*
X162153551Y-124239999D01*
X161983011Y-124239999D01*
X161950099Y-124182993D01*
X161857007Y-124089901D01*
X161742993Y-124024075D01*
X161679410Y-124007037D01*
X162439584Y-123246862D01*
X162383059Y-123223449D01*
X162383048Y-123223445D01*
X162354833Y-123213491D01*
X162298162Y-123172624D01*
X162272581Y-123107605D01*
X162286213Y-123039078D01*
X162324963Y-122994982D01*
X162389139Y-122950047D01*
X162550047Y-122789139D01*
X162608821Y-122705199D01*
X162662287Y-122631610D01*
X162667465Y-122621446D01*
X162680568Y-122602734D01*
X162719067Y-122520172D01*
X162755220Y-122449219D01*
X162762266Y-122427532D01*
X162776739Y-122396496D01*
X162796539Y-122322600D01*
X162798378Y-122316389D01*
X162799047Y-122314331D01*
X162818477Y-122254534D01*
X162822810Y-122227171D01*
X162825505Y-122214496D01*
X162835635Y-122176692D01*
X162841215Y-122112892D01*
X162842270Y-122104306D01*
X162850500Y-122052350D01*
X162850500Y-121847649D01*
X162842270Y-121795691D01*
X162842270Y-121795690D01*
X162841592Y-121791414D01*
X162835635Y-121723308D01*
X162823825Y-121679233D01*
X162818477Y-121645466D01*
X162798378Y-121583609D01*
X162796535Y-121577386D01*
X162776742Y-121503513D01*
X162776740Y-121503510D01*
X162776739Y-121503504D01*
X162762266Y-121472467D01*
X162755220Y-121450781D01*
X162719067Y-121379827D01*
X162680568Y-121297266D01*
X162672436Y-121285652D01*
X162672436Y-121285651D01*
X162667462Y-121278548D01*
X162662287Y-121268390D01*
X162608821Y-121194800D01*
X162608215Y-121193935D01*
X162608205Y-121193920D01*
X162550045Y-121110858D01*
X162389140Y-120949953D01*
X162306078Y-120891793D01*
X162305180Y-120891164D01*
X162231610Y-120837713D01*
X162221448Y-120832535D01*
X162214346Y-120827562D01*
X162202736Y-120819433D01*
X162202727Y-120819429D01*
X162144723Y-120792380D01*
X162134066Y-120782996D01*
X162120866Y-120777773D01*
X162108368Y-120760369D01*
X162092285Y-120746208D01*
X162088393Y-120732552D01*
X162080112Y-120721021D01*
X162079007Y-120699621D01*
X162073134Y-120679014D01*
X162077241Y-120665423D01*
X162076510Y-120651244D01*
X162087149Y-120632644D01*
X162093350Y-120612133D01*
X162104830Y-120601737D01*
X162111204Y-120590597D01*
X162135623Y-120573856D01*
X162139872Y-120570010D01*
X162142252Y-120568770D01*
X162202734Y-120540568D01*
X162221002Y-120527775D01*
X162228207Y-120524025D01*
X162228416Y-120523983D01*
X162229180Y-120523524D01*
X162231610Y-120522287D01*
X162304358Y-120469432D01*
X162306047Y-120468227D01*
X162389139Y-120410047D01*
X162550047Y-120249139D01*
X162608821Y-120165199D01*
X162662287Y-120091610D01*
X162667465Y-120081446D01*
X162680568Y-120062734D01*
X162719067Y-119980172D01*
X162755220Y-119909219D01*
X162762266Y-119887532D01*
X162776739Y-119856496D01*
X162776742Y-119856488D01*
X162796534Y-119782617D01*
X162797377Y-119779471D01*
X162818477Y-119714534D01*
X162823825Y-119680766D01*
X162835635Y-119636692D01*
X162841215Y-119572892D01*
X162842270Y-119564306D01*
X162850500Y-119512350D01*
X162850500Y-119307649D01*
X162842270Y-119255691D01*
X162842270Y-119255690D01*
X162841592Y-119251414D01*
X162835635Y-119183308D01*
X162823825Y-119139233D01*
X162818477Y-119105466D01*
X162798378Y-119043609D01*
X162796535Y-119037386D01*
X162776742Y-118963513D01*
X162776740Y-118963510D01*
X162776739Y-118963504D01*
X162762266Y-118932467D01*
X162755220Y-118910781D01*
X162719067Y-118839827D01*
X162680568Y-118757266D01*
X162672436Y-118745652D01*
X162672436Y-118745651D01*
X162667462Y-118738548D01*
X162662287Y-118728390D01*
X162608821Y-118654800D01*
X162608215Y-118653935D01*
X162608205Y-118653920D01*
X162550045Y-118570858D01*
X162389140Y-118409953D01*
X162306078Y-118351793D01*
X162305180Y-118351164D01*
X162231610Y-118297713D01*
X162221448Y-118292535D01*
X162214346Y-118287562D01*
X162202736Y-118279433D01*
X162202727Y-118279429D01*
X162144723Y-118252380D01*
X162134066Y-118242996D01*
X162120866Y-118237773D01*
X162108368Y-118220369D01*
X162092285Y-118206208D01*
X162088393Y-118192552D01*
X162080112Y-118181021D01*
X162079007Y-118159621D01*
X162073134Y-118139014D01*
X162077241Y-118125423D01*
X162076510Y-118111244D01*
X162087149Y-118092644D01*
X162093350Y-118072133D01*
X162104830Y-118061737D01*
X162111204Y-118050597D01*
X162135623Y-118033856D01*
X162139872Y-118030010D01*
X162142252Y-118028770D01*
X162202734Y-118000568D01*
X162221002Y-117987775D01*
X162228207Y-117984025D01*
X162228416Y-117983983D01*
X162229180Y-117983524D01*
X162231610Y-117982287D01*
X162304358Y-117929432D01*
X162306047Y-117928227D01*
X162389139Y-117870047D01*
X162550047Y-117709139D01*
X162608821Y-117625199D01*
X162662287Y-117551610D01*
X162667465Y-117541446D01*
X162680568Y-117522734D01*
X162719067Y-117440172D01*
X162755220Y-117369219D01*
X162762266Y-117347532D01*
X162776739Y-117316496D01*
X162776742Y-117316488D01*
X162796534Y-117242617D01*
X162797377Y-117239471D01*
X162818477Y-117174534D01*
X162823825Y-117140766D01*
X162835635Y-117096692D01*
X162841215Y-117032892D01*
X162842270Y-117024306D01*
X162850500Y-116972350D01*
X162850500Y-116767649D01*
X162842270Y-116715691D01*
X162842270Y-116715690D01*
X162841592Y-116711414D01*
X162835635Y-116643308D01*
X162823825Y-116599233D01*
X162818477Y-116565466D01*
X162798378Y-116503609D01*
X162796535Y-116497386D01*
X162776742Y-116423513D01*
X162776740Y-116423510D01*
X162776739Y-116423504D01*
X162762266Y-116392467D01*
X162755220Y-116370781D01*
X162719067Y-116299827D01*
X162680568Y-116217266D01*
X162672436Y-116205652D01*
X162672436Y-116205651D01*
X162667462Y-116198548D01*
X162662287Y-116188390D01*
X162608821Y-116114800D01*
X162608215Y-116113935D01*
X162608205Y-116113920D01*
X162550045Y-116030858D01*
X162389140Y-115869953D01*
X162306078Y-115811793D01*
X162305180Y-115811164D01*
X162231610Y-115757713D01*
X162221448Y-115752535D01*
X162214346Y-115747562D01*
X162202736Y-115739433D01*
X162202727Y-115739429D01*
X162144723Y-115712380D01*
X162134066Y-115702996D01*
X162120866Y-115697773D01*
X162108368Y-115680369D01*
X162092285Y-115666208D01*
X162088393Y-115652552D01*
X162080112Y-115641021D01*
X162079007Y-115619621D01*
X162073134Y-115599014D01*
X162077241Y-115585423D01*
X162076510Y-115571244D01*
X162087149Y-115552644D01*
X162093350Y-115532133D01*
X162104830Y-115521737D01*
X162111204Y-115510597D01*
X162135623Y-115493856D01*
X162139872Y-115490010D01*
X162142252Y-115488770D01*
X162202734Y-115460568D01*
X162221002Y-115447775D01*
X162228207Y-115444025D01*
X162228416Y-115443983D01*
X162229180Y-115443524D01*
X162231610Y-115442287D01*
X162304358Y-115389432D01*
X162306047Y-115388227D01*
X162389139Y-115330047D01*
X162550047Y-115169139D01*
X162608821Y-115085199D01*
X162662287Y-115011610D01*
X162667465Y-115001446D01*
X162680568Y-114982734D01*
X162719067Y-114900172D01*
X162755220Y-114829219D01*
X162762266Y-114807532D01*
X162776739Y-114776496D01*
X162776742Y-114776488D01*
X162796534Y-114702617D01*
X162797377Y-114699471D01*
X162818477Y-114634534D01*
X162823825Y-114600766D01*
X162835635Y-114556692D01*
X162841215Y-114492892D01*
X162842270Y-114484306D01*
X162850500Y-114432350D01*
X162850500Y-114231827D01*
X162850500Y-114227648D01*
X162842155Y-114174967D01*
X162842057Y-114174297D01*
X162842079Y-114174138D01*
X162841215Y-114167098D01*
X162835635Y-114103308D01*
X162823825Y-114059233D01*
X162818477Y-114025466D01*
X162797377Y-113960528D01*
X162793072Y-113944462D01*
X162776742Y-113883513D01*
X162776740Y-113883510D01*
X162776739Y-113883504D01*
X162762266Y-113852467D01*
X162755220Y-113830781D01*
X162719067Y-113759827D01*
X162680568Y-113677266D01*
X162672436Y-113665652D01*
X162672436Y-113665651D01*
X162667462Y-113658548D01*
X162662287Y-113648390D01*
X162608821Y-113574800D01*
X162608215Y-113573935D01*
X162608205Y-113573920D01*
X162550045Y-113490858D01*
X162389143Y-113329956D01*
X162322620Y-113283376D01*
X162278996Y-113228799D01*
X162271803Y-113159300D01*
X162303325Y-113096946D01*
X162363082Y-113061652D01*
X162383040Y-113056558D01*
X162439584Y-113033136D01*
X162439584Y-113033135D01*
X161679410Y-112272962D01*
X161742993Y-112255925D01*
X161857007Y-112190099D01*
X161950099Y-112097007D01*
X161983012Y-112040000D01*
X162153551Y-112040000D01*
X162793135Y-112679584D01*
X162793136Y-112679584D01*
X162816552Y-112623053D01*
X162834544Y-112572053D01*
X162854998Y-112429785D01*
X178025000Y-112429785D01*
X178027893Y-112483762D01*
X178027893Y-112483764D01*
X178063438Y-112623030D01*
X178063442Y-112623043D01*
X178086862Y-112679584D01*
X178726448Y-112040000D01*
X178025000Y-112040000D01*
X178025000Y-112429785D01*
X162854998Y-112429785D01*
X162854999Y-112429780D01*
X162855000Y-112429779D01*
X162855000Y-112040000D01*
X162153551Y-112040000D01*
X161983012Y-112040000D01*
X162015925Y-111982993D01*
X162050000Y-111855826D01*
X162050000Y-111724174D01*
X162015925Y-111597007D01*
X161983011Y-111539999D01*
X162153551Y-111539999D01*
X162153552Y-111540000D01*
X162855000Y-111540000D01*
X162855000Y-111150214D01*
X162852106Y-111096237D01*
X162852106Y-111096235D01*
X162816561Y-110956969D01*
X162816559Y-110956962D01*
X162793135Y-110900414D01*
X162153551Y-111539999D01*
X161983011Y-111539999D01*
X161950099Y-111482993D01*
X161857007Y-111389901D01*
X161742993Y-111324075D01*
X161679410Y-111307037D01*
X162439584Y-110546862D01*
X162383059Y-110523449D01*
X162383048Y-110523445D01*
X162354833Y-110513491D01*
X162344996Y-110506397D01*
X162333235Y-110503445D01*
X162317186Y-110486342D01*
X162298162Y-110472624D01*
X162293721Y-110461338D01*
X162285424Y-110452496D01*
X162281168Y-110429432D01*
X162272581Y-110407605D01*
X162274947Y-110395710D01*
X162272747Y-110383786D01*
X162281636Y-110362084D01*
X162283523Y-110352600D01*
X170036700Y-110352600D01*
X170036700Y-111927400D01*
X170038622Y-111966800D01*
X170053700Y-112003201D01*
X170068778Y-112039603D01*
X170124496Y-112095321D01*
X170124497Y-112095321D01*
X170124498Y-112095322D01*
X170197300Y-112125478D01*
X170236700Y-112127400D01*
X170236715Y-112127400D01*
X171811485Y-112127400D01*
X171811500Y-112127400D01*
X171850900Y-112125478D01*
X171923702Y-112095323D01*
X171979423Y-112039602D01*
X172009578Y-111966800D01*
X172011500Y-111927400D01*
X172011500Y-111126146D01*
X172572019Y-111126146D01*
X172572019Y-111126153D01*
X172588221Y-111319101D01*
X172588222Y-111319107D01*
X172628089Y-111458139D01*
X172641596Y-111505245D01*
X172723184Y-111664000D01*
X172730108Y-111677471D01*
X172850387Y-111829225D01*
X172997851Y-111954726D01*
X172997854Y-111954728D01*
X172997857Y-111954730D01*
X173048428Y-111982993D01*
X173166882Y-112049195D01*
X173351044Y-112109033D01*
X173543321Y-112131960D01*
X173736390Y-112117105D01*
X173922896Y-112065031D01*
X174095736Y-111977724D01*
X174248325Y-111858507D01*
X174374853Y-111711923D01*
X174470500Y-111543555D01*
X174531622Y-111359816D01*
X174555891Y-111167703D01*
X174556278Y-111140000D01*
X174554920Y-111126146D01*
X175112019Y-111126146D01*
X175112019Y-111126153D01*
X175128221Y-111319101D01*
X175128222Y-111319107D01*
X175168089Y-111458139D01*
X175181596Y-111505245D01*
X175263184Y-111664000D01*
X175270108Y-111677471D01*
X175390387Y-111829225D01*
X175537851Y-111954726D01*
X175537854Y-111954728D01*
X175537857Y-111954730D01*
X175588428Y-111982993D01*
X175706882Y-112049195D01*
X175891044Y-112109033D01*
X176083321Y-112131960D01*
X176276390Y-112117105D01*
X176462896Y-112065031D01*
X176635736Y-111977724D01*
X176788325Y-111858507D01*
X176914853Y-111711923D01*
X177010500Y-111543555D01*
X177071622Y-111359816D01*
X177095891Y-111167703D01*
X177096135Y-111150219D01*
X178025000Y-111150219D01*
X178025000Y-111540000D01*
X178726448Y-111540000D01*
X178726448Y-111539999D01*
X178086863Y-110900414D01*
X178086862Y-110900415D01*
X178063446Y-110956947D01*
X178063431Y-110956987D01*
X178045457Y-111007939D01*
X178045455Y-111007946D01*
X178025000Y-111150219D01*
X177096135Y-111150219D01*
X177096278Y-111140000D01*
X177077382Y-110947285D01*
X177021414Y-110761910D01*
X177021413Y-110761908D01*
X177021413Y-110761907D01*
X176949433Y-110626534D01*
X176930506Y-110590937D01*
X176808120Y-110440877D01*
X176658919Y-110317447D01*
X176488584Y-110225348D01*
X176488583Y-110225347D01*
X176488580Y-110225346D01*
X176303609Y-110168087D01*
X176111029Y-110147846D01*
X176111027Y-110147846D01*
X176037670Y-110154522D01*
X175918182Y-110165396D01*
X175732426Y-110220067D01*
X175732422Y-110220069D01*
X175560831Y-110309773D01*
X175560819Y-110309781D01*
X175409910Y-110431115D01*
X175409909Y-110431116D01*
X175285444Y-110579446D01*
X175285442Y-110579449D01*
X175192154Y-110749139D01*
X175133602Y-110933718D01*
X175133602Y-110933719D01*
X175112019Y-111126146D01*
X174554920Y-111126146D01*
X174537382Y-110947285D01*
X174481414Y-110761910D01*
X174481413Y-110761908D01*
X174481413Y-110761907D01*
X174409433Y-110626534D01*
X174390506Y-110590937D01*
X174268120Y-110440877D01*
X174118919Y-110317447D01*
X173948584Y-110225348D01*
X173948583Y-110225347D01*
X173948580Y-110225346D01*
X173763609Y-110168087D01*
X173571029Y-110147846D01*
X173571027Y-110147846D01*
X173497670Y-110154522D01*
X173378182Y-110165396D01*
X173192426Y-110220067D01*
X173192422Y-110220069D01*
X173020831Y-110309773D01*
X173020819Y-110309781D01*
X172869910Y-110431115D01*
X172869909Y-110431116D01*
X172745444Y-110579446D01*
X172745442Y-110579449D01*
X172652154Y-110749139D01*
X172593602Y-110933718D01*
X172593602Y-110933719D01*
X172572019Y-111126146D01*
X172011500Y-111126146D01*
X172011500Y-110352600D01*
X172009578Y-110313200D01*
X172002030Y-110294978D01*
X171979425Y-110240403D01*
X171979423Y-110240398D01*
X171923702Y-110184677D01*
X171923698Y-110184675D01*
X171923696Y-110184674D01*
X171850901Y-110154522D01*
X171850903Y-110154522D01*
X171842457Y-110154110D01*
X171811500Y-110152600D01*
X171024100Y-110152600D01*
X170236700Y-110152600D01*
X170197300Y-110154522D01*
X170124496Y-110184678D01*
X170124495Y-110184680D01*
X170068780Y-110240395D01*
X170068778Y-110240396D01*
X170040038Y-110309781D01*
X170038622Y-110313200D01*
X170036700Y-110352600D01*
X162283523Y-110352600D01*
X162286213Y-110339078D01*
X162295291Y-110328746D01*
X162299231Y-110319130D01*
X162324960Y-110294984D01*
X162389139Y-110250047D01*
X162550047Y-110089139D01*
X162608821Y-110005199D01*
X162662287Y-109931610D01*
X162667465Y-109921446D01*
X162680568Y-109902734D01*
X162719067Y-109820172D01*
X162755220Y-109749219D01*
X162762266Y-109727532D01*
X162776739Y-109696496D01*
X162776742Y-109696488D01*
X162796534Y-109622617D01*
X162797377Y-109619471D01*
X162818477Y-109554534D01*
X162823825Y-109520766D01*
X162835635Y-109476692D01*
X162841215Y-109412892D01*
X162842270Y-109404306D01*
X162850500Y-109352350D01*
X162850500Y-109147649D01*
X162842270Y-109095691D01*
X162842270Y-109095690D01*
X162841592Y-109091414D01*
X162835635Y-109023308D01*
X162823825Y-108979233D01*
X162818477Y-108945466D01*
X162798378Y-108883609D01*
X162796535Y-108877386D01*
X162776742Y-108803513D01*
X162776740Y-108803510D01*
X162776739Y-108803504D01*
X162762266Y-108772467D01*
X162755220Y-108750781D01*
X162719067Y-108679827D01*
X162680568Y-108597266D01*
X162677815Y-108593334D01*
X162672436Y-108585652D01*
X162672436Y-108585651D01*
X162667462Y-108578548D01*
X162662287Y-108568390D01*
X162608821Y-108494800D01*
X162608215Y-108493935D01*
X162608205Y-108493920D01*
X162550045Y-108410858D01*
X162389140Y-108249953D01*
X162306078Y-108191793D01*
X162305180Y-108191164D01*
X162231610Y-108137713D01*
X162221448Y-108132535D01*
X162214346Y-108127562D01*
X162202736Y-108119433D01*
X162202727Y-108119429D01*
X162144723Y-108092380D01*
X162134066Y-108082996D01*
X162120866Y-108077773D01*
X162108368Y-108060369D01*
X162092285Y-108046208D01*
X162088393Y-108032552D01*
X162080112Y-108021021D01*
X162079007Y-107999621D01*
X162073134Y-107979014D01*
X162077241Y-107965423D01*
X162076510Y-107951244D01*
X162087149Y-107932644D01*
X162093350Y-107912133D01*
X162104830Y-107901737D01*
X162111204Y-107890597D01*
X162135623Y-107873856D01*
X162139872Y-107870010D01*
X162142252Y-107868770D01*
X162202734Y-107840568D01*
X162221002Y-107827775D01*
X162228207Y-107824025D01*
X162228416Y-107823983D01*
X162229180Y-107823524D01*
X162231610Y-107822287D01*
X162304358Y-107769432D01*
X162306047Y-107768227D01*
X162389139Y-107710047D01*
X162550047Y-107549139D01*
X162608821Y-107465199D01*
X162662287Y-107391610D01*
X162667465Y-107381446D01*
X162680568Y-107362734D01*
X162719067Y-107280172D01*
X162755220Y-107209219D01*
X162762266Y-107187532D01*
X162776739Y-107156496D01*
X162776742Y-107156488D01*
X162796534Y-107082617D01*
X162797377Y-107079471D01*
X162818477Y-107014534D01*
X162823825Y-106980766D01*
X162835635Y-106936692D01*
X162841215Y-106872892D01*
X162842270Y-106864306D01*
X162850500Y-106812350D01*
X162850500Y-106607649D01*
X162842270Y-106555691D01*
X162842270Y-106555690D01*
X162841592Y-106551414D01*
X162835635Y-106483308D01*
X162823825Y-106439233D01*
X162818477Y-106405466D01*
X162798378Y-106343609D01*
X162796535Y-106337386D01*
X162776742Y-106263513D01*
X162776740Y-106263510D01*
X162776739Y-106263504D01*
X162762266Y-106232467D01*
X162755220Y-106210781D01*
X162719067Y-106139827D01*
X162680568Y-106057266D01*
X162672436Y-106045652D01*
X162672436Y-106045651D01*
X162667462Y-106038548D01*
X162662287Y-106028390D01*
X162608821Y-105954800D01*
X162608215Y-105953935D01*
X162608205Y-105953920D01*
X162550045Y-105870858D01*
X162389140Y-105709953D01*
X162306078Y-105651793D01*
X162305180Y-105651164D01*
X162231610Y-105597713D01*
X162221448Y-105592535D01*
X162214346Y-105587562D01*
X162202736Y-105579433D01*
X162202727Y-105579429D01*
X162144723Y-105552380D01*
X162134066Y-105542996D01*
X162120866Y-105537773D01*
X162108368Y-105520369D01*
X162092285Y-105506208D01*
X162088393Y-105492552D01*
X162080112Y-105481021D01*
X162079007Y-105459621D01*
X162073134Y-105439014D01*
X162077241Y-105425423D01*
X162076510Y-105411244D01*
X162087149Y-105392644D01*
X162093350Y-105372133D01*
X162104830Y-105361737D01*
X162111204Y-105350597D01*
X162135623Y-105333856D01*
X162139872Y-105330010D01*
X162142252Y-105328770D01*
X162202734Y-105300568D01*
X162221002Y-105287775D01*
X162228207Y-105284025D01*
X162228416Y-105283983D01*
X162229180Y-105283524D01*
X162231610Y-105282287D01*
X162304358Y-105229432D01*
X162306047Y-105228227D01*
X162389139Y-105170047D01*
X162550047Y-105009139D01*
X162608821Y-104925199D01*
X162662287Y-104851610D01*
X162667465Y-104841446D01*
X162680568Y-104822734D01*
X162719067Y-104740172D01*
X162755220Y-104669219D01*
X162762266Y-104647532D01*
X162776739Y-104616496D01*
X162776742Y-104616488D01*
X162796534Y-104542617D01*
X162797377Y-104539471D01*
X162818477Y-104474534D01*
X162823825Y-104440766D01*
X162835635Y-104396692D01*
X162841215Y-104332892D01*
X162842270Y-104324306D01*
X162850500Y-104272350D01*
X162850500Y-104067649D01*
X162842270Y-104015691D01*
X162842270Y-104015690D01*
X162841592Y-104011414D01*
X162835635Y-103943308D01*
X162823825Y-103899233D01*
X162818477Y-103865466D01*
X162798378Y-103803609D01*
X162796535Y-103797386D01*
X162776742Y-103723513D01*
X162776740Y-103723510D01*
X162776739Y-103723504D01*
X162762266Y-103692467D01*
X162755220Y-103670781D01*
X162719067Y-103599827D01*
X162680568Y-103517266D01*
X162672436Y-103505652D01*
X162672436Y-103505651D01*
X162667462Y-103498548D01*
X162662287Y-103488390D01*
X162608821Y-103414800D01*
X162608215Y-103413935D01*
X162608205Y-103413920D01*
X162550045Y-103330858D01*
X162389140Y-103169953D01*
X162306078Y-103111793D01*
X162305180Y-103111164D01*
X162231610Y-103057713D01*
X162221448Y-103052535D01*
X162214346Y-103047562D01*
X162202736Y-103039433D01*
X162202727Y-103039429D01*
X162144723Y-103012380D01*
X162134066Y-103002996D01*
X162120866Y-102997773D01*
X162108368Y-102980369D01*
X162092285Y-102966208D01*
X162088393Y-102952552D01*
X162080112Y-102941021D01*
X162079007Y-102919621D01*
X162073134Y-102899014D01*
X162077241Y-102885423D01*
X162076510Y-102871244D01*
X162087149Y-102852644D01*
X162093350Y-102832133D01*
X162104830Y-102821737D01*
X162111204Y-102810597D01*
X162135623Y-102793856D01*
X162139872Y-102790010D01*
X162142252Y-102788770D01*
X162202734Y-102760568D01*
X162221002Y-102747775D01*
X162228207Y-102744025D01*
X162228416Y-102743983D01*
X162229180Y-102743524D01*
X162231610Y-102742287D01*
X162304358Y-102689432D01*
X162306047Y-102688227D01*
X162389139Y-102630047D01*
X162550047Y-102469139D01*
X162608821Y-102385199D01*
X162662287Y-102311610D01*
X162667465Y-102301446D01*
X162680568Y-102282734D01*
X162719067Y-102200172D01*
X162755220Y-102129219D01*
X162762266Y-102107532D01*
X162776739Y-102076496D01*
X162776742Y-102076488D01*
X162796534Y-102002617D01*
X162797377Y-101999471D01*
X162818477Y-101934534D01*
X162823825Y-101900766D01*
X162835635Y-101856692D01*
X162841215Y-101792892D01*
X162842270Y-101784306D01*
X162850500Y-101732350D01*
X162850500Y-101527649D01*
X162842270Y-101475691D01*
X162842270Y-101475690D01*
X162841592Y-101471414D01*
X162835635Y-101403308D01*
X162823825Y-101359233D01*
X162818477Y-101325466D01*
X162798378Y-101263609D01*
X162796535Y-101257386D01*
X162776742Y-101183513D01*
X162776740Y-101183510D01*
X162776739Y-101183504D01*
X162762266Y-101152467D01*
X162755220Y-101130781D01*
X162719067Y-101059827D01*
X162680568Y-100977266D01*
X162672436Y-100965652D01*
X162672436Y-100965651D01*
X162667462Y-100958548D01*
X162662287Y-100948390D01*
X162608821Y-100874800D01*
X162608215Y-100873935D01*
X162608205Y-100873920D01*
X162550045Y-100790858D01*
X162389143Y-100629956D01*
X162322620Y-100583376D01*
X162278996Y-100528799D01*
X162271803Y-100459300D01*
X162303325Y-100396946D01*
X162363082Y-100361652D01*
X162383040Y-100356558D01*
X162439584Y-100333136D01*
X162439584Y-100333135D01*
X162096448Y-99989999D01*
X170490000Y-99989999D01*
X170490000Y-100890000D01*
X170492138Y-100955541D01*
X170492138Y-100955544D01*
X170492139Y-100955545D01*
X170526068Y-101082167D01*
X170591612Y-101195694D01*
X170684306Y-101288388D01*
X170797833Y-101353932D01*
X170924455Y-101387861D01*
X170990000Y-101390000D01*
X171890000Y-101390000D01*
X171955545Y-101387861D01*
X172082167Y-101353933D01*
X172195694Y-101288388D01*
X172288388Y-101195694D01*
X172353933Y-101082167D01*
X172387861Y-100955545D01*
X172390000Y-100890000D01*
X172390000Y-99990000D01*
X172387861Y-99924455D01*
X172353933Y-99797833D01*
X172288388Y-99684306D01*
X172195694Y-99591612D01*
X172082167Y-99526067D01*
X171955545Y-99492139D01*
X171890000Y-99490000D01*
X171440000Y-99490000D01*
X170990000Y-99490000D01*
X170924458Y-99492138D01*
X170797832Y-99526068D01*
X170684307Y-99591611D01*
X170684304Y-99591613D01*
X170591613Y-99684304D01*
X170591611Y-99684307D01*
X170526068Y-99797832D01*
X170492138Y-99924458D01*
X170490000Y-99989999D01*
X162096448Y-99989999D01*
X161679410Y-99572962D01*
X161742993Y-99555925D01*
X161857007Y-99490099D01*
X161950099Y-99397007D01*
X161983012Y-99340000D01*
X162153551Y-99340000D01*
X162793135Y-99979584D01*
X162793136Y-99979584D01*
X162809317Y-99940522D01*
X162809317Y-99940521D01*
X162816553Y-99923051D01*
X162834544Y-99872053D01*
X162854999Y-99729780D01*
X162855000Y-99729779D01*
X162855000Y-99340000D01*
X162153551Y-99340000D01*
X161983012Y-99340000D01*
X162015925Y-99282993D01*
X162050000Y-99155826D01*
X162050000Y-99024174D01*
X162015925Y-98897007D01*
X161983011Y-98839999D01*
X162153551Y-98839999D01*
X162153552Y-98840000D01*
X162855000Y-98840000D01*
X162855000Y-98450224D01*
X162855000Y-98450219D01*
X178024500Y-98450219D01*
X178024500Y-99729784D01*
X178027395Y-99783814D01*
X178027396Y-99783818D01*
X178062976Y-99923221D01*
X178062980Y-99923233D01*
X178093419Y-99996719D01*
X178093431Y-99996747D01*
X178116779Y-100045548D01*
X178116781Y-100045551D01*
X178203006Y-100160733D01*
X178203010Y-100160737D01*
X178203015Y-100160743D01*
X178259252Y-100216980D01*
X178259261Y-100216988D01*
X178259267Y-100216994D01*
X178261790Y-100219260D01*
X178299524Y-100253156D01*
X178299532Y-100253162D01*
X178423263Y-100326573D01*
X178423262Y-100326573D01*
X178430329Y-100329500D01*
X178496774Y-100357022D01*
X178509898Y-100361652D01*
X178524660Y-100366860D01*
X178581332Y-100407726D01*
X178606913Y-100472745D01*
X178593281Y-100541272D01*
X178554531Y-100585370D01*
X178490858Y-100629955D01*
X178329954Y-100790859D01*
X178271781Y-100873934D01*
X178271782Y-100873935D01*
X178271132Y-100874863D01*
X178217713Y-100948390D01*
X178212535Y-100958550D01*
X178207560Y-100965656D01*
X178207558Y-100965656D01*
X178199433Y-100977262D01*
X178161838Y-101057882D01*
X178160920Y-101059849D01*
X178124780Y-101130781D01*
X178117735Y-101152458D01*
X178114532Y-101159329D01*
X178114529Y-101159338D01*
X178103261Y-101183503D01*
X178103261Y-101183504D01*
X178083459Y-101257404D01*
X178083458Y-101257403D01*
X178082614Y-101260551D01*
X178061523Y-101325466D01*
X178056175Y-101359224D01*
X178054492Y-101365507D01*
X178054492Y-101365511D01*
X178044366Y-101403304D01*
X178044364Y-101403313D01*
X178038783Y-101467106D01*
X178037728Y-101475697D01*
X178029500Y-101527643D01*
X178029500Y-101527648D01*
X178029500Y-101732352D01*
X178038406Y-101788582D01*
X178044365Y-101856692D01*
X178056171Y-101900756D01*
X178057188Y-101907175D01*
X178057190Y-101907181D01*
X178061521Y-101934525D01*
X178061522Y-101934530D01*
X178081617Y-101996378D01*
X178083460Y-102002600D01*
X178103260Y-102076494D01*
X178114529Y-102100662D01*
X178117733Y-102107532D01*
X178124780Y-102129219D01*
X178160930Y-102200169D01*
X178161844Y-102202128D01*
X178199432Y-102282734D01*
X178207562Y-102294346D01*
X178212535Y-102301448D01*
X178217713Y-102311610D01*
X178271164Y-102385180D01*
X178271793Y-102386078D01*
X178329953Y-102469140D01*
X178490858Y-102630045D01*
X178490861Y-102630047D01*
X178574800Y-102688821D01*
X178648390Y-102742287D01*
X178658547Y-102747462D01*
X178665648Y-102752434D01*
X178665652Y-102752436D01*
X178677266Y-102760568D01*
X178677270Y-102760570D01*
X178735272Y-102787617D01*
X178745927Y-102796999D01*
X178759131Y-102802224D01*
X178771629Y-102819629D01*
X178787712Y-102833789D01*
X178791604Y-102847444D01*
X178799886Y-102858977D01*
X178800990Y-102880375D01*
X178806864Y-102900982D01*
X178802755Y-102914573D01*
X178803488Y-102928754D01*
X178792848Y-102947352D01*
X178786649Y-102967864D01*
X178775167Y-102978259D01*
X178768794Y-102989401D01*
X178744369Y-103006145D01*
X178740126Y-103009988D01*
X178737711Y-103011244D01*
X178677266Y-103039432D01*
X178659002Y-103052219D01*
X178651792Y-103055973D01*
X178651591Y-103056012D01*
X178650847Y-103056460D01*
X178648397Y-103057708D01*
X178648394Y-103057710D01*
X178575696Y-103110526D01*
X178573939Y-103111779D01*
X178490859Y-103169954D01*
X178329954Y-103330859D01*
X178271781Y-103413934D01*
X178271782Y-103413935D01*
X178271132Y-103414863D01*
X178217713Y-103488390D01*
X178212535Y-103498550D01*
X178207560Y-103505656D01*
X178207558Y-103505656D01*
X178199433Y-103517262D01*
X178161838Y-103597882D01*
X178160920Y-103599849D01*
X178124780Y-103670781D01*
X178117735Y-103692458D01*
X178114532Y-103699329D01*
X178114529Y-103699338D01*
X178103261Y-103723503D01*
X178103261Y-103723504D01*
X178083459Y-103797404D01*
X178083458Y-103797403D01*
X178082614Y-103800551D01*
X178061523Y-103865466D01*
X178056175Y-103899224D01*
X178054492Y-103905507D01*
X178054492Y-103905511D01*
X178044366Y-103943304D01*
X178044364Y-103943313D01*
X178038783Y-104007106D01*
X178037728Y-104015697D01*
X178029500Y-104067643D01*
X178029500Y-104067648D01*
X178029500Y-104272352D01*
X178038406Y-104328582D01*
X178044365Y-104396692D01*
X178056171Y-104440756D01*
X178057188Y-104447175D01*
X178057190Y-104447181D01*
X178061521Y-104474525D01*
X178061522Y-104474530D01*
X178081617Y-104536378D01*
X178083460Y-104542600D01*
X178103260Y-104616494D01*
X178114529Y-104640662D01*
X178117733Y-104647532D01*
X178124780Y-104669219D01*
X178160930Y-104740169D01*
X178161844Y-104742128D01*
X178199432Y-104822734D01*
X178207562Y-104834346D01*
X178212535Y-104841448D01*
X178217713Y-104851610D01*
X178271164Y-104925180D01*
X178271793Y-104926078D01*
X178329953Y-105009140D01*
X178490858Y-105170045D01*
X178490861Y-105170047D01*
X178574800Y-105228821D01*
X178648390Y-105282287D01*
X178658547Y-105287462D01*
X178665648Y-105292434D01*
X178665652Y-105292436D01*
X178677266Y-105300568D01*
X178677270Y-105300570D01*
X178735272Y-105327617D01*
X178745927Y-105336999D01*
X178759131Y-105342224D01*
X178771629Y-105359629D01*
X178787712Y-105373789D01*
X178791604Y-105387444D01*
X178799886Y-105398977D01*
X178800990Y-105420375D01*
X178806864Y-105440982D01*
X178802755Y-105454573D01*
X178803488Y-105468754D01*
X178792848Y-105487352D01*
X178786649Y-105507864D01*
X178775167Y-105518259D01*
X178768794Y-105529401D01*
X178744369Y-105546145D01*
X178740126Y-105549988D01*
X178737711Y-105551244D01*
X178677266Y-105579432D01*
X178659002Y-105592219D01*
X178651792Y-105595973D01*
X178651591Y-105596012D01*
X178650847Y-105596460D01*
X178648397Y-105597708D01*
X178648394Y-105597710D01*
X178575696Y-105650526D01*
X178573939Y-105651779D01*
X178490859Y-105709954D01*
X178329954Y-105870859D01*
X178271781Y-105953934D01*
X178271782Y-105953935D01*
X178271132Y-105954863D01*
X178217713Y-106028390D01*
X178212535Y-106038550D01*
X178207560Y-106045656D01*
X178207558Y-106045656D01*
X178199433Y-106057262D01*
X178161838Y-106137882D01*
X178160920Y-106139849D01*
X178124780Y-106210781D01*
X178117735Y-106232458D01*
X178114532Y-106239329D01*
X178114529Y-106239338D01*
X178103261Y-106263503D01*
X178103261Y-106263504D01*
X178083459Y-106337404D01*
X178083458Y-106337403D01*
X178082614Y-106340551D01*
X178061523Y-106405466D01*
X178056175Y-106439224D01*
X178054492Y-106445507D01*
X178054492Y-106445511D01*
X178044366Y-106483304D01*
X178044364Y-106483313D01*
X178038783Y-106547106D01*
X178037728Y-106555697D01*
X178029500Y-106607643D01*
X178029500Y-106607648D01*
X178029500Y-106812352D01*
X178038406Y-106868582D01*
X178044365Y-106936692D01*
X178056171Y-106980756D01*
X178057188Y-106987175D01*
X178057190Y-106987181D01*
X178061521Y-107014525D01*
X178061522Y-107014530D01*
X178081617Y-107076378D01*
X178083460Y-107082600D01*
X178103260Y-107156494D01*
X178114529Y-107180662D01*
X178117733Y-107187532D01*
X178124780Y-107209219D01*
X178160930Y-107280169D01*
X178161844Y-107282128D01*
X178199432Y-107362734D01*
X178207562Y-107374346D01*
X178212535Y-107381448D01*
X178217713Y-107391610D01*
X178271164Y-107465180D01*
X178271793Y-107466078D01*
X178329953Y-107549140D01*
X178490858Y-107710045D01*
X178490861Y-107710047D01*
X178574800Y-107768821D01*
X178648390Y-107822287D01*
X178658547Y-107827462D01*
X178665648Y-107832434D01*
X178665652Y-107832436D01*
X178677266Y-107840568D01*
X178677270Y-107840570D01*
X178735272Y-107867617D01*
X178745927Y-107876999D01*
X178759131Y-107882224D01*
X178771629Y-107899629D01*
X178787712Y-107913789D01*
X178791604Y-107927444D01*
X178799886Y-107938977D01*
X178800990Y-107960375D01*
X178806864Y-107980982D01*
X178802755Y-107994573D01*
X178803488Y-108008754D01*
X178792848Y-108027352D01*
X178786649Y-108047864D01*
X178775167Y-108058259D01*
X178768794Y-108069401D01*
X178744369Y-108086145D01*
X178740126Y-108089988D01*
X178737711Y-108091244D01*
X178677266Y-108119432D01*
X178659002Y-108132219D01*
X178651792Y-108135973D01*
X178651591Y-108136012D01*
X178650847Y-108136460D01*
X178648397Y-108137708D01*
X178648394Y-108137710D01*
X178575696Y-108190526D01*
X178573939Y-108191779D01*
X178490859Y-108249954D01*
X178329954Y-108410859D01*
X178271781Y-108493934D01*
X178271782Y-108493935D01*
X178271132Y-108494863D01*
X178217713Y-108568390D01*
X178212535Y-108578550D01*
X178207560Y-108585656D01*
X178207558Y-108585656D01*
X178199433Y-108597262D01*
X178161838Y-108677882D01*
X178160920Y-108679849D01*
X178124780Y-108750781D01*
X178117735Y-108772458D01*
X178114532Y-108779329D01*
X178114529Y-108779338D01*
X178103261Y-108803503D01*
X178103261Y-108803504D01*
X178083459Y-108877404D01*
X178083458Y-108877403D01*
X178082614Y-108880551D01*
X178061523Y-108945466D01*
X178056175Y-108979224D01*
X178054492Y-108985507D01*
X178054492Y-108985511D01*
X178044366Y-109023304D01*
X178044364Y-109023313D01*
X178038783Y-109087106D01*
X178037728Y-109095697D01*
X178029500Y-109147643D01*
X178029500Y-109147648D01*
X178029500Y-109352352D01*
X178038406Y-109408582D01*
X178044365Y-109476692D01*
X178056171Y-109520756D01*
X178057188Y-109527175D01*
X178057190Y-109527181D01*
X178061521Y-109554525D01*
X178061522Y-109554530D01*
X178081617Y-109616378D01*
X178083460Y-109622600D01*
X178103260Y-109696494D01*
X178114529Y-109720662D01*
X178117733Y-109727532D01*
X178124780Y-109749219D01*
X178160930Y-109820169D01*
X178161844Y-109822128D01*
X178199432Y-109902734D01*
X178207562Y-109914346D01*
X178212535Y-109921448D01*
X178217713Y-109931610D01*
X178271164Y-110005180D01*
X178271793Y-110006078D01*
X178329953Y-110089140D01*
X178490858Y-110250045D01*
X178557379Y-110296623D01*
X178601004Y-110351199D01*
X178608198Y-110420698D01*
X178576676Y-110483052D01*
X178516922Y-110518346D01*
X178496976Y-110523436D01*
X178496962Y-110523441D01*
X178440415Y-110546863D01*
X179200589Y-111307037D01*
X179137007Y-111324075D01*
X179022993Y-111389901D01*
X178929901Y-111482993D01*
X178864075Y-111597007D01*
X178830000Y-111724174D01*
X178830000Y-111855826D01*
X178864075Y-111982993D01*
X178929901Y-112097007D01*
X179022993Y-112190099D01*
X179137007Y-112255925D01*
X179200588Y-112272961D01*
X178440414Y-113033135D01*
X178496960Y-113056557D01*
X178496965Y-113056559D01*
X178525159Y-113066505D01*
X178581832Y-113107370D01*
X178607415Y-113172388D01*
X178593786Y-113240915D01*
X178555035Y-113285016D01*
X178490859Y-113329954D01*
X178329954Y-113490859D01*
X178271781Y-113573934D01*
X178271782Y-113573935D01*
X178271132Y-113574863D01*
X178217713Y-113648390D01*
X178212535Y-113658550D01*
X178207560Y-113665656D01*
X178207558Y-113665656D01*
X178199433Y-113677262D01*
X178161838Y-113757882D01*
X178160920Y-113759849D01*
X178124780Y-113830781D01*
X178117735Y-113852458D01*
X178114532Y-113859329D01*
X178114529Y-113859338D01*
X178103261Y-113883503D01*
X178103261Y-113883504D01*
X178083459Y-113957404D01*
X178083458Y-113957403D01*
X178082614Y-113960551D01*
X178061523Y-114025466D01*
X178056175Y-114059224D01*
X178054492Y-114065507D01*
X178054492Y-114065511D01*
X178044366Y-114103304D01*
X178044364Y-114103313D01*
X178038783Y-114167106D01*
X178037728Y-114175697D01*
X178029500Y-114227643D01*
X178029500Y-114227648D01*
X178029500Y-114432352D01*
X178038406Y-114488582D01*
X178044365Y-114556692D01*
X178056171Y-114600756D01*
X178057188Y-114607175D01*
X178057190Y-114607181D01*
X178061521Y-114634525D01*
X178061522Y-114634530D01*
X178081617Y-114696378D01*
X178083460Y-114702600D01*
X178103260Y-114776494D01*
X178114529Y-114800662D01*
X178117733Y-114807532D01*
X178124780Y-114829219D01*
X178160930Y-114900169D01*
X178161844Y-114902128D01*
X178199432Y-114982734D01*
X178207562Y-114994346D01*
X178212535Y-115001448D01*
X178217713Y-115011610D01*
X178271164Y-115085180D01*
X178271793Y-115086078D01*
X178329953Y-115169140D01*
X178490858Y-115330045D01*
X178490861Y-115330047D01*
X178574800Y-115388821D01*
X178648390Y-115442287D01*
X178658547Y-115447462D01*
X178665648Y-115452434D01*
X178665652Y-115452436D01*
X178677266Y-115460568D01*
X178677270Y-115460570D01*
X178735272Y-115487617D01*
X178745927Y-115496999D01*
X178759131Y-115502224D01*
X178771629Y-115519629D01*
X178787712Y-115533789D01*
X178791604Y-115547444D01*
X178799886Y-115558977D01*
X178800990Y-115580375D01*
X178806864Y-115600982D01*
X178802755Y-115614573D01*
X178803488Y-115628754D01*
X178792848Y-115647352D01*
X178786649Y-115667864D01*
X178775167Y-115678259D01*
X178768794Y-115689401D01*
X178744369Y-115706145D01*
X178740126Y-115709988D01*
X178737711Y-115711244D01*
X178677266Y-115739432D01*
X178659002Y-115752219D01*
X178651792Y-115755973D01*
X178651591Y-115756012D01*
X178650847Y-115756460D01*
X178648397Y-115757708D01*
X178648394Y-115757710D01*
X178575696Y-115810526D01*
X178573939Y-115811779D01*
X178490859Y-115869954D01*
X178329954Y-116030859D01*
X178271781Y-116113934D01*
X178271782Y-116113935D01*
X178271132Y-116114863D01*
X178217713Y-116188390D01*
X178212535Y-116198550D01*
X178207560Y-116205656D01*
X178207558Y-116205656D01*
X178199433Y-116217262D01*
X178161838Y-116297882D01*
X178160920Y-116299849D01*
X178124780Y-116370781D01*
X178117735Y-116392458D01*
X178114532Y-116399329D01*
X178114529Y-116399338D01*
X178103261Y-116423503D01*
X178103261Y-116423504D01*
X178083459Y-116497404D01*
X178083458Y-116497403D01*
X178082614Y-116500551D01*
X178061523Y-116565466D01*
X178056175Y-116599224D01*
X178054492Y-116605507D01*
X178054492Y-116605511D01*
X178044366Y-116643304D01*
X178044364Y-116643313D01*
X178038783Y-116707106D01*
X178037728Y-116715697D01*
X178029500Y-116767643D01*
X178029500Y-116767648D01*
X178029500Y-116972352D01*
X178038406Y-117028582D01*
X178044365Y-117096692D01*
X178056171Y-117140756D01*
X178057188Y-117147175D01*
X178057190Y-117147181D01*
X178061521Y-117174525D01*
X178061522Y-117174530D01*
X178081617Y-117236378D01*
X178083460Y-117242600D01*
X178103260Y-117316494D01*
X178114529Y-117340662D01*
X178115140Y-117341972D01*
X178117733Y-117347532D01*
X178124780Y-117369219D01*
X178160930Y-117440169D01*
X178161844Y-117442128D01*
X178199432Y-117522734D01*
X178207562Y-117534346D01*
X178212535Y-117541448D01*
X178217713Y-117551610D01*
X178271164Y-117625180D01*
X178271793Y-117626078D01*
X178329953Y-117709140D01*
X178490858Y-117870045D01*
X178490861Y-117870047D01*
X178574800Y-117928821D01*
X178648390Y-117982287D01*
X178658547Y-117987462D01*
X178665648Y-117992434D01*
X178665652Y-117992436D01*
X178677266Y-118000568D01*
X178677270Y-118000570D01*
X178735272Y-118027617D01*
X178745927Y-118036999D01*
X178759131Y-118042224D01*
X178771629Y-118059629D01*
X178787712Y-118073789D01*
X178791604Y-118087444D01*
X178799886Y-118098977D01*
X178800990Y-118120375D01*
X178806864Y-118140982D01*
X178802755Y-118154573D01*
X178803488Y-118168754D01*
X178792848Y-118187352D01*
X178786649Y-118207864D01*
X178775167Y-118218259D01*
X178768794Y-118229401D01*
X178744369Y-118246145D01*
X178740126Y-118249988D01*
X178737711Y-118251244D01*
X178677266Y-118279432D01*
X178659002Y-118292219D01*
X178651792Y-118295973D01*
X178651591Y-118296012D01*
X178650847Y-118296460D01*
X178648397Y-118297708D01*
X178648394Y-118297710D01*
X178575696Y-118350526D01*
X178573939Y-118351779D01*
X178490859Y-118409954D01*
X178329954Y-118570859D01*
X178271781Y-118653934D01*
X178271782Y-118653935D01*
X178271132Y-118654863D01*
X178217713Y-118728390D01*
X178212535Y-118738550D01*
X178207560Y-118745656D01*
X178207558Y-118745656D01*
X178199433Y-118757262D01*
X178161838Y-118837882D01*
X178160920Y-118839849D01*
X178124780Y-118910781D01*
X178117735Y-118932458D01*
X178114532Y-118939329D01*
X178114529Y-118939338D01*
X178103261Y-118963503D01*
X178103261Y-118963504D01*
X178083459Y-119037404D01*
X178083458Y-119037403D01*
X178082614Y-119040551D01*
X178061523Y-119105466D01*
X178056175Y-119139224D01*
X178054492Y-119145507D01*
X178054492Y-119145511D01*
X178044366Y-119183304D01*
X178044364Y-119183313D01*
X178038783Y-119247106D01*
X178037728Y-119255697D01*
X178029500Y-119307643D01*
X178029500Y-119307648D01*
X178029500Y-119512352D01*
X178038406Y-119568582D01*
X178044365Y-119636692D01*
X178056171Y-119680756D01*
X178057188Y-119687175D01*
X178057190Y-119687181D01*
X178061521Y-119714525D01*
X178061522Y-119714530D01*
X178081617Y-119776378D01*
X178083460Y-119782600D01*
X178103260Y-119856494D01*
X178114529Y-119880662D01*
X178117733Y-119887532D01*
X178124780Y-119909219D01*
X178160930Y-119980169D01*
X178161844Y-119982128D01*
X178199432Y-120062734D01*
X178207562Y-120074346D01*
X178212535Y-120081448D01*
X178217713Y-120091610D01*
X178271164Y-120165180D01*
X178271793Y-120166078D01*
X178329953Y-120249140D01*
X178490858Y-120410045D01*
X178490861Y-120410047D01*
X178574800Y-120468821D01*
X178648390Y-120522287D01*
X178658547Y-120527462D01*
X178665648Y-120532434D01*
X178665652Y-120532436D01*
X178677266Y-120540568D01*
X178677270Y-120540570D01*
X178735272Y-120567617D01*
X178745927Y-120576999D01*
X178759131Y-120582224D01*
X178771629Y-120599629D01*
X178787712Y-120613789D01*
X178791604Y-120627444D01*
X178799886Y-120638977D01*
X178800990Y-120660375D01*
X178806864Y-120680982D01*
X178802755Y-120694573D01*
X178803488Y-120708754D01*
X178792848Y-120727352D01*
X178786649Y-120747864D01*
X178775167Y-120758259D01*
X178768794Y-120769401D01*
X178744369Y-120786145D01*
X178740126Y-120789988D01*
X178737711Y-120791244D01*
X178677266Y-120819432D01*
X178659002Y-120832219D01*
X178651792Y-120835973D01*
X178651591Y-120836012D01*
X178650847Y-120836460D01*
X178648397Y-120837708D01*
X178648394Y-120837710D01*
X178575696Y-120890526D01*
X178573939Y-120891779D01*
X178490859Y-120949954D01*
X178329954Y-121110859D01*
X178271781Y-121193934D01*
X178271782Y-121193935D01*
X178271132Y-121194863D01*
X178217713Y-121268390D01*
X178212535Y-121278550D01*
X178207560Y-121285656D01*
X178207558Y-121285656D01*
X178199433Y-121297262D01*
X178161838Y-121377882D01*
X178160920Y-121379849D01*
X178124780Y-121450781D01*
X178117735Y-121472458D01*
X178114532Y-121479329D01*
X178114529Y-121479338D01*
X178103261Y-121503503D01*
X178103261Y-121503504D01*
X178083459Y-121577404D01*
X178083458Y-121577403D01*
X178082614Y-121580551D01*
X178061523Y-121645466D01*
X178056175Y-121679224D01*
X178054492Y-121685507D01*
X178054492Y-121685511D01*
X178044366Y-121723304D01*
X178044364Y-121723313D01*
X178038783Y-121787106D01*
X178037728Y-121795697D01*
X178029500Y-121847643D01*
X178029500Y-121847648D01*
X178029500Y-122052352D01*
X178038406Y-122108582D01*
X178044365Y-122176692D01*
X178056171Y-122220756D01*
X178057188Y-122227175D01*
X178057190Y-122227181D01*
X178061521Y-122254525D01*
X178061522Y-122254530D01*
X178061523Y-122254534D01*
X178075840Y-122298598D01*
X178081617Y-122316378D01*
X178083460Y-122322600D01*
X178103260Y-122396494D01*
X178114529Y-122420662D01*
X178117733Y-122427532D01*
X178124780Y-122449219D01*
X178160930Y-122520169D01*
X178161844Y-122522128D01*
X178199432Y-122602734D01*
X178207562Y-122614346D01*
X178212535Y-122621448D01*
X178217713Y-122631610D01*
X178271164Y-122705180D01*
X178271793Y-122706078D01*
X178329953Y-122789140D01*
X178490858Y-122950045D01*
X178557379Y-122996623D01*
X178601004Y-123051199D01*
X178608198Y-123120698D01*
X178576676Y-123183052D01*
X178516922Y-123218346D01*
X178496976Y-123223436D01*
X178496962Y-123223441D01*
X178440415Y-123246863D01*
X179200589Y-124007037D01*
X179137007Y-124024075D01*
X179022993Y-124089901D01*
X178929901Y-124182993D01*
X178864075Y-124297007D01*
X178830000Y-124424174D01*
X178830000Y-124555826D01*
X178864075Y-124682993D01*
X178929901Y-124797007D01*
X179022993Y-124890099D01*
X179137007Y-124955925D01*
X179200588Y-124972961D01*
X178440414Y-125733135D01*
X178496960Y-125756557D01*
X178496965Y-125756559D01*
X178525159Y-125766505D01*
X178581832Y-125807370D01*
X178607415Y-125872388D01*
X178593786Y-125940915D01*
X178555035Y-125985016D01*
X178490859Y-126029954D01*
X178329954Y-126190859D01*
X178271781Y-126273934D01*
X178271782Y-126273935D01*
X178271132Y-126274863D01*
X178217713Y-126348390D01*
X178212535Y-126358550D01*
X178207560Y-126365656D01*
X178207558Y-126365656D01*
X178199433Y-126377262D01*
X178161838Y-126457882D01*
X178160920Y-126459849D01*
X178124780Y-126530781D01*
X178117735Y-126552458D01*
X178114532Y-126559329D01*
X178114529Y-126559338D01*
X178103261Y-126583503D01*
X178103261Y-126583504D01*
X178083459Y-126657404D01*
X178083458Y-126657403D01*
X178082614Y-126660551D01*
X178061523Y-126725466D01*
X178056175Y-126759224D01*
X178054492Y-126765507D01*
X178054492Y-126765511D01*
X178044366Y-126803304D01*
X178044364Y-126803313D01*
X178038783Y-126867106D01*
X178037942Y-126873954D01*
X178037941Y-126874301D01*
X178037837Y-126875007D01*
X178029500Y-126927648D01*
X178029500Y-127132352D01*
X178038406Y-127188582D01*
X178044365Y-127256692D01*
X178056171Y-127300756D01*
X178057188Y-127307175D01*
X178057190Y-127307181D01*
X178061521Y-127334525D01*
X178061522Y-127334530D01*
X178081617Y-127396378D01*
X178083460Y-127402600D01*
X178103260Y-127476494D01*
X178114529Y-127500662D01*
X178117733Y-127507532D01*
X178124780Y-127529219D01*
X178160930Y-127600169D01*
X178161844Y-127602128D01*
X178199432Y-127682734D01*
X178207562Y-127694346D01*
X178212535Y-127701448D01*
X178217713Y-127711610D01*
X178271164Y-127785180D01*
X178271793Y-127786078D01*
X178329953Y-127869140D01*
X178490858Y-128030045D01*
X178490861Y-128030047D01*
X178574800Y-128088821D01*
X178648390Y-128142287D01*
X178658547Y-128147462D01*
X178665648Y-128152434D01*
X178665652Y-128152436D01*
X178677266Y-128160568D01*
X178677270Y-128160570D01*
X178735272Y-128187617D01*
X178745927Y-128196999D01*
X178759131Y-128202224D01*
X178771629Y-128219629D01*
X178787712Y-128233789D01*
X178791604Y-128247444D01*
X178799886Y-128258977D01*
X178800990Y-128280375D01*
X178806864Y-128300982D01*
X178802755Y-128314573D01*
X178803488Y-128328754D01*
X178792848Y-128347352D01*
X178786649Y-128367864D01*
X178775167Y-128378259D01*
X178768794Y-128389401D01*
X178744369Y-128406145D01*
X178740126Y-128409988D01*
X178737711Y-128411244D01*
X178677266Y-128439432D01*
X178659002Y-128452219D01*
X178651792Y-128455973D01*
X178651591Y-128456012D01*
X178650847Y-128456460D01*
X178648397Y-128457708D01*
X178648394Y-128457710D01*
X178575696Y-128510526D01*
X178573939Y-128511779D01*
X178490859Y-128569954D01*
X178329954Y-128730859D01*
X178271781Y-128813934D01*
X178271782Y-128813935D01*
X178271132Y-128814863D01*
X178217713Y-128888390D01*
X178212535Y-128898550D01*
X178207560Y-128905656D01*
X178207558Y-128905656D01*
X178199433Y-128917262D01*
X178161838Y-128997882D01*
X178160920Y-128999849D01*
X178124780Y-129070781D01*
X178117735Y-129092458D01*
X178114532Y-129099329D01*
X178114529Y-129099338D01*
X178103261Y-129123503D01*
X178103261Y-129123504D01*
X178083459Y-129197404D01*
X178083458Y-129197403D01*
X178082614Y-129200551D01*
X178061523Y-129265466D01*
X178056175Y-129299224D01*
X178054492Y-129305507D01*
X178054492Y-129305511D01*
X178044366Y-129343304D01*
X178044364Y-129343313D01*
X178038783Y-129407106D01*
X178037728Y-129415697D01*
X178029500Y-129467643D01*
X178029500Y-129467648D01*
X178029500Y-129672352D01*
X178038406Y-129728582D01*
X178044365Y-129796692D01*
X178056171Y-129840756D01*
X178057188Y-129847175D01*
X178057190Y-129847181D01*
X178061521Y-129874525D01*
X178061522Y-129874530D01*
X178081617Y-129936378D01*
X178083460Y-129942600D01*
X178103260Y-130016494D01*
X178114529Y-130040662D01*
X178117733Y-130047532D01*
X178124780Y-130069219D01*
X178160930Y-130140169D01*
X178161844Y-130142128D01*
X178199432Y-130222734D01*
X178207562Y-130234346D01*
X178212535Y-130241448D01*
X178217713Y-130251610D01*
X178271164Y-130325180D01*
X178271793Y-130326078D01*
X178329953Y-130409140D01*
X178490858Y-130570045D01*
X178573904Y-130628194D01*
X178574800Y-130628821D01*
X178648390Y-130682287D01*
X178658547Y-130687462D01*
X178665648Y-130692434D01*
X178665652Y-130692436D01*
X178677265Y-130700567D01*
X178677266Y-130700568D01*
X178759827Y-130739067D01*
X178830781Y-130775220D01*
X178852467Y-130782266D01*
X178883504Y-130796739D01*
X178883510Y-130796740D01*
X178883513Y-130796742D01*
X178957386Y-130816535D01*
X178960528Y-130817377D01*
X179025466Y-130838477D01*
X179059233Y-130843825D01*
X179103308Y-130855635D01*
X179167103Y-130861215D01*
X179175690Y-130862269D01*
X179227648Y-130870500D01*
X179227649Y-130870500D01*
X180986785Y-130870500D01*
X180986785Y-130870499D01*
X181156692Y-130855635D01*
X181302620Y-130816534D01*
X181342386Y-130805879D01*
X181365456Y-130799697D01*
X181376496Y-130796739D01*
X181582734Y-130700568D01*
X181769139Y-130570047D01*
X181930047Y-130409139D01*
X182060568Y-130222734D01*
X182156739Y-130016496D01*
X182215635Y-129796692D01*
X182230500Y-129626784D01*
X182230500Y-129513216D01*
X182215635Y-129343308D01*
X182170916Y-129176415D01*
X182156741Y-129123511D01*
X182156738Y-129123503D01*
X182060568Y-128917266D01*
X181930047Y-128730861D01*
X181930045Y-128730858D01*
X181769141Y-128569954D01*
X181582734Y-128439432D01*
X181582728Y-128439429D01*
X181524725Y-128412382D01*
X181472285Y-128366210D01*
X181453133Y-128299017D01*
X181473348Y-128232135D01*
X181524725Y-128187618D01*
X181582734Y-128160568D01*
X181769139Y-128030047D01*
X181930047Y-127869139D01*
X182060568Y-127682734D01*
X182156739Y-127476496D01*
X182215635Y-127256692D01*
X182230500Y-127086784D01*
X182230500Y-126973216D01*
X182215635Y-126803308D01*
X182170916Y-126636415D01*
X182156741Y-126583511D01*
X182156738Y-126583503D01*
X182060568Y-126377266D01*
X181930047Y-126190861D01*
X181930045Y-126190858D01*
X181769141Y-126029954D01*
X181582734Y-125899432D01*
X181582732Y-125899431D01*
X181530779Y-125875205D01*
X181478340Y-125829032D01*
X181459188Y-125761839D01*
X181479404Y-125694958D01*
X181524732Y-125653464D01*
X181589500Y-125618844D01*
X181589521Y-125618832D01*
X181720530Y-125531295D01*
X181720536Y-125531291D01*
X181797064Y-125468485D01*
X181908485Y-125357064D01*
X181971291Y-125280536D01*
X181971295Y-125280530D01*
X182058832Y-125149521D01*
X182058844Y-125149501D01*
X182105509Y-125062198D01*
X182165814Y-124916612D01*
X182194556Y-124821860D01*
X182194559Y-124821849D01*
X182210839Y-124740000D01*
X179763012Y-124740000D01*
X179795925Y-124682993D01*
X179830000Y-124555826D01*
X179830000Y-124424174D01*
X179795925Y-124297007D01*
X179763012Y-124240000D01*
X182210839Y-124240000D01*
X182210839Y-124239999D01*
X182194559Y-124158150D01*
X182194556Y-124158139D01*
X182165814Y-124063387D01*
X182105509Y-123917801D01*
X182058844Y-123830498D01*
X182058832Y-123830478D01*
X181971295Y-123699469D01*
X181971291Y-123699463D01*
X181908485Y-123622935D01*
X181797064Y-123511514D01*
X181720536Y-123448708D01*
X181720530Y-123448704D01*
X181589521Y-123361167D01*
X181589501Y-123361155D01*
X181524730Y-123326534D01*
X181474886Y-123277571D01*
X181459426Y-123209434D01*
X181483258Y-123143754D01*
X181530777Y-123104795D01*
X181582734Y-123080568D01*
X181769139Y-122950047D01*
X181930047Y-122789139D01*
X182060568Y-122602734D01*
X182156739Y-122396496D01*
X182215635Y-122176692D01*
X182230500Y-122006784D01*
X182230500Y-121893216D01*
X182215635Y-121723308D01*
X182157922Y-121507918D01*
X182156741Y-121503511D01*
X182156738Y-121503503D01*
X182060568Y-121297266D01*
X181930047Y-121110861D01*
X181930045Y-121110858D01*
X181769141Y-120949954D01*
X181582734Y-120819432D01*
X181582728Y-120819429D01*
X181524725Y-120792382D01*
X181472285Y-120746210D01*
X181453133Y-120679017D01*
X181473348Y-120612135D01*
X181524725Y-120567618D01*
X181582734Y-120540568D01*
X181769139Y-120410047D01*
X181930047Y-120249139D01*
X182060568Y-120062734D01*
X182156739Y-119856496D01*
X182215635Y-119636692D01*
X182230500Y-119466784D01*
X182230500Y-119353216D01*
X182215635Y-119183308D01*
X182170916Y-119016415D01*
X182156741Y-118963511D01*
X182156738Y-118963503D01*
X182060568Y-118757266D01*
X181930047Y-118570861D01*
X181930045Y-118570858D01*
X181769141Y-118409954D01*
X181582734Y-118279432D01*
X181582728Y-118279429D01*
X181524725Y-118252382D01*
X181472285Y-118206210D01*
X181453133Y-118139017D01*
X181473348Y-118072135D01*
X181524725Y-118027618D01*
X181582734Y-118000568D01*
X181769139Y-117870047D01*
X181930047Y-117709139D01*
X182060568Y-117522734D01*
X182156739Y-117316496D01*
X182215635Y-117096692D01*
X182230500Y-116926784D01*
X182230500Y-116813216D01*
X182215635Y-116643308D01*
X182170916Y-116476415D01*
X182156741Y-116423511D01*
X182156738Y-116423503D01*
X182060568Y-116217266D01*
X181930047Y-116030861D01*
X181930045Y-116030858D01*
X181769141Y-115869954D01*
X181582734Y-115739432D01*
X181582728Y-115739429D01*
X181524725Y-115712382D01*
X181472285Y-115666210D01*
X181453133Y-115599017D01*
X181473348Y-115532135D01*
X181524725Y-115487618D01*
X181582734Y-115460568D01*
X181769139Y-115330047D01*
X181930047Y-115169139D01*
X182060568Y-114982734D01*
X182156739Y-114776496D01*
X182215635Y-114556692D01*
X182230500Y-114386784D01*
X182230500Y-114273216D01*
X182215635Y-114103308D01*
X182170916Y-113936415D01*
X182156741Y-113883511D01*
X182156738Y-113883503D01*
X182060568Y-113677266D01*
X181930047Y-113490861D01*
X181930045Y-113490858D01*
X181769141Y-113329954D01*
X181582734Y-113199432D01*
X181582732Y-113199431D01*
X181530779Y-113175205D01*
X181478340Y-113129032D01*
X181459188Y-113061839D01*
X181479404Y-112994958D01*
X181524732Y-112953464D01*
X181589500Y-112918844D01*
X181589521Y-112918832D01*
X181720530Y-112831295D01*
X181720536Y-112831291D01*
X181797064Y-112768485D01*
X181908485Y-112657064D01*
X181971291Y-112580536D01*
X181971295Y-112580530D01*
X182058832Y-112449521D01*
X182058844Y-112449501D01*
X182105509Y-112362198D01*
X182165814Y-112216612D01*
X182194556Y-112121860D01*
X182194559Y-112121849D01*
X182210839Y-112040000D01*
X179763012Y-112040000D01*
X179795925Y-111982993D01*
X179830000Y-111855826D01*
X179830000Y-111724174D01*
X179795925Y-111597007D01*
X179763012Y-111540000D01*
X182210839Y-111540000D01*
X182210839Y-111539999D01*
X182194559Y-111458150D01*
X182194556Y-111458139D01*
X182165814Y-111363387D01*
X182105509Y-111217801D01*
X182058844Y-111130498D01*
X182058832Y-111130478D01*
X181971295Y-110999469D01*
X181971291Y-110999463D01*
X181908485Y-110922935D01*
X181797064Y-110811514D01*
X181720536Y-110748708D01*
X181720530Y-110748704D01*
X181589521Y-110661167D01*
X181589501Y-110661155D01*
X181524730Y-110626534D01*
X181474886Y-110577571D01*
X181459426Y-110509434D01*
X181483258Y-110443754D01*
X181530777Y-110404795D01*
X181582734Y-110380568D01*
X181769139Y-110250047D01*
X181930047Y-110089139D01*
X182060568Y-109902734D01*
X182156739Y-109696496D01*
X182215635Y-109476692D01*
X182230500Y-109306784D01*
X182230500Y-109193216D01*
X182215635Y-109023308D01*
X182170916Y-108856415D01*
X182156741Y-108803511D01*
X182156738Y-108803503D01*
X182060568Y-108597266D01*
X181930047Y-108410861D01*
X181930045Y-108410858D01*
X181769141Y-108249954D01*
X181582734Y-108119432D01*
X181582728Y-108119429D01*
X181524725Y-108092382D01*
X181472285Y-108046210D01*
X181453133Y-107979017D01*
X181473348Y-107912135D01*
X181524725Y-107867618D01*
X181582734Y-107840568D01*
X181769139Y-107710047D01*
X181930047Y-107549139D01*
X182060568Y-107362734D01*
X182156739Y-107156496D01*
X182215635Y-106936692D01*
X182230500Y-106766784D01*
X182230500Y-106653216D01*
X182215635Y-106483308D01*
X182170916Y-106316415D01*
X182156741Y-106263511D01*
X182156738Y-106263503D01*
X182060568Y-106057266D01*
X181930047Y-105870861D01*
X181930045Y-105870858D01*
X181769141Y-105709954D01*
X181582734Y-105579432D01*
X181582728Y-105579429D01*
X181524725Y-105552382D01*
X181472285Y-105506210D01*
X181453133Y-105439017D01*
X181473348Y-105372135D01*
X181524725Y-105327618D01*
X181582734Y-105300568D01*
X181769139Y-105170047D01*
X181930047Y-105009139D01*
X182060568Y-104822734D01*
X182156739Y-104616496D01*
X182215635Y-104396692D01*
X182230500Y-104226784D01*
X182230500Y-104113216D01*
X182215635Y-103943308D01*
X182170916Y-103776415D01*
X182156741Y-103723511D01*
X182156738Y-103723503D01*
X182060568Y-103517266D01*
X181930047Y-103330861D01*
X181930045Y-103330858D01*
X181769141Y-103169954D01*
X181582734Y-103039432D01*
X181582728Y-103039429D01*
X181524725Y-103012382D01*
X181472285Y-102966210D01*
X181453133Y-102899017D01*
X181473348Y-102832135D01*
X181524725Y-102787618D01*
X181582734Y-102760568D01*
X181769139Y-102630047D01*
X181930047Y-102469139D01*
X182060568Y-102282734D01*
X182156739Y-102076496D01*
X182215635Y-101856692D01*
X182230500Y-101686784D01*
X182230500Y-101573216D01*
X182215635Y-101403308D01*
X182160005Y-101195692D01*
X182156741Y-101183511D01*
X182156738Y-101183503D01*
X182060568Y-100977266D01*
X181930047Y-100790861D01*
X181930045Y-100790858D01*
X181769141Y-100629954D01*
X181582734Y-100499432D01*
X181582732Y-100499431D01*
X181531343Y-100475468D01*
X181478904Y-100429295D01*
X181459752Y-100362102D01*
X181479968Y-100295221D01*
X181525293Y-100253729D01*
X181589783Y-100219259D01*
X181720811Y-100131709D01*
X181797412Y-100068843D01*
X181908843Y-99957412D01*
X181971709Y-99880811D01*
X182059259Y-99749783D01*
X182105972Y-99662389D01*
X182166278Y-99516798D01*
X182195044Y-99421968D01*
X182225787Y-99267410D01*
X182235500Y-99168793D01*
X182235500Y-99011207D01*
X182225787Y-98912590D01*
X182195044Y-98758032D01*
X182166278Y-98663202D01*
X182105972Y-98517611D01*
X182059259Y-98430217D01*
X182059248Y-98430200D01*
X181971721Y-98299206D01*
X181971712Y-98299194D01*
X181971709Y-98299189D01*
X181908843Y-98222588D01*
X181797412Y-98111157D01*
X181720811Y-98048291D01*
X181720804Y-98048286D01*
X181720793Y-98048278D01*
X181589799Y-97960751D01*
X181589788Y-97960744D01*
X181589783Y-97960741D01*
X181525293Y-97926270D01*
X181475450Y-97877308D01*
X181459990Y-97809171D01*
X181483822Y-97743491D01*
X181531341Y-97704532D01*
X181582734Y-97680568D01*
X181769139Y-97550047D01*
X181930047Y-97389139D01*
X182060568Y-97202734D01*
X182156739Y-96996496D01*
X182215635Y-96776692D01*
X182230500Y-96606784D01*
X182230500Y-96493216D01*
X182215635Y-96323308D01*
X182170916Y-96156415D01*
X182156741Y-96103511D01*
X182156738Y-96103503D01*
X182060568Y-95897266D01*
X181930047Y-95710861D01*
X181930045Y-95710858D01*
X181769141Y-95549954D01*
X181582734Y-95419432D01*
X181582728Y-95419429D01*
X181524725Y-95392382D01*
X181472285Y-95346210D01*
X181453133Y-95279017D01*
X181473348Y-95212135D01*
X181524725Y-95167618D01*
X181582734Y-95140568D01*
X181769139Y-95010047D01*
X181930047Y-94849139D01*
X182060568Y-94662734D01*
X182156739Y-94456496D01*
X182215635Y-94236692D01*
X182230500Y-94066784D01*
X182230500Y-93953216D01*
X182228551Y-93930943D01*
X182228361Y-93928775D01*
X192599500Y-93928775D01*
X192599500Y-95571210D01*
X192599501Y-95571225D01*
X192609684Y-95670898D01*
X192650449Y-95793920D01*
X192663197Y-95832391D01*
X192752510Y-95977190D01*
X192872810Y-96097490D01*
X193017609Y-96186803D01*
X193125271Y-96222478D01*
X193179102Y-96240316D01*
X193190444Y-96241474D01*
X193278783Y-96250500D01*
X195721216Y-96250499D01*
X195820897Y-96240316D01*
X195982391Y-96186803D01*
X196127190Y-96097490D01*
X196247490Y-95977190D01*
X196336803Y-95832391D01*
X196390316Y-95670897D01*
X196400500Y-95571217D01*
X196400500Y-95474500D01*
X196420185Y-95407461D01*
X196472989Y-95361706D01*
X196524500Y-95350500D01*
X197968331Y-95350500D01*
X197968347Y-95350501D01*
X197975943Y-95350501D01*
X198134054Y-95350501D01*
X198134057Y-95350501D01*
X198286785Y-95309577D01*
X198365094Y-95264365D01*
X198423716Y-95230520D01*
X198535520Y-95118716D01*
X198535520Y-95118714D01*
X198545724Y-95108511D01*
X198545728Y-95108506D01*
X203444506Y-90209728D01*
X203444511Y-90209724D01*
X203454714Y-90199520D01*
X203454716Y-90199520D01*
X203566520Y-90087716D01*
X203645577Y-89950784D01*
X203686500Y-89798057D01*
X203686500Y-86230060D01*
X203686501Y-86230047D01*
X203686501Y-86061944D01*
X203686501Y-86061943D01*
X203645577Y-85909216D01*
X203639649Y-85898949D01*
X203566524Y-85772290D01*
X203566518Y-85772282D01*
X203148167Y-85353931D01*
X202722589Y-84928354D01*
X202722588Y-84928352D01*
X202603717Y-84809481D01*
X202603709Y-84809475D01*
X202492491Y-84745264D01*
X202492490Y-84745263D01*
X202492490Y-84745264D01*
X202466785Y-84730423D01*
X202314057Y-84689499D01*
X202155943Y-84689499D01*
X202148347Y-84689499D01*
X202148331Y-84689500D01*
X199737185Y-84689500D01*
X199670146Y-84669815D01*
X199636867Y-84638386D01*
X199589414Y-84573072D01*
X199466928Y-84450586D01*
X199326788Y-84348768D01*
X199270728Y-84320204D01*
X199172447Y-84270128D01*
X199172446Y-84270127D01*
X199172445Y-84270127D01*
X199007701Y-84216598D01*
X199007699Y-84216597D01*
X199007698Y-84216597D01*
X198869657Y-84194734D01*
X198836611Y-84189500D01*
X198663389Y-84189500D01*
X198630343Y-84194734D01*
X198492302Y-84216597D01*
X198327552Y-84270128D01*
X198173211Y-84348768D01*
X198133685Y-84377486D01*
X198033072Y-84450586D01*
X198033070Y-84450588D01*
X198033069Y-84450588D01*
X197910588Y-84573069D01*
X197910588Y-84573070D01*
X197910586Y-84573072D01*
X197866859Y-84633256D01*
X197808768Y-84713211D01*
X197730128Y-84867552D01*
X197676597Y-85032302D01*
X197649500Y-85203389D01*
X197649500Y-85376610D01*
X197669108Y-85500415D01*
X197676598Y-85547701D01*
X197730127Y-85712445D01*
X197808768Y-85866788D01*
X197910586Y-86006928D01*
X198033072Y-86129414D01*
X198173212Y-86231232D01*
X198327555Y-86309873D01*
X198492299Y-86363402D01*
X198663389Y-86390500D01*
X198663390Y-86390500D01*
X198836610Y-86390500D01*
X198836611Y-86390500D01*
X199007701Y-86363402D01*
X199172445Y-86309873D01*
X199326788Y-86231232D01*
X199466928Y-86129414D01*
X199589414Y-86006928D01*
X199636868Y-85941613D01*
X199692197Y-85898949D01*
X199737185Y-85890500D01*
X201934903Y-85890500D01*
X202001942Y-85910185D01*
X202022584Y-85926819D01*
X202449181Y-86353416D01*
X202482666Y-86414739D01*
X202485500Y-86441097D01*
X202485500Y-89418903D01*
X202465815Y-89485942D01*
X202449181Y-89506584D01*
X197842584Y-94113181D01*
X197781261Y-94146666D01*
X197754903Y-94149500D01*
X196524499Y-94149500D01*
X196457460Y-94129815D01*
X196411705Y-94077011D01*
X196400499Y-94025500D01*
X196400499Y-93928789D01*
X196400498Y-93928774D01*
X196398339Y-93907643D01*
X196390316Y-93829103D01*
X196336803Y-93667609D01*
X196247490Y-93522810D01*
X196127190Y-93402510D01*
X196035007Y-93345651D01*
X195982393Y-93313198D01*
X195982388Y-93313196D01*
X195820897Y-93259683D01*
X195721218Y-93249500D01*
X193278789Y-93249500D01*
X193278774Y-93249501D01*
X193179101Y-93259684D01*
X193017611Y-93313196D01*
X193017606Y-93313198D01*
X192872808Y-93402511D01*
X192752511Y-93522808D01*
X192663198Y-93667606D01*
X192663196Y-93667611D01*
X192609683Y-93829102D01*
X192599500Y-93928775D01*
X182228361Y-93928775D01*
X182221217Y-93847106D01*
X182215635Y-93783308D01*
X182170916Y-93616415D01*
X182156741Y-93563511D01*
X182156738Y-93563503D01*
X182060568Y-93357266D01*
X181930047Y-93170861D01*
X181930045Y-93170858D01*
X181769141Y-93009954D01*
X181582734Y-92879432D01*
X181582728Y-92879429D01*
X181524725Y-92852382D01*
X181472285Y-92806210D01*
X181453133Y-92739017D01*
X181473348Y-92672135D01*
X181524725Y-92627618D01*
X181582734Y-92600568D01*
X181769139Y-92470047D01*
X181930047Y-92309139D01*
X182060568Y-92122734D01*
X182156739Y-91916496D01*
X182215635Y-91696692D01*
X182230500Y-91526784D01*
X182230500Y-91413216D01*
X182215635Y-91243308D01*
X182170916Y-91076415D01*
X182156741Y-91023511D01*
X182156738Y-91023503D01*
X182060568Y-90817266D01*
X181930047Y-90630861D01*
X181930045Y-90630858D01*
X181769141Y-90469954D01*
X181582734Y-90339432D01*
X181582728Y-90339429D01*
X181524725Y-90312382D01*
X181472285Y-90266210D01*
X181453133Y-90199017D01*
X181473348Y-90132135D01*
X181524725Y-90087618D01*
X181582734Y-90060568D01*
X181769139Y-89930047D01*
X181930047Y-89769139D01*
X182060568Y-89582734D01*
X182156739Y-89376496D01*
X182215635Y-89156692D01*
X182230500Y-88986784D01*
X182230500Y-88873216D01*
X182215635Y-88703308D01*
X182170916Y-88536415D01*
X182156741Y-88483511D01*
X182156738Y-88483503D01*
X182060568Y-88277266D01*
X181930047Y-88090861D01*
X181930045Y-88090858D01*
X181769141Y-87929954D01*
X181644836Y-87842915D01*
X181644828Y-87842910D01*
X181582734Y-87799432D01*
X181525426Y-87772708D01*
X181520336Y-87769716D01*
X181500304Y-87748371D01*
X181494646Y-87743389D01*
X192569500Y-87743389D01*
X192569500Y-87916611D01*
X192596598Y-88087701D01*
X192650127Y-88252445D01*
X192728768Y-88406788D01*
X192830586Y-88546928D01*
X192953072Y-88669414D01*
X193093212Y-88771232D01*
X193247555Y-88849873D01*
X193412299Y-88903402D01*
X193583389Y-88930500D01*
X193583390Y-88930500D01*
X193756610Y-88930500D01*
X193756611Y-88930500D01*
X193927701Y-88903402D01*
X194092445Y-88849873D01*
X194246788Y-88771232D01*
X194386928Y-88669414D01*
X194509414Y-88546928D01*
X194611232Y-88406788D01*
X194689873Y-88252445D01*
X194743402Y-88087701D01*
X194770500Y-87916611D01*
X194770500Y-87743389D01*
X197649500Y-87743389D01*
X197649500Y-87916611D01*
X197676598Y-88087701D01*
X197730127Y-88252445D01*
X197808768Y-88406788D01*
X197910586Y-88546928D01*
X198033072Y-88669414D01*
X198173212Y-88771232D01*
X198327555Y-88849873D01*
X198492299Y-88903402D01*
X198663389Y-88930500D01*
X198663390Y-88930500D01*
X198836610Y-88930500D01*
X198836611Y-88930500D01*
X199007701Y-88903402D01*
X199172445Y-88849873D01*
X199326788Y-88771232D01*
X199466928Y-88669414D01*
X199589414Y-88546928D01*
X199691232Y-88406788D01*
X199769873Y-88252445D01*
X199823402Y-88087701D01*
X199850500Y-87916611D01*
X199850500Y-87743389D01*
X199823402Y-87572299D01*
X199769873Y-87407555D01*
X199691232Y-87253212D01*
X199589414Y-87113072D01*
X199466928Y-86990586D01*
X199326788Y-86888768D01*
X199172445Y-86810127D01*
X199007701Y-86756598D01*
X199007699Y-86756597D01*
X199007698Y-86756597D01*
X198876271Y-86735781D01*
X198836611Y-86729500D01*
X198663389Y-86729500D01*
X198623728Y-86735781D01*
X198492302Y-86756597D01*
X198327552Y-86810128D01*
X198173211Y-86888768D01*
X198093256Y-86946859D01*
X198033072Y-86990586D01*
X198033070Y-86990588D01*
X198033069Y-86990588D01*
X197910588Y-87113069D01*
X197910588Y-87113070D01*
X197910586Y-87113072D01*
X197867734Y-87172053D01*
X197808768Y-87253211D01*
X197730128Y-87407552D01*
X197676597Y-87572302D01*
X197653399Y-87718769D01*
X197649500Y-87743389D01*
X194770500Y-87743389D01*
X194743402Y-87572299D01*
X194689873Y-87407555D01*
X194611232Y-87253212D01*
X194509414Y-87113072D01*
X194386928Y-86990586D01*
X194246788Y-86888768D01*
X194092445Y-86810127D01*
X193927701Y-86756598D01*
X193927699Y-86756597D01*
X193927698Y-86756597D01*
X193796271Y-86735781D01*
X193756611Y-86729500D01*
X193583389Y-86729500D01*
X193543728Y-86735781D01*
X193412302Y-86756597D01*
X193247552Y-86810128D01*
X193093211Y-86888768D01*
X193013256Y-86946859D01*
X192953072Y-86990586D01*
X192953070Y-86990588D01*
X192953069Y-86990588D01*
X192830588Y-87113069D01*
X192830588Y-87113070D01*
X192830586Y-87113072D01*
X192787734Y-87172053D01*
X192728768Y-87253211D01*
X192650128Y-87407552D01*
X192596597Y-87572302D01*
X192573399Y-87718769D01*
X192569500Y-87743389D01*
X181494646Y-87743389D01*
X181478340Y-87729032D01*
X181476676Y-87723195D01*
X181472522Y-87718769D01*
X181467210Y-87689984D01*
X181459188Y-87661839D01*
X181460944Y-87656028D01*
X181459843Y-87650060D01*
X181470935Y-87622975D01*
X181479404Y-87594958D01*
X181484211Y-87590556D01*
X181486323Y-87585402D01*
X181501296Y-87574916D01*
X181524732Y-87553464D01*
X181589500Y-87518844D01*
X181589521Y-87518832D01*
X181720530Y-87431295D01*
X181720536Y-87431291D01*
X181797064Y-87368485D01*
X181908485Y-87257064D01*
X181971291Y-87180536D01*
X181971295Y-87180530D01*
X182058832Y-87049521D01*
X182058844Y-87049501D01*
X182105509Y-86962198D01*
X182165814Y-86816612D01*
X182194556Y-86721860D01*
X182194559Y-86721849D01*
X182210839Y-86640000D01*
X179763012Y-86640000D01*
X179795925Y-86582993D01*
X179830000Y-86455826D01*
X179830000Y-86324174D01*
X179795925Y-86197007D01*
X179763012Y-86140000D01*
X182210839Y-86140000D01*
X182210839Y-86139999D01*
X182194559Y-86058150D01*
X182194556Y-86058139D01*
X182165814Y-85963387D01*
X182105509Y-85817801D01*
X182058844Y-85730498D01*
X182058832Y-85730478D01*
X181971295Y-85599469D01*
X181971291Y-85599463D01*
X181908485Y-85522935D01*
X181797064Y-85411514D01*
X181720536Y-85348708D01*
X181720530Y-85348704D01*
X181589521Y-85261167D01*
X181589501Y-85261155D01*
X181524730Y-85226534D01*
X181474886Y-85177571D01*
X181459426Y-85109434D01*
X181483258Y-85043754D01*
X181530777Y-85004795D01*
X181582734Y-84980568D01*
X181769139Y-84850047D01*
X181930047Y-84689139D01*
X182060568Y-84502734D01*
X182156739Y-84296496D01*
X182215635Y-84076692D01*
X182230500Y-83906784D01*
X182230500Y-83793216D01*
X182215635Y-83623308D01*
X182170916Y-83456415D01*
X182156741Y-83403511D01*
X182156738Y-83403503D01*
X182060568Y-83197266D01*
X181930047Y-83010861D01*
X181930045Y-83010858D01*
X181769141Y-82849954D01*
X181582734Y-82719432D01*
X181582728Y-82719429D01*
X181524725Y-82692382D01*
X181472285Y-82646210D01*
X181453133Y-82579017D01*
X181473348Y-82512135D01*
X181524725Y-82467618D01*
X181582734Y-82440568D01*
X181769139Y-82310047D01*
X181930047Y-82149139D01*
X182060118Y-81963375D01*
X182114693Y-81919752D01*
X182161692Y-81910500D01*
X192676276Y-81910500D01*
X192743315Y-81930185D01*
X192789070Y-81982989D01*
X192799014Y-82052147D01*
X192776594Y-82107386D01*
X192728768Y-82173211D01*
X192650128Y-82327552D01*
X192596597Y-82492302D01*
X192569500Y-82663389D01*
X192569500Y-82836611D01*
X192596598Y-83007701D01*
X192650127Y-83172445D01*
X192728768Y-83326788D01*
X192830586Y-83466928D01*
X192953072Y-83589414D01*
X193093212Y-83691232D01*
X193247555Y-83769873D01*
X193412299Y-83823402D01*
X193583389Y-83850500D01*
X193583390Y-83850500D01*
X193756610Y-83850500D01*
X193756611Y-83850500D01*
X193927701Y-83823402D01*
X194092445Y-83769873D01*
X194246788Y-83691232D01*
X194386928Y-83589414D01*
X194509414Y-83466928D01*
X194611232Y-83326788D01*
X194689873Y-83172445D01*
X194743402Y-83007701D01*
X194770500Y-82836611D01*
X194770500Y-82663389D01*
X194743402Y-82492299D01*
X194689873Y-82327555D01*
X194611232Y-82173212D01*
X194563405Y-82107384D01*
X194539926Y-82041580D01*
X194555751Y-81973526D01*
X194605857Y-81924831D01*
X194663724Y-81910500D01*
X197009903Y-81910500D01*
X197076942Y-81930185D01*
X197097584Y-81946819D01*
X197613181Y-82462416D01*
X197646666Y-82523739D01*
X197649500Y-82550097D01*
X197649500Y-83397870D01*
X197649501Y-83397876D01*
X197655908Y-83457483D01*
X197706202Y-83592328D01*
X197706206Y-83592335D01*
X197792452Y-83707544D01*
X197792455Y-83707547D01*
X197907664Y-83793793D01*
X197907671Y-83793797D01*
X198042517Y-83844091D01*
X198042516Y-83844091D01*
X198049444Y-83844835D01*
X198102127Y-83850500D01*
X199397872Y-83850499D01*
X199457483Y-83844091D01*
X199592331Y-83793796D01*
X199707546Y-83707546D01*
X199793796Y-83592331D01*
X199844091Y-83457483D01*
X199850500Y-83397873D01*
X199850499Y-82102128D01*
X199844091Y-82042517D01*
X199842106Y-82037196D01*
X199793797Y-81907671D01*
X199793793Y-81907664D01*
X199707547Y-81792455D01*
X199707544Y-81792452D01*
X199592335Y-81706206D01*
X199592328Y-81706202D01*
X199457482Y-81655908D01*
X199457483Y-81655908D01*
X199397883Y-81649501D01*
X199397881Y-81649500D01*
X199397873Y-81649500D01*
X199397865Y-81649500D01*
X198550098Y-81649500D01*
X198483059Y-81629815D01*
X198462417Y-81613181D01*
X197797590Y-80948355D01*
X197797588Y-80948352D01*
X197678717Y-80829481D01*
X197678716Y-80829480D01*
X197591904Y-80779360D01*
X197591904Y-80779359D01*
X197591900Y-80779358D01*
X197541785Y-80750423D01*
X197389057Y-80709499D01*
X197230943Y-80709499D01*
X197223347Y-80709499D01*
X197223331Y-80709500D01*
X182161692Y-80709500D01*
X182094653Y-80689815D01*
X182060119Y-80656625D01*
X181930047Y-80470861D01*
X181930045Y-80470858D01*
X181769141Y-80309954D01*
X181582734Y-80179432D01*
X181582732Y-80179431D01*
X181376497Y-80083261D01*
X181376488Y-80083258D01*
X181156697Y-80024366D01*
X181156687Y-80024364D01*
X180986785Y-80009500D01*
X180986784Y-80009500D01*
X179432352Y-80009500D01*
X179227648Y-80009500D01*
X179227644Y-80009500D01*
X179175697Y-80017728D01*
X179175695Y-80017728D01*
X179171410Y-80018406D01*
X179103308Y-80024365D01*
X179059245Y-80036170D01*
X179052841Y-80037185D01*
X179052824Y-80037189D01*
X179025463Y-80041523D01*
X179025459Y-80041524D01*
X178963627Y-80061615D01*
X178957404Y-80063459D01*
X178883504Y-80083261D01*
X178883503Y-80083261D01*
X178859338Y-80094529D01*
X178859337Y-80094528D01*
X178852456Y-80097736D01*
X178830781Y-80104780D01*
X178759886Y-80140901D01*
X178757900Y-80141828D01*
X178757882Y-80141838D01*
X178677262Y-80179433D01*
X178665655Y-80187559D01*
X178665656Y-80187560D01*
X178658549Y-80192535D01*
X178648390Y-80197713D01*
X178574870Y-80251126D01*
X178573939Y-80251779D01*
X178490859Y-80309954D01*
X178329954Y-80470859D01*
X178271781Y-80553934D01*
X178271782Y-80553935D01*
X178271132Y-80554863D01*
X178217713Y-80628390D01*
X178212535Y-80638550D01*
X178207560Y-80645656D01*
X178207558Y-80645656D01*
X178199433Y-80657262D01*
X178161838Y-80737882D01*
X178160920Y-80739849D01*
X178124780Y-80810781D01*
X178117735Y-80832458D01*
X178114532Y-80839329D01*
X178114529Y-80839338D01*
X178103261Y-80863503D01*
X178103261Y-80863504D01*
X178083459Y-80937404D01*
X178083458Y-80937403D01*
X178082614Y-80940551D01*
X178061523Y-81005466D01*
X178056175Y-81039224D01*
X178054492Y-81045507D01*
X178054492Y-81045511D01*
X178044366Y-81083304D01*
X178044364Y-81083313D01*
X178038783Y-81147106D01*
X178037942Y-81153954D01*
X178037941Y-81154301D01*
X178037837Y-81155007D01*
X178029500Y-81207648D01*
X178029500Y-81412352D01*
X178038406Y-81468582D01*
X178044365Y-81536692D01*
X178056171Y-81580756D01*
X178057188Y-81587175D01*
X178057190Y-81587181D01*
X178061521Y-81614525D01*
X178061522Y-81614530D01*
X178081617Y-81676378D01*
X178083460Y-81682600D01*
X178103260Y-81756494D01*
X178114529Y-81780662D01*
X178115231Y-81782167D01*
X178117733Y-81787532D01*
X178124780Y-81809219D01*
X178160930Y-81880169D01*
X178161844Y-81882128D01*
X178199432Y-81962734D01*
X178207562Y-81974346D01*
X178212535Y-81981448D01*
X178217713Y-81991610D01*
X178271164Y-82065180D01*
X178271793Y-82066078D01*
X178329953Y-82149140D01*
X178490858Y-82310045D01*
X178490861Y-82310047D01*
X178574800Y-82368821D01*
X178648390Y-82422287D01*
X178658547Y-82427462D01*
X178665648Y-82432434D01*
X178665652Y-82432436D01*
X178677266Y-82440568D01*
X178677270Y-82440570D01*
X178735272Y-82467617D01*
X178745927Y-82476999D01*
X178759131Y-82482224D01*
X178771629Y-82499629D01*
X178787712Y-82513789D01*
X178791604Y-82527444D01*
X178799886Y-82538977D01*
X178800990Y-82560375D01*
X178806864Y-82580982D01*
X178802755Y-82594573D01*
X178803488Y-82608754D01*
X178792848Y-82627352D01*
X178786649Y-82647864D01*
X178775167Y-82658259D01*
X178768794Y-82669401D01*
X178744369Y-82686145D01*
X178740126Y-82689988D01*
X178737711Y-82691244D01*
X178677266Y-82719432D01*
X178659002Y-82732219D01*
X178651792Y-82735973D01*
X178651591Y-82736012D01*
X178650847Y-82736460D01*
X178648397Y-82737708D01*
X178648394Y-82737710D01*
X178575696Y-82790526D01*
X178573939Y-82791779D01*
X178490859Y-82849954D01*
X178329954Y-83010859D01*
X178271781Y-83093934D01*
X178271782Y-83093935D01*
X178271132Y-83094863D01*
X178217713Y-83168390D01*
X178212535Y-83178550D01*
X178207560Y-83185656D01*
X178207558Y-83185656D01*
X178199433Y-83197262D01*
X178161838Y-83277882D01*
X178160920Y-83279849D01*
X178124780Y-83350781D01*
X178117735Y-83372458D01*
X178114532Y-83379329D01*
X178114529Y-83379338D01*
X178103261Y-83403503D01*
X178103261Y-83403504D01*
X178083459Y-83477404D01*
X178083458Y-83477403D01*
X178082614Y-83480551D01*
X178061523Y-83545466D01*
X178056175Y-83579224D01*
X178054492Y-83585507D01*
X178054492Y-83585511D01*
X178044366Y-83623304D01*
X178044364Y-83623313D01*
X178038783Y-83687106D01*
X178037728Y-83695697D01*
X178029500Y-83747643D01*
X178029500Y-83747648D01*
X178029500Y-83952352D01*
X178038406Y-84008582D01*
X178044365Y-84076692D01*
X178056171Y-84120756D01*
X178057188Y-84127175D01*
X178057190Y-84127181D01*
X178061521Y-84154525D01*
X178061522Y-84154530D01*
X178081617Y-84216378D01*
X178083460Y-84222600D01*
X178103260Y-84296494D01*
X178114529Y-84320662D01*
X178114567Y-84320743D01*
X178117733Y-84327532D01*
X178124780Y-84349219D01*
X178160930Y-84420169D01*
X178161844Y-84422128D01*
X178199432Y-84502734D01*
X178207562Y-84514346D01*
X178212535Y-84521448D01*
X178217713Y-84531610D01*
X178271164Y-84605180D01*
X178271793Y-84606078D01*
X178329953Y-84689140D01*
X178490858Y-84850045D01*
X178557379Y-84896623D01*
X178601004Y-84951199D01*
X178608198Y-85020698D01*
X178576676Y-85083052D01*
X178516922Y-85118346D01*
X178496976Y-85123436D01*
X178496962Y-85123441D01*
X178440415Y-85146863D01*
X179200589Y-85907037D01*
X179137007Y-85924075D01*
X179022993Y-85989901D01*
X178929901Y-86082993D01*
X178864075Y-86197007D01*
X178830000Y-86324174D01*
X178830000Y-86455826D01*
X178864075Y-86582993D01*
X178929901Y-86697007D01*
X179022993Y-86790099D01*
X179137007Y-86855925D01*
X179200588Y-86872961D01*
X178440414Y-87633135D01*
X178496960Y-87656557D01*
X178496965Y-87656559D01*
X178525159Y-87666505D01*
X178581832Y-87707370D01*
X178607415Y-87772388D01*
X178593786Y-87840915D01*
X178555035Y-87885016D01*
X178490859Y-87929954D01*
X178329954Y-88090859D01*
X178271781Y-88173934D01*
X178271782Y-88173935D01*
X178271132Y-88174863D01*
X178217713Y-88248390D01*
X178212535Y-88258550D01*
X178207560Y-88265656D01*
X178207558Y-88265656D01*
X178199433Y-88277262D01*
X178161838Y-88357882D01*
X178160920Y-88359849D01*
X178124780Y-88430781D01*
X178117735Y-88452458D01*
X178114532Y-88459329D01*
X178114529Y-88459338D01*
X178103261Y-88483503D01*
X178103261Y-88483504D01*
X178083459Y-88557404D01*
X178083458Y-88557403D01*
X178082614Y-88560551D01*
X178061523Y-88625466D01*
X178056175Y-88659224D01*
X178054492Y-88665507D01*
X178054492Y-88665511D01*
X178044366Y-88703304D01*
X178044364Y-88703313D01*
X178038783Y-88767106D01*
X178037728Y-88775697D01*
X178029500Y-88827643D01*
X178029500Y-88827648D01*
X178029500Y-89032352D01*
X178038406Y-89088582D01*
X178044365Y-89156692D01*
X178056171Y-89200756D01*
X178057188Y-89207175D01*
X178057190Y-89207181D01*
X178061521Y-89234525D01*
X178061522Y-89234530D01*
X178081617Y-89296378D01*
X178083460Y-89302600D01*
X178103260Y-89376494D01*
X178114529Y-89400662D01*
X178117733Y-89407532D01*
X178124780Y-89429219D01*
X178160930Y-89500169D01*
X178161844Y-89502128D01*
X178199432Y-89582734D01*
X178207562Y-89594346D01*
X178212535Y-89601448D01*
X178217713Y-89611610D01*
X178271164Y-89685180D01*
X178271793Y-89686078D01*
X178329953Y-89769140D01*
X178490858Y-89930045D01*
X178490861Y-89930047D01*
X178574800Y-89988821D01*
X178648390Y-90042287D01*
X178658547Y-90047462D01*
X178665648Y-90052434D01*
X178665652Y-90052436D01*
X178677266Y-90060568D01*
X178677270Y-90060570D01*
X178735272Y-90087617D01*
X178745927Y-90096999D01*
X178759131Y-90102224D01*
X178771629Y-90119629D01*
X178787712Y-90133789D01*
X178791604Y-90147444D01*
X178799886Y-90158977D01*
X178800990Y-90180375D01*
X178806864Y-90200982D01*
X178802755Y-90214573D01*
X178803488Y-90228754D01*
X178792848Y-90247352D01*
X178786649Y-90267864D01*
X178775167Y-90278259D01*
X178768794Y-90289401D01*
X178744369Y-90306145D01*
X178740126Y-90309988D01*
X178737711Y-90311244D01*
X178677266Y-90339432D01*
X178659002Y-90352219D01*
X178651792Y-90355973D01*
X178651591Y-90356012D01*
X178650847Y-90356460D01*
X178648397Y-90357708D01*
X178648394Y-90357710D01*
X178575696Y-90410526D01*
X178573939Y-90411779D01*
X178490859Y-90469954D01*
X178329954Y-90630859D01*
X178271781Y-90713934D01*
X178271782Y-90713935D01*
X178271132Y-90714863D01*
X178217713Y-90788390D01*
X178212535Y-90798550D01*
X178207560Y-90805656D01*
X178207558Y-90805656D01*
X178199433Y-90817262D01*
X178161838Y-90897882D01*
X178160920Y-90899849D01*
X178124780Y-90970781D01*
X178117735Y-90992458D01*
X178114532Y-90999329D01*
X178114529Y-90999338D01*
X178103261Y-91023503D01*
X178103261Y-91023504D01*
X178083459Y-91097404D01*
X178083458Y-91097403D01*
X178082614Y-91100551D01*
X178061523Y-91165466D01*
X178056175Y-91199224D01*
X178054492Y-91205507D01*
X178054492Y-91205511D01*
X178044366Y-91243304D01*
X178044364Y-91243313D01*
X178038783Y-91307106D01*
X178037728Y-91315697D01*
X178029500Y-91367643D01*
X178029500Y-91367648D01*
X178029500Y-91572352D01*
X178038406Y-91628582D01*
X178044365Y-91696692D01*
X178056171Y-91740756D01*
X178057188Y-91747175D01*
X178057190Y-91747181D01*
X178061521Y-91774525D01*
X178061522Y-91774530D01*
X178081617Y-91836378D01*
X178083460Y-91842600D01*
X178103260Y-91916494D01*
X178114529Y-91940662D01*
X178117733Y-91947532D01*
X178124780Y-91969219D01*
X178160930Y-92040169D01*
X178161844Y-92042128D01*
X178199432Y-92122734D01*
X178207562Y-92134346D01*
X178212535Y-92141448D01*
X178217713Y-92151610D01*
X178271164Y-92225180D01*
X178271793Y-92226078D01*
X178329953Y-92309140D01*
X178490858Y-92470045D01*
X178490861Y-92470047D01*
X178574800Y-92528821D01*
X178648390Y-92582287D01*
X178658547Y-92587462D01*
X178665648Y-92592434D01*
X178665652Y-92592436D01*
X178677266Y-92600568D01*
X178677270Y-92600570D01*
X178735272Y-92627617D01*
X178745927Y-92636999D01*
X178759131Y-92642224D01*
X178771629Y-92659629D01*
X178787712Y-92673789D01*
X178791604Y-92687444D01*
X178799886Y-92698977D01*
X178800990Y-92720375D01*
X178806864Y-92740982D01*
X178802755Y-92754573D01*
X178803488Y-92768754D01*
X178792848Y-92787352D01*
X178786649Y-92807864D01*
X178775167Y-92818259D01*
X178768794Y-92829401D01*
X178744369Y-92846145D01*
X178740126Y-92849988D01*
X178737711Y-92851244D01*
X178677266Y-92879432D01*
X178659002Y-92892219D01*
X178651792Y-92895973D01*
X178651591Y-92896012D01*
X178650847Y-92896460D01*
X178648397Y-92897708D01*
X178648394Y-92897710D01*
X178575696Y-92950526D01*
X178573939Y-92951779D01*
X178490859Y-93009954D01*
X178329954Y-93170859D01*
X178271781Y-93253934D01*
X178271782Y-93253935D01*
X178271132Y-93254863D01*
X178217713Y-93328390D01*
X178212535Y-93338550D01*
X178207560Y-93345656D01*
X178207558Y-93345656D01*
X178199433Y-93357262D01*
X178161838Y-93437882D01*
X178160920Y-93439849D01*
X178124780Y-93510781D01*
X178117735Y-93532458D01*
X178114532Y-93539329D01*
X178114529Y-93539338D01*
X178103261Y-93563503D01*
X178103261Y-93563504D01*
X178083459Y-93637404D01*
X178083458Y-93637403D01*
X178082614Y-93640551D01*
X178061523Y-93705466D01*
X178056175Y-93739224D01*
X178054492Y-93745507D01*
X178054492Y-93745511D01*
X178044366Y-93783304D01*
X178044364Y-93783313D01*
X178038783Y-93847106D01*
X178037728Y-93855697D01*
X178029500Y-93907643D01*
X178029500Y-93907648D01*
X178029500Y-94112352D01*
X178038406Y-94168582D01*
X178044365Y-94236692D01*
X178056171Y-94280756D01*
X178057188Y-94287175D01*
X178057190Y-94287181D01*
X178061521Y-94314525D01*
X178061522Y-94314530D01*
X178081617Y-94376378D01*
X178083460Y-94382600D01*
X178103260Y-94456494D01*
X178114529Y-94480662D01*
X178117733Y-94487532D01*
X178124780Y-94509219D01*
X178160930Y-94580169D01*
X178161844Y-94582128D01*
X178199432Y-94662734D01*
X178207562Y-94674346D01*
X178212535Y-94681448D01*
X178217713Y-94691610D01*
X178271164Y-94765180D01*
X178271793Y-94766078D01*
X178329953Y-94849140D01*
X178490858Y-95010045D01*
X178490861Y-95010047D01*
X178574800Y-95068821D01*
X178648390Y-95122287D01*
X178658547Y-95127462D01*
X178665648Y-95132434D01*
X178665652Y-95132436D01*
X178677266Y-95140568D01*
X178677270Y-95140570D01*
X178735272Y-95167617D01*
X178745927Y-95176999D01*
X178759131Y-95182224D01*
X178771629Y-95199629D01*
X178787712Y-95213789D01*
X178791604Y-95227444D01*
X178799886Y-95238977D01*
X178800990Y-95260375D01*
X178806864Y-95280982D01*
X178802755Y-95294573D01*
X178803488Y-95308754D01*
X178792848Y-95327352D01*
X178786649Y-95347864D01*
X178775167Y-95358259D01*
X178768794Y-95369401D01*
X178744369Y-95386145D01*
X178740126Y-95389988D01*
X178737711Y-95391244D01*
X178677266Y-95419432D01*
X178659002Y-95432219D01*
X178651792Y-95435973D01*
X178651591Y-95436012D01*
X178650847Y-95436460D01*
X178648397Y-95437708D01*
X178648394Y-95437710D01*
X178575696Y-95490526D01*
X178573939Y-95491779D01*
X178490859Y-95549954D01*
X178329954Y-95710859D01*
X178271781Y-95793934D01*
X178271782Y-95793935D01*
X178271132Y-95794863D01*
X178217713Y-95868390D01*
X178212535Y-95878550D01*
X178207560Y-95885656D01*
X178207558Y-95885656D01*
X178199433Y-95897262D01*
X178161838Y-95977882D01*
X178160920Y-95979849D01*
X178124780Y-96050781D01*
X178117735Y-96072458D01*
X178114532Y-96079329D01*
X178114529Y-96079338D01*
X178103261Y-96103503D01*
X178103261Y-96103504D01*
X178083459Y-96177404D01*
X178083458Y-96177403D01*
X178082614Y-96180551D01*
X178061523Y-96245466D01*
X178056175Y-96279224D01*
X178054492Y-96285507D01*
X178054492Y-96285511D01*
X178044366Y-96323304D01*
X178044364Y-96323313D01*
X178038783Y-96387106D01*
X178037728Y-96395697D01*
X178029500Y-96447643D01*
X178029500Y-96447648D01*
X178029500Y-96652352D01*
X178038406Y-96708582D01*
X178044365Y-96776692D01*
X178056171Y-96820756D01*
X178057188Y-96827175D01*
X178057190Y-96827181D01*
X178061521Y-96854525D01*
X178061522Y-96854530D01*
X178081617Y-96916378D01*
X178083460Y-96922600D01*
X178103260Y-96996494D01*
X178114529Y-97020662D01*
X178117733Y-97027532D01*
X178124780Y-97049219D01*
X178160930Y-97120169D01*
X178161844Y-97122128D01*
X178199432Y-97202734D01*
X178207562Y-97214346D01*
X178212535Y-97221448D01*
X178217713Y-97231610D01*
X178271164Y-97305180D01*
X178271793Y-97306078D01*
X178329953Y-97389140D01*
X178490857Y-97550044D01*
X178490860Y-97550046D01*
X178490861Y-97550047D01*
X178556843Y-97596248D01*
X178600469Y-97650824D01*
X178607663Y-97720322D01*
X178576141Y-97782677D01*
X178516391Y-97817970D01*
X178496780Y-97822975D01*
X178496766Y-97822980D01*
X178423280Y-97853419D01*
X178423252Y-97853431D01*
X178374451Y-97876779D01*
X178374446Y-97876782D01*
X178259268Y-97963005D01*
X178259256Y-97963015D01*
X178203019Y-98019252D01*
X178166843Y-98059524D01*
X178166837Y-98059532D01*
X178093426Y-98183263D01*
X178062978Y-98256774D01*
X178062970Y-98256795D01*
X178044976Y-98307800D01*
X178024500Y-98450219D01*
X162855000Y-98450219D01*
X162854999Y-98450204D01*
X162852106Y-98396237D01*
X162852106Y-98396235D01*
X162816561Y-98256969D01*
X162816559Y-98256962D01*
X162793135Y-98200414D01*
X162153551Y-98839999D01*
X161983011Y-98839999D01*
X161950099Y-98782993D01*
X161857007Y-98689901D01*
X161742993Y-98624075D01*
X161679410Y-98607037D01*
X162439584Y-97846862D01*
X162383059Y-97823449D01*
X162383048Y-97823445D01*
X162354833Y-97813491D01*
X162298162Y-97772624D01*
X162272581Y-97707605D01*
X162286213Y-97639078D01*
X162324963Y-97594982D01*
X162389139Y-97550047D01*
X162550047Y-97389139D01*
X162608821Y-97305199D01*
X162662287Y-97231610D01*
X162667465Y-97221446D01*
X162680568Y-97202734D01*
X162719067Y-97120172D01*
X162755220Y-97049219D01*
X162762266Y-97027532D01*
X162776739Y-96996496D01*
X162776742Y-96996488D01*
X162796534Y-96922617D01*
X162797377Y-96919471D01*
X162818477Y-96854534D01*
X162823825Y-96820766D01*
X162835635Y-96776692D01*
X162841215Y-96712892D01*
X162842270Y-96704306D01*
X162850500Y-96652350D01*
X162850500Y-96447649D01*
X162842270Y-96395691D01*
X162842270Y-96395690D01*
X162841592Y-96391414D01*
X162835635Y-96323308D01*
X162823825Y-96279233D01*
X162818477Y-96245466D01*
X162798378Y-96183609D01*
X162796535Y-96177386D01*
X162776742Y-96103513D01*
X162776740Y-96103510D01*
X162776739Y-96103504D01*
X162762266Y-96072467D01*
X162755220Y-96050781D01*
X162719067Y-95979827D01*
X162680568Y-95897266D01*
X162672436Y-95885652D01*
X162672436Y-95885651D01*
X162667462Y-95878548D01*
X162662287Y-95868390D01*
X162608821Y-95794800D01*
X162608215Y-95793935D01*
X162608205Y-95793920D01*
X162550045Y-95710858D01*
X162389140Y-95549953D01*
X162306078Y-95491793D01*
X162305180Y-95491164D01*
X162231610Y-95437713D01*
X162221448Y-95432535D01*
X162214346Y-95427562D01*
X162202736Y-95419433D01*
X162202727Y-95419429D01*
X162144723Y-95392380D01*
X162134066Y-95382996D01*
X162120866Y-95377773D01*
X162108368Y-95360369D01*
X162092285Y-95346208D01*
X162088393Y-95332552D01*
X162080112Y-95321021D01*
X162079007Y-95299621D01*
X162073134Y-95279014D01*
X162077241Y-95265423D01*
X162076510Y-95251244D01*
X162087149Y-95232644D01*
X162093350Y-95212133D01*
X162104830Y-95201737D01*
X162111204Y-95190597D01*
X162135623Y-95173856D01*
X162139872Y-95170010D01*
X162142252Y-95168770D01*
X162202734Y-95140568D01*
X162221002Y-95127775D01*
X162228207Y-95124025D01*
X162228416Y-95123983D01*
X162229180Y-95123524D01*
X162231610Y-95122287D01*
X162304358Y-95069432D01*
X162306047Y-95068227D01*
X162389139Y-95010047D01*
X162550047Y-94849139D01*
X162608821Y-94765199D01*
X162662287Y-94691610D01*
X162667465Y-94681446D01*
X162680568Y-94662734D01*
X162719067Y-94580172D01*
X162755220Y-94509219D01*
X162762266Y-94487532D01*
X162776739Y-94456496D01*
X162776742Y-94456488D01*
X162796534Y-94382617D01*
X162797377Y-94379471D01*
X162818477Y-94314534D01*
X162823825Y-94280766D01*
X162835635Y-94236692D01*
X162841215Y-94172892D01*
X162842270Y-94164306D01*
X162844616Y-94149500D01*
X162850500Y-94112352D01*
X162850500Y-93907648D01*
X162841593Y-93851417D01*
X162835635Y-93783308D01*
X162823825Y-93739233D01*
X162818477Y-93705466D01*
X162798378Y-93643609D01*
X162796535Y-93637386D01*
X162776742Y-93563513D01*
X162776740Y-93563510D01*
X162776739Y-93563504D01*
X162762266Y-93532467D01*
X162755220Y-93510781D01*
X162719067Y-93439827D01*
X162680568Y-93357266D01*
X162672436Y-93345652D01*
X162672436Y-93345651D01*
X162667462Y-93338548D01*
X162662287Y-93328390D01*
X162608821Y-93254800D01*
X162608215Y-93253935D01*
X162608205Y-93253920D01*
X162550045Y-93170858D01*
X162389140Y-93009953D01*
X162306078Y-92951793D01*
X162305180Y-92951164D01*
X162231610Y-92897713D01*
X162221448Y-92892535D01*
X162214346Y-92887562D01*
X162202736Y-92879433D01*
X162202727Y-92879429D01*
X162144723Y-92852380D01*
X162134066Y-92842996D01*
X162120866Y-92837773D01*
X162108368Y-92820369D01*
X162092285Y-92806208D01*
X162088393Y-92792552D01*
X162080112Y-92781021D01*
X162079007Y-92759621D01*
X162073134Y-92739014D01*
X162077241Y-92725423D01*
X162076510Y-92711244D01*
X162087149Y-92692644D01*
X162093350Y-92672133D01*
X162104830Y-92661737D01*
X162111204Y-92650597D01*
X162135623Y-92633856D01*
X162139872Y-92630010D01*
X162142252Y-92628770D01*
X162202734Y-92600568D01*
X162221002Y-92587775D01*
X162228207Y-92584025D01*
X162228416Y-92583983D01*
X162229180Y-92583524D01*
X162231610Y-92582287D01*
X162304358Y-92529432D01*
X162306047Y-92528227D01*
X162389139Y-92470047D01*
X162550047Y-92309139D01*
X162608821Y-92225199D01*
X162662287Y-92151610D01*
X162667465Y-92141446D01*
X162680568Y-92122734D01*
X162719067Y-92040172D01*
X162755220Y-91969219D01*
X162762266Y-91947532D01*
X162776739Y-91916496D01*
X162776742Y-91916488D01*
X162796534Y-91842617D01*
X162797377Y-91839471D01*
X162818477Y-91774534D01*
X162823825Y-91740766D01*
X162835635Y-91696692D01*
X162841215Y-91632892D01*
X162842270Y-91624306D01*
X162850500Y-91572350D01*
X162850500Y-91367649D01*
X162842270Y-91315691D01*
X162842270Y-91315690D01*
X162841592Y-91311414D01*
X162835635Y-91243308D01*
X162823825Y-91199233D01*
X162818477Y-91165466D01*
X162798378Y-91103609D01*
X162796535Y-91097386D01*
X162776742Y-91023513D01*
X162776740Y-91023510D01*
X162776739Y-91023504D01*
X162762266Y-90992467D01*
X162755220Y-90970781D01*
X162719067Y-90899827D01*
X162680568Y-90817266D01*
X162672436Y-90805652D01*
X162672436Y-90805651D01*
X162667462Y-90798548D01*
X162662287Y-90788390D01*
X162608821Y-90714800D01*
X162608215Y-90713935D01*
X162608205Y-90713920D01*
X162550045Y-90630858D01*
X162389140Y-90469953D01*
X162306078Y-90411793D01*
X162305180Y-90411164D01*
X162231610Y-90357713D01*
X162221448Y-90352535D01*
X162214346Y-90347562D01*
X162202736Y-90339433D01*
X162202727Y-90339429D01*
X162144723Y-90312380D01*
X162134066Y-90302996D01*
X162120866Y-90297773D01*
X162108368Y-90280369D01*
X162092285Y-90266208D01*
X162088393Y-90252552D01*
X162080112Y-90241021D01*
X162079007Y-90219621D01*
X162073134Y-90199014D01*
X162077241Y-90185423D01*
X162076510Y-90171244D01*
X162087149Y-90152644D01*
X162093350Y-90132133D01*
X162104830Y-90121737D01*
X162111204Y-90110597D01*
X162135623Y-90093856D01*
X162139872Y-90090010D01*
X162142252Y-90088770D01*
X162202734Y-90060568D01*
X162221002Y-90047775D01*
X162228207Y-90044025D01*
X162228416Y-90043983D01*
X162229180Y-90043524D01*
X162231610Y-90042287D01*
X162304358Y-89989432D01*
X162306047Y-89988227D01*
X162389139Y-89930047D01*
X162550047Y-89769139D01*
X162608821Y-89685199D01*
X162662287Y-89611610D01*
X162667465Y-89601446D01*
X162680568Y-89582734D01*
X162719067Y-89500172D01*
X162755220Y-89429219D01*
X162762266Y-89407532D01*
X162776739Y-89376496D01*
X162776742Y-89376488D01*
X162796534Y-89302617D01*
X162797377Y-89299471D01*
X162818477Y-89234534D01*
X162823825Y-89200766D01*
X162835635Y-89156692D01*
X162841215Y-89092892D01*
X162842270Y-89084306D01*
X162850500Y-89032350D01*
X162850500Y-88827649D01*
X162842270Y-88775691D01*
X162842270Y-88775690D01*
X162841592Y-88771414D01*
X162835635Y-88703308D01*
X162823825Y-88659233D01*
X162818477Y-88625466D01*
X162798378Y-88563609D01*
X162796535Y-88557386D01*
X162793733Y-88546930D01*
X162793072Y-88544462D01*
X162776742Y-88483513D01*
X162776740Y-88483510D01*
X162776739Y-88483504D01*
X162762266Y-88452467D01*
X162755220Y-88430781D01*
X162719067Y-88359827D01*
X162680568Y-88277266D01*
X162672436Y-88265652D01*
X162672436Y-88265651D01*
X162667462Y-88258548D01*
X162662287Y-88248390D01*
X162608821Y-88174800D01*
X162608215Y-88173935D01*
X162608205Y-88173920D01*
X162550045Y-88090858D01*
X162389143Y-87929956D01*
X162389137Y-87929952D01*
X162322620Y-87883376D01*
X162278996Y-87828799D01*
X162271803Y-87759300D01*
X162303325Y-87696946D01*
X162363082Y-87661652D01*
X162383040Y-87656558D01*
X162439584Y-87633136D01*
X162439584Y-87633135D01*
X162382107Y-87575658D01*
X162296448Y-87489999D01*
X166990000Y-87489999D01*
X166990000Y-94890000D01*
X166992138Y-94955541D01*
X166992138Y-94955544D01*
X166992139Y-94955545D01*
X167026068Y-95082167D01*
X167091612Y-95195694D01*
X167184306Y-95288388D01*
X167297833Y-95353932D01*
X167424455Y-95387861D01*
X167490000Y-95390000D01*
X168390000Y-95390000D01*
X168455545Y-95387861D01*
X168582167Y-95353932D01*
X168695694Y-95288388D01*
X168788388Y-95195694D01*
X168853932Y-95082167D01*
X168887861Y-94955545D01*
X168890000Y-94890000D01*
X168890000Y-91190000D01*
X168890000Y-87490000D01*
X168887861Y-87424455D01*
X168853933Y-87297833D01*
X168788388Y-87184306D01*
X168695694Y-87091612D01*
X168588607Y-87029785D01*
X178025000Y-87029785D01*
X178027893Y-87083762D01*
X178027893Y-87083764D01*
X178063438Y-87223030D01*
X178063442Y-87223043D01*
X178086862Y-87279584D01*
X178726448Y-86640000D01*
X178025000Y-86640000D01*
X178025000Y-87029785D01*
X168588607Y-87029785D01*
X168582167Y-87026067D01*
X168455545Y-86992139D01*
X168390000Y-86990000D01*
X167490000Y-86990000D01*
X167424455Y-86992139D01*
X167297833Y-87026067D01*
X167297831Y-87026067D01*
X167297831Y-87026068D01*
X167184306Y-87091612D01*
X167184303Y-87091614D01*
X167091614Y-87184303D01*
X167091612Y-87184306D01*
X167051830Y-87253211D01*
X167026067Y-87297833D01*
X167012397Y-87348851D01*
X166992139Y-87424455D01*
X166990000Y-87489999D01*
X162296448Y-87489999D01*
X161679410Y-86872962D01*
X161742993Y-86855925D01*
X161857007Y-86790099D01*
X161950099Y-86697007D01*
X161983012Y-86640000D01*
X162153551Y-86640000D01*
X162793135Y-87279584D01*
X162793136Y-87279584D01*
X162816552Y-87223053D01*
X162834544Y-87172053D01*
X162854999Y-87029780D01*
X162855000Y-87029779D01*
X162855000Y-86640000D01*
X162153551Y-86640000D01*
X161983012Y-86640000D01*
X162015925Y-86582993D01*
X162050000Y-86455826D01*
X162050000Y-86324174D01*
X162015925Y-86197007D01*
X161983011Y-86139999D01*
X162153551Y-86139999D01*
X162153552Y-86140000D01*
X162855000Y-86140000D01*
X162855000Y-85750219D01*
X178025000Y-85750219D01*
X178025000Y-86140000D01*
X178726448Y-86140000D01*
X178726448Y-86139999D01*
X178086863Y-85500414D01*
X178086862Y-85500415D01*
X178063446Y-85556947D01*
X178063431Y-85556987D01*
X178045457Y-85607939D01*
X178045455Y-85607946D01*
X178025000Y-85750219D01*
X162855000Y-85750219D01*
X162855000Y-85750214D01*
X162852106Y-85696237D01*
X162852106Y-85696235D01*
X162816561Y-85556969D01*
X162816559Y-85556962D01*
X162793135Y-85500414D01*
X162153551Y-86139999D01*
X161983011Y-86139999D01*
X161950099Y-86082993D01*
X161857007Y-85989901D01*
X161742993Y-85924075D01*
X161679410Y-85907037D01*
X162439584Y-85146862D01*
X162383059Y-85123449D01*
X162383048Y-85123445D01*
X162354833Y-85113491D01*
X162298162Y-85072624D01*
X162272581Y-85007605D01*
X162286213Y-84939078D01*
X162324963Y-84894982D01*
X162389139Y-84850047D01*
X162550047Y-84689139D01*
X162608821Y-84605199D01*
X162662287Y-84531610D01*
X162667465Y-84521446D01*
X162680568Y-84502734D01*
X162719067Y-84420172D01*
X162740817Y-84377486D01*
X166839500Y-84377486D01*
X166839500Y-84562514D01*
X166846403Y-84606095D01*
X166868445Y-84745264D01*
X166925619Y-84921232D01*
X166925620Y-84921235D01*
X166991722Y-85050966D01*
X167009622Y-85086096D01*
X167118379Y-85235787D01*
X167249213Y-85366621D01*
X167398904Y-85475378D01*
X167448040Y-85500414D01*
X167563764Y-85559379D01*
X167563767Y-85559380D01*
X167651750Y-85587967D01*
X167739736Y-85616555D01*
X167922486Y-85645500D01*
X167922487Y-85645500D01*
X168107513Y-85645500D01*
X168107514Y-85645500D01*
X168290264Y-85616555D01*
X168466235Y-85559379D01*
X168631096Y-85475378D01*
X168780787Y-85366621D01*
X168911621Y-85235787D01*
X169020378Y-85086096D01*
X169104379Y-84921235D01*
X169161555Y-84745264D01*
X169190500Y-84562514D01*
X169190500Y-84377486D01*
X169161555Y-84194736D01*
X169123201Y-84076694D01*
X169106826Y-84026295D01*
X169104380Y-84018767D01*
X169104379Y-84018764D01*
X169089722Y-83989999D01*
X169490000Y-83989999D01*
X169490000Y-84890000D01*
X169492138Y-84955541D01*
X169492138Y-84955544D01*
X169492139Y-84955545D01*
X169526068Y-85082167D01*
X169591612Y-85195694D01*
X169684306Y-85288388D01*
X169797833Y-85353932D01*
X169924455Y-85387861D01*
X169990000Y-85390000D01*
X170890000Y-85390000D01*
X170955545Y-85387861D01*
X171082167Y-85353933D01*
X171195694Y-85288388D01*
X171288388Y-85195694D01*
X171353933Y-85082167D01*
X171387861Y-84955545D01*
X171390000Y-84890000D01*
X171390000Y-84377486D01*
X171689500Y-84377486D01*
X171689500Y-84562514D01*
X171696403Y-84606095D01*
X171718445Y-84745264D01*
X171775619Y-84921232D01*
X171775620Y-84921235D01*
X171841722Y-85050966D01*
X171859622Y-85086096D01*
X171968379Y-85235787D01*
X172099213Y-85366621D01*
X172248904Y-85475378D01*
X172298040Y-85500414D01*
X172413764Y-85559379D01*
X172413767Y-85559380D01*
X172501750Y-85587967D01*
X172589736Y-85616555D01*
X172772486Y-85645500D01*
X172772487Y-85645500D01*
X172957513Y-85645500D01*
X172957514Y-85645500D01*
X173030660Y-85633914D01*
X173097578Y-85623316D01*
X173103847Y-85622322D01*
X173140264Y-85616555D01*
X173316235Y-85559379D01*
X173481096Y-85475378D01*
X173630787Y-85366621D01*
X173761621Y-85235787D01*
X173870378Y-85086096D01*
X173954379Y-84921235D01*
X174011555Y-84745264D01*
X174040500Y-84562514D01*
X174040500Y-84377486D01*
X174011555Y-84194736D01*
X173973201Y-84076694D01*
X173954380Y-84018767D01*
X173954379Y-84018764D01*
X173897322Y-83906784D01*
X173870378Y-83853904D01*
X173761621Y-83704213D01*
X173630787Y-83573379D01*
X173481096Y-83464622D01*
X173467083Y-83457482D01*
X173316235Y-83380620D01*
X173316232Y-83380619D01*
X173140265Y-83323445D01*
X173048889Y-83308972D01*
X172957514Y-83294500D01*
X172772486Y-83294500D01*
X172711569Y-83304148D01*
X172589734Y-83323445D01*
X172413767Y-83380619D01*
X172413764Y-83380620D01*
X172248903Y-83464622D01*
X172211030Y-83492139D01*
X172099213Y-83573379D01*
X172099211Y-83573381D01*
X172099210Y-83573381D01*
X171968381Y-83704210D01*
X171968381Y-83704211D01*
X171968379Y-83704213D01*
X171965957Y-83707547D01*
X171859622Y-83853903D01*
X171775620Y-84018764D01*
X171775619Y-84018767D01*
X171718445Y-84194734D01*
X171693977Y-84349219D01*
X171689500Y-84377486D01*
X171390000Y-84377486D01*
X171390000Y-83990000D01*
X171387861Y-83924455D01*
X171353933Y-83797833D01*
X171288388Y-83684306D01*
X171195694Y-83591612D01*
X171082167Y-83526067D01*
X170955545Y-83492139D01*
X170890000Y-83490000D01*
X170440000Y-83490000D01*
X169990000Y-83490000D01*
X169924458Y-83492138D01*
X169797832Y-83526068D01*
X169684307Y-83591611D01*
X169684304Y-83591613D01*
X169591613Y-83684304D01*
X169591611Y-83684307D01*
X169526068Y-83797832D01*
X169492138Y-83924458D01*
X169490000Y-83989999D01*
X169089722Y-83989999D01*
X169047322Y-83906784D01*
X169020378Y-83853904D01*
X168911621Y-83704213D01*
X168780787Y-83573379D01*
X168631096Y-83464622D01*
X168617083Y-83457482D01*
X168466235Y-83380620D01*
X168466232Y-83380619D01*
X168290265Y-83323445D01*
X168198889Y-83308972D01*
X168107514Y-83294500D01*
X167922486Y-83294500D01*
X167861569Y-83304148D01*
X167739734Y-83323445D01*
X167563767Y-83380619D01*
X167563764Y-83380620D01*
X167398903Y-83464622D01*
X167361030Y-83492139D01*
X167249213Y-83573379D01*
X167249211Y-83573381D01*
X167249210Y-83573381D01*
X167118381Y-83704210D01*
X167118381Y-83704211D01*
X167118379Y-83704213D01*
X167115957Y-83707547D01*
X167009622Y-83853903D01*
X166925620Y-84018764D01*
X166925619Y-84018767D01*
X166868445Y-84194734D01*
X166843977Y-84349219D01*
X166839500Y-84377486D01*
X162740817Y-84377486D01*
X162755220Y-84349219D01*
X162762266Y-84327532D01*
X162765646Y-84320283D01*
X162765664Y-84320262D01*
X162765679Y-84320212D01*
X162776739Y-84296496D01*
X162776742Y-84296488D01*
X162796534Y-84222617D01*
X162797377Y-84219471D01*
X162818477Y-84154534D01*
X162823825Y-84120766D01*
X162835635Y-84076692D01*
X162841215Y-84012892D01*
X162842270Y-84004306D01*
X162844537Y-83989999D01*
X162850500Y-83952352D01*
X162850500Y-83747648D01*
X162841593Y-83691417D01*
X162835635Y-83623308D01*
X162823825Y-83579233D01*
X162818477Y-83545466D01*
X162798378Y-83483609D01*
X162796535Y-83477386D01*
X162793733Y-83466930D01*
X162791202Y-83457482D01*
X162776742Y-83403513D01*
X162776740Y-83403510D01*
X162776739Y-83403504D01*
X162762266Y-83372467D01*
X162755220Y-83350781D01*
X162719067Y-83279827D01*
X162680568Y-83197266D01*
X162672436Y-83185652D01*
X162672436Y-83185651D01*
X162667462Y-83178548D01*
X162662287Y-83168390D01*
X162608821Y-83094800D01*
X162608215Y-83093935D01*
X162608205Y-83093920D01*
X162550045Y-83010858D01*
X162389142Y-82849955D01*
X162380297Y-82843762D01*
X162318515Y-82800502D01*
X162274891Y-82745927D01*
X162267697Y-82676429D01*
X162299219Y-82614074D01*
X162352747Y-82580543D01*
X162439606Y-82553478D01*
X162585185Y-82465472D01*
X162705472Y-82345185D01*
X162793478Y-82199606D01*
X162844086Y-82037196D01*
X162850500Y-81966616D01*
X162850500Y-81445650D01*
X162850613Y-81440347D01*
X162850759Y-81436922D01*
X162855500Y-81388793D01*
X162855500Y-81333713D01*
X166364500Y-81333713D01*
X166364500Y-81546286D01*
X166389828Y-81706204D01*
X166397754Y-81756243D01*
X166459676Y-81946819D01*
X166463444Y-81958414D01*
X166559951Y-82147820D01*
X166684890Y-82319786D01*
X166835213Y-82470109D01*
X167007179Y-82595048D01*
X167007181Y-82595049D01*
X167007184Y-82595051D01*
X167196588Y-82691557D01*
X167398757Y-82757246D01*
X167608713Y-82790500D01*
X167608714Y-82790500D01*
X167821286Y-82790500D01*
X167821287Y-82790500D01*
X168031243Y-82757246D01*
X168233412Y-82691557D01*
X168422816Y-82595051D01*
X168480038Y-82553477D01*
X168594786Y-82470109D01*
X168594788Y-82470106D01*
X168594792Y-82470104D01*
X168745104Y-82319792D01*
X168870051Y-82147816D01*
X168870053Y-82147811D01*
X168872914Y-82143874D01*
X168874013Y-82144672D01*
X168921241Y-82101928D01*
X168979225Y-82089648D01*
X168990000Y-82090000D01*
X168990004Y-82090000D01*
X169890000Y-82090000D01*
X169955545Y-82087861D01*
X170082167Y-82053933D01*
X170195694Y-81988388D01*
X170288388Y-81895694D01*
X170328283Y-81826594D01*
X170378850Y-81778378D01*
X170447457Y-81765155D01*
X170512322Y-81791124D01*
X170543057Y-81826594D01*
X170591609Y-81910690D01*
X170591611Y-81910693D01*
X170591612Y-81910694D01*
X170684306Y-82003388D01*
X170797833Y-82068932D01*
X170924455Y-82102861D01*
X170990000Y-82105000D01*
X171889997Y-82105000D01*
X171890000Y-82105000D01*
X171911066Y-82104312D01*
X171978711Y-82121798D01*
X172015430Y-82155361D01*
X172134890Y-82319786D01*
X172285213Y-82470109D01*
X172457179Y-82595048D01*
X172457181Y-82595049D01*
X172457184Y-82595051D01*
X172646588Y-82691557D01*
X172848757Y-82757246D01*
X173058713Y-82790500D01*
X173058714Y-82790500D01*
X173271286Y-82790500D01*
X173271287Y-82790500D01*
X173481243Y-82757246D01*
X173683412Y-82691557D01*
X173872816Y-82595051D01*
X173930038Y-82553477D01*
X174044786Y-82470109D01*
X174044788Y-82470106D01*
X174044792Y-82470104D01*
X174195104Y-82319792D01*
X174195106Y-82319788D01*
X174195109Y-82319786D01*
X174320048Y-82147820D01*
X174320047Y-82147820D01*
X174320051Y-82147816D01*
X174416557Y-81958412D01*
X174482246Y-81756243D01*
X174515500Y-81546287D01*
X174515500Y-81333713D01*
X174482246Y-81123757D01*
X174416557Y-80921588D01*
X174320051Y-80732184D01*
X174320049Y-80732181D01*
X174320048Y-80732179D01*
X174195109Y-80560213D01*
X174044786Y-80409890D01*
X173872820Y-80284951D01*
X173683414Y-80188444D01*
X173683413Y-80188443D01*
X173683412Y-80188443D01*
X173481243Y-80122754D01*
X173481241Y-80122753D01*
X173481240Y-80122753D01*
X173317257Y-80096781D01*
X173271287Y-80089500D01*
X173058713Y-80089500D01*
X173012743Y-80096781D01*
X172848760Y-80122753D01*
X172646585Y-80188444D01*
X172457181Y-80284950D01*
X172378861Y-80341852D01*
X172313054Y-80365331D01*
X172245000Y-80349504D01*
X172218296Y-80329214D01*
X172195696Y-80306614D01*
X172195694Y-80306612D01*
X172082167Y-80241067D01*
X171955545Y-80207139D01*
X171890000Y-80205000D01*
X171440000Y-80205000D01*
X170990000Y-80205000D01*
X170924458Y-80207138D01*
X170797832Y-80241068D01*
X170684307Y-80306611D01*
X170684304Y-80306613D01*
X170591613Y-80399304D01*
X170591609Y-80399309D01*
X170551717Y-80468405D01*
X170501150Y-80516621D01*
X170432543Y-80529843D01*
X170367678Y-80503875D01*
X170336943Y-80468405D01*
X170299334Y-80403265D01*
X170288388Y-80384306D01*
X170195694Y-80291612D01*
X170082167Y-80226067D01*
X169955545Y-80192139D01*
X169890000Y-80190000D01*
X169440000Y-80190000D01*
X168990000Y-80190000D01*
X168924458Y-80192138D01*
X168797832Y-80226068D01*
X168684307Y-80291611D01*
X168684304Y-80291613D01*
X168653014Y-80322903D01*
X168591690Y-80356388D01*
X168521999Y-80351402D01*
X168492449Y-80335540D01*
X168422815Y-80284948D01*
X168233414Y-80188444D01*
X168233413Y-80188443D01*
X168233412Y-80188443D01*
X168031243Y-80122754D01*
X168031241Y-80122753D01*
X168031240Y-80122753D01*
X167867257Y-80096781D01*
X167821287Y-80089500D01*
X167608713Y-80089500D01*
X167562743Y-80096781D01*
X167398760Y-80122753D01*
X167196585Y-80188444D01*
X167007179Y-80284951D01*
X166835213Y-80409890D01*
X166684890Y-80560213D01*
X166559951Y-80732179D01*
X166463444Y-80921585D01*
X166397753Y-81123760D01*
X166364500Y-81333713D01*
X162855500Y-81333713D01*
X162855500Y-81231207D01*
X162851097Y-81186501D01*
X162850500Y-81174348D01*
X162850500Y-80653386D01*
X162849152Y-80638553D01*
X162844086Y-80582804D01*
X162793478Y-80420394D01*
X162705472Y-80274815D01*
X162705470Y-80274813D01*
X162705469Y-80274811D01*
X162585188Y-80154530D01*
X162564176Y-80141828D01*
X162439606Y-80066522D01*
X162277196Y-80015914D01*
X162277194Y-80015913D01*
X162277192Y-80015913D01*
X162227778Y-80011423D01*
X162206616Y-80009500D01*
X162206613Y-80009500D01*
X161685650Y-80009500D01*
X161673497Y-80008903D01*
X161628793Y-80004500D01*
X159310218Y-80004500D01*
X159310216Y-80004500D01*
X159256185Y-80007395D01*
X159256179Y-80007396D01*
X159120524Y-80042020D01*
X159050699Y-80039526D01*
X158993307Y-79999678D01*
X158966569Y-79935126D01*
X158965868Y-79920445D01*
X158983063Y-78449184D01*
X158992719Y-77623051D01*
X159013186Y-77556246D01*
X159066521Y-77511111D01*
X159116711Y-77500500D01*
X205875500Y-77500500D01*
X205942539Y-77520185D01*
G37*
%TD.AperFunction*%
%TA.AperFunction,Conductor*%
G36*
X161084075Y-124297007D02*
G01*
X161050000Y-124424174D01*
X161050000Y-124555826D01*
X161084075Y-124682993D01*
X161116988Y-124740000D01*
X160874000Y-124740000D01*
X160806961Y-124720315D01*
X160761206Y-124667511D01*
X160750000Y-124616000D01*
X160750000Y-124364000D01*
X160769685Y-124296961D01*
X160822489Y-124251206D01*
X160874000Y-124240000D01*
X161116988Y-124240000D01*
X161084075Y-124297007D01*
G37*
%TD.AperFunction*%
%TA.AperFunction,Conductor*%
G36*
X161084075Y-111597007D02*
G01*
X161050000Y-111724174D01*
X161050000Y-111855826D01*
X161084075Y-111982993D01*
X161116988Y-112040000D01*
X160874000Y-112040000D01*
X160806961Y-112020315D01*
X160761206Y-111967511D01*
X160750000Y-111916000D01*
X160750000Y-111664000D01*
X160769685Y-111596961D01*
X160822489Y-111551206D01*
X160874000Y-111540000D01*
X161116988Y-111540000D01*
X161084075Y-111597007D01*
G37*
%TD.AperFunction*%
%TA.AperFunction,Conductor*%
G36*
X161084075Y-98897007D02*
G01*
X161050000Y-99024174D01*
X161050000Y-99155826D01*
X161084075Y-99282993D01*
X161116988Y-99340000D01*
X160874000Y-99340000D01*
X160806961Y-99320315D01*
X160761206Y-99267511D01*
X160750000Y-99216000D01*
X160750000Y-98964000D01*
X160769685Y-98896961D01*
X160822489Y-98851206D01*
X160874000Y-98840000D01*
X161116988Y-98840000D01*
X161084075Y-98897007D01*
G37*
%TD.AperFunction*%
%TA.AperFunction,Conductor*%
G36*
X161084075Y-86197007D02*
G01*
X161050000Y-86324174D01*
X161050000Y-86455826D01*
X161084075Y-86582993D01*
X161116988Y-86640000D01*
X160874000Y-86640000D01*
X160806961Y-86620315D01*
X160761206Y-86567511D01*
X160750000Y-86516000D01*
X160750000Y-86264000D01*
X160769685Y-86196961D01*
X160822489Y-86151206D01*
X160874000Y-86140000D01*
X161116988Y-86140000D01*
X161084075Y-86197007D01*
G37*
%TD.AperFunction*%
%TD*%
%TA.AperFunction,Conductor*%
%TO.N,+3.3V*%
G36*
X194452865Y-81234685D02*
G01*
X194498620Y-81287489D01*
X194508564Y-81356647D01*
X194479539Y-81420203D01*
X194429989Y-81454869D01*
X194369958Y-81477749D01*
X194369952Y-81477752D01*
X194253565Y-81562313D01*
X194253551Y-81562324D01*
X194203447Y-81611017D01*
X194203446Y-81611018D01*
X194161142Y-81665881D01*
X194104616Y-81706950D01*
X194034861Y-81710939D01*
X194024633Y-81708093D01*
X193927701Y-81676598D01*
X193927699Y-81676597D01*
X193927698Y-81676597D01*
X193796271Y-81655781D01*
X193756611Y-81649500D01*
X193583389Y-81649500D01*
X193567832Y-81651964D01*
X193412301Y-81676597D01*
X193316805Y-81707626D01*
X193246964Y-81709621D01*
X193187131Y-81673540D01*
X193174171Y-81656733D01*
X193171106Y-81651964D01*
X193171096Y-81651951D01*
X193125352Y-81599159D01*
X193125348Y-81599156D01*
X193125346Y-81599153D01*
X193016612Y-81504933D01*
X193016609Y-81504931D01*
X193016607Y-81504930D01*
X192900258Y-81451794D01*
X192847454Y-81406039D01*
X192827770Y-81338999D01*
X192847455Y-81271960D01*
X192900260Y-81226205D01*
X192951770Y-81215000D01*
X194385826Y-81215000D01*
X194452865Y-81234685D01*
G37*
%TD.AperFunction*%
%TD*%
M02*
